<svg width="73" height="50" viewBox="0 0 73 50" fill="none" xmlns="http://www.w3.org/2000/svg">
<g clip-path="url(#clip0_5806_40565)">
<path d="M1.5498 0L31.2008 0.475023L59.113 25.2478H28.9838L1.5498 0Z" fill="#661107"/>
<path d="M57.6493 25.2511L56.3593 25.2738L40.2628 25.4756C26.1442 19.9694 28.9916 5.73932 30.2643 1.32638C30.5088 0.484784 30.6935 0 30.6935 0L57.6493 25.2511Z" fill="#470500"/>
<path d="M31.9627 49.9999H15.2282L11.1201 25.4744L29.1435 25.251L31.9627 49.9999Z" fill="#851703"/>
<path d="M14.2109 26.4429L26.7079 26.7064L27.523 32.9099H13.1523V33.5259L27.523 33.7906L28.2142 38.9377H14.1294L14.5782 42.1404L28.3773 40.6979L29.1434 49.9999L31.3572 49.9338L28.2957 26.2661L14.2109 26.4429Z" fill="#661107"/>
<path d="M16.4503 49.409C16.4503 49.409 12.2574 25.8997 12.1346 26.0168C12.0129 26.1339 11.2793 26.0168 11.2793 26.0168L15.7167 49.409H16.4492H16.4503Z" fill="#E8720A"/>
<path d="M31.9629 49.9999H30.3686C30.0197 46.2756 27.7679 26.4429 27.7679 26.4429H11.4834L16.1283 49.9999H15.2295L10.8193 25.251H29.1449L31.964 49.9999H31.9629Z" fill="#FAB93C"/>
<path d="M73.0001 25.251L68.0736 49.9999H31.9627L29.1436 25.251H73.0001Z" fill="url(#paint0_linear_5806_40565)"/>
<path d="M30.4131 32.9099L69.942 33.2591L69.128 35.9455L30.6576 34.0541L31.1869 39.2902L67.9477 40.7858V41.2261L31.0239 41.0493L30.4131 32.9099Z" fill="#851703"/>
<path d="M32.5164 27.3084L67.6894 27.7769L69.3185 33.2918L65.7353 50H67.6894L71.4888 26.3106L32.1914 26.0178L32.5164 27.3084Z" fill="#851703"/>
<path d="M73.0004 25.2509L72.2484 29.0316L71.317 33.707L70.3552 38.5386L68.074 49.9999H67.3154L69.376 36.8738L70.2574 31.2538L70.4769 29.8526C70.1867 29.9112 69.9074 29.9231 69.6498 29.8884C69.2803 29.8385 68.9499 29.6921 68.6869 29.4383C68.2218 28.9904 68.0359 28.2855 68.1033 27.4699L64.1572 27.3669L44.3123 26.8517L33.8769 26.5795C34.0095 27.0534 34.0682 27.5122 34.0541 27.9276C34.0291 28.5501 33.8356 29.0782 33.4596 29.4383C32.7945 30.0782 31.7131 30.0413 30.5991 29.4643L33.0835 49.9988H31.9641L29.3863 28.7594L28.9863 25.2488H73.0026L73.0004 25.2509Z" fill="#FCDB75"/>
<path d="M31.9629 32.9099L57.3222 33.7905L69.0063 33.2505L31.9629 32.9099Z" fill="#661107"/>
<path d="M32.6113 41.057L52.6812 40.698L64.9337 41.211L32.6113 41.057Z" fill="#661107"/>
<path d="M31.201 43.7292L28.6221 25.2478L28.984 25.2511L31.201 43.7292Z" fill="#EF9518"/>
<path d="M32.4023 34.1399L49.5878 35.2711L60.321 35.5129L32.4023 34.1399Z" fill="#A53012"/>
<path d="M33.8203 39.3965L52.2752 40.1481L38.9217 39.3965H33.8203Z" fill="#A53012"/>
<path opacity="0.48" d="M28.2149 38.9377L20.0868 39.275L14.6865 38.9377H28.2149Z" fill="#470500"/>
<path opacity="0.48" d="M27.5234 33.7906L13.5244 33.2083L13.5842 33.5347L27.5234 33.7906Z" fill="#470500"/>
<path opacity="0.51" d="M15.4668 42.0472L24.8632 41.416L28.3779 40.698L15.4668 42.0472Z" fill="#A53012"/>
<g style="mix-blend-mode:overlay" opacity="0.6">
<path d="M33.8761 26.5818C34.0087 27.0558 34.0674 27.5145 34.0532 27.9299C33.3664 26.9592 32.7556 26.0493 32.2383 25.2522H42.4139C43.0345 25.7619 43.6724 26.2999 44.3115 26.8551L33.8761 26.5829V26.5818Z" fill="white"/>
</g>
<g style="mix-blend-mode:overlay" opacity="0.6">
<path d="M69.6484 29.8896C69.2789 29.8397 68.9485 29.6933 68.6855 29.4395C68.2203 28.9916 68.0345 28.2867 68.1019 27.4711L64.1557 27.3681C63.7471 26.5959 63.3732 25.8812 63.0439 25.25H67.5118C68.1301 26.5634 68.8779 28.1728 69.6484 29.8885V29.8896Z" fill="white"/>
</g>
<g style="mix-blend-mode:overlay" opacity="0.6">
<path d="M71.3171 33.7071L70.3553 38.5387C70.0369 38.0062 69.7076 37.4498 69.375 36.8739L70.2564 31.2539C70.6139 32.0651 70.9704 32.8894 71.3171 33.706V33.7071Z" fill="white"/>
</g>
<path d="M28.5056 25.2511L27.2156 25.2738L11.1191 25.4756C-1.73442 20.4618 -0.524813 8.21855 0.755431 2.7341C0.757604 2.72433 0.757604 2.71891 0.757604 2.71891C0.882586 2.18532 1.00865 1.71681 1.12059 1.32529C1.36512 0.484784 1.54988 0 1.54988 0L28.5056 25.2511Z" fill="#851703"/>
<path d="M28.9843 25.2511L27.2161 25.4463L1.12109 1.32529C1.36562 0.484784 1.55038 0 1.55038 0L28.9843 25.2511Z" fill="#FAB93C"/>
<path d="M59.5205 25.2543H57.3763L31.2019 1.26131H4.88844L7.49022 3.63317L11.8657 7.62206L31.2019 25.2478H28.9838L10.6354 8.36171L6.67404 4.71661L1.5498 0H31.2019L59.5205 25.2543Z" fill="#FCDB75"/>
<path d="M31.2012 1.26123V1.84796L56.0192 25.2542H57.3766L31.2012 1.26123Z" fill="#EF9518"/>
<path d="M31.2011 1.84796H5.53205L4.88867 1.26123H31.2011V1.84796Z" fill="#EF9518"/>
<path d="M28.6533 25.4745L13.1523 10.8691L28.9837 25.2478L28.6533 25.4745Z" fill="#EF9518"/>
<g style="mix-blend-mode:overlay" opacity="0.6">
<path d="M7.49001 3.63306L11.8654 7.62195C11.4481 7.88007 11.0362 8.12843 10.6341 8.3616L6.67383 4.7165C6.93575 4.35644 7.20962 3.99312 7.49001 3.63306Z" fill="white"/>
</g>
<g style="mix-blend-mode:overlay" opacity="0.6">
<path d="M22.3556 0C21.8915 0.375247 21.3579 0.801466 20.7721 1.26131H9.45312C9.85089 0.806889 10.2302 0.382838 10.579 0H22.3556Z" fill="white"/>
</g>
<path d="M50.4844 26.2661L50.993 32.0304H56.4672L57.0377 26.2661H50.4844Z" fill="#FCDB75"/>
<path d="M50.9929 32.0304H50.4854L49.5898 26.9917L50.3495 27.0101L50.5506 27.0156L50.9929 32.0304Z" fill="#FAB93C"/>
<path d="M50.7072 32.0305L50.7789 29.9461L50.3496 27.0103L50.5507 27.0157L50.993 32.0305H50.7072Z" fill="#EF9518"/>
<g style="mix-blend-mode:overlay" opacity="0.6">
<path d="M54.1207 29.9678L54.3185 31.3159H53.6251L53.8262 29.9559C53.5164 29.8008 53.2871 29.2184 53.2871 28.675C53.2871 28.213 53.4534 27.9104 53.6936 27.7803C53.7816 27.7304 53.8805 27.7065 53.9848 27.7065C54.3728 27.7065 54.7271 28.2521 54.7271 28.8843C54.7271 29.4429 54.4424 29.8333 54.1207 29.9678Z" fill="white"/>
</g>
<path d="M54.0318 29.9678L54.2296 31.3159H53.5362L53.7373 29.9559C53.4276 29.8008 53.1982 29.2184 53.1982 28.675C53.1982 28.213 53.3645 27.9104 53.6047 27.7803C53.6927 27.7304 53.7916 27.7065 53.896 27.7065C54.284 27.7065 54.5959 28.0427 54.5959 28.675C54.5959 29.2336 54.3535 29.8333 54.0318 29.9678Z" fill="#EF9518"/>
<path d="M53.7612 30.0416L53.946 31.3148H53.5362L53.7373 29.9548C53.4276 29.7997 53.1982 29.2174 53.1982 28.674C53.1982 28.212 53.3645 27.9094 53.6047 27.7793C53.6112 27.7771 53.6188 27.7771 53.6254 27.7771C54.0133 27.7771 54.3252 28.1144 54.3252 28.7478C54.3252 29.3041 54.0829 29.9039 53.7612 30.0405V30.0416Z" fill="#3C2733"/>
<path d="M71.6486 25.2511H66.295H58.7961H50.9755H45.7155H44.2092H43.8592H37.0602H31.2024L30.7449 24.8346L30.5699 24.6752L30.4243 24.5429L29.8167 23.9887L29.7113 23.8922L29.4016 23.6102L29.1451 23.377L29.0147 23.2566L28.9603 23.2078L28.3789 22.6786C28.3789 22.6786 37.8427 14.3592 41.903 13.8158C43.4756 13.6054 48.9671 19.2244 55.8824 20.387C59.5221 20.9986 71.6496 25.2554 71.6496 25.2554L71.6486 25.2511Z" fill="#EF9518"/>
<path d="M50.6055 21.8729C50.6055 21.8729 55.6352 21.7557 56.1905 21.8729C56.7459 21.99 59.3237 23.5832 59.3237 23.5832C59.3237 23.5832 52.6269 24.7707 50.6055 21.8729Z" fill="#EF9518"/>
<path d="M64.7492 22.7859L64.6743 23.5711C64.6699 23.6155 64.659 23.6578 64.6395 23.698C64.3993 24.238 62.9571 24.5168 61.2574 24.3291C59.4294 24.1253 57.9948 23.4561 58.0535 22.8347L58.1285 22.0484L59.0686 22.1525C59.6891 22.0104 60.5412 21.9725 61.4704 22.0755C61.5888 22.0885 61.7051 22.1037 61.8203 22.1211C62.6061 22.2371 63.3016 22.4366 63.8081 22.6796L64.7482 22.7837L64.7492 22.7859Z" fill="#FAB93C"/>
<path d="M64.7493 22.7858L64.6743 23.571C64.67 23.6155 64.6591 23.6578 64.6396 23.6979C60.112 24.354 58.334 22.5038 58.334 22.5038L61.8204 22.1221C62.6062 22.2381 63.3017 22.4377 63.8082 22.6806L64.7482 22.7847L64.7493 22.7858Z" fill="#EF9518"/>
<path d="M64.7496 22.7858C64.6931 23.3812 63.2867 23.7185 61.5609 23.5656C61.4848 23.5591 61.4088 23.5515 61.3316 23.5428C60.7176 23.4745 60.147 23.3541 59.6634 23.2001C58.707 22.8954 58.0886 22.4616 58.1277 22.0483C58.1864 21.4258 59.7166 21.0875 61.5446 21.2903C61.5696 21.2935 61.5935 21.2968 61.6185 21.2989C62.0304 21.3477 62.4206 21.4204 62.777 21.5093C63.9758 21.8119 64.793 22.3119 64.7485 22.7847L64.7496 22.7858Z" fill="#FCDB75"/>
<g style="mix-blend-mode:overlay" opacity="0.6">
<path d="M62.7778 21.5104L61.5606 23.5656C61.4846 23.5591 61.4085 23.5515 61.3313 23.5429C60.7173 23.4745 60.1467 23.3541 59.6631 23.2001L61.6193 21.3C62.0312 21.3489 62.4214 21.4215 62.7778 21.5104Z" fill="white"/>
</g>
<path d="M63.8196 22.428C63.8272 22.4551 63.8305 22.4822 63.8283 22.5093C63.8251 22.5429 63.8142 22.5744 63.7946 22.6047C63.599 22.9193 62.585 23.0657 61.3895 22.9323C60.5201 22.8358 59.7735 22.6167 59.379 22.3694C59.2453 22.2859 59.1529 22.1991 59.1084 22.1135C59.0855 22.0701 59.0758 22.0256 59.0801 21.9822C59.116 21.6026 60.2082 21.4139 61.52 21.5593C62.7383 21.6948 63.7164 22.0722 63.8196 22.4291V22.428Z" fill="#DB7C09"/>
<path d="M63.7947 22.6047C63.599 22.9192 62.5851 23.0656 61.3896 22.9322C60.5201 22.8357 59.7735 22.6166 59.379 22.3693C59.2453 22.2858 59.153 22.199 59.1084 22.1134C59.2997 21.7967 60.3158 21.6503 61.5157 21.7837C62.6774 21.9138 63.6229 22.263 63.7947 22.6057V22.6047Z" fill="#FAB93C"/>
<path d="M40.5217 14.0923L40.8216 14.8124C40.839 14.8525 40.8477 14.8959 40.851 14.9415C40.8934 15.539 39.7761 16.5628 38.2188 17.322C36.5429 18.1376 34.991 18.3371 34.7541 17.7678L34.4541 17.0465L35.3159 16.6268C35.7865 16.167 36.506 15.6724 37.358 15.2582C37.4667 15.2061 37.5743 15.1551 37.6819 15.1085C38.4155 14.782 39.1099 14.5792 39.6609 14.5131L40.5228 14.0934L40.5217 14.0923Z" fill="#FAB93C"/>
<path d="M40.5213 14.0923L40.8212 14.8124C40.8386 14.8525 40.8473 14.8959 40.8506 14.9415C37.2392 17.9651 34.8428 17.3285 34.8428 17.3285L37.6815 15.1074C38.4151 14.781 39.1095 14.5782 39.6605 14.512L40.5224 14.0923H40.5213Z" fill="#EF9518"/>
<path d="M40.5214 14.0924C40.7485 14.6379 39.6889 15.6931 38.1261 16.4968C38.0576 16.5326 37.988 16.5673 37.9174 16.602C37.3544 16.8753 36.8056 17.0802 36.3155 17.2104C35.3471 17.4652 34.6103 17.4262 34.4527 17.0477C34.2147 16.4772 35.3808 15.3548 37.0567 14.5392C37.0795 14.5283 37.1023 14.5175 37.1251 14.5067C37.5033 14.3255 37.875 14.1759 38.225 14.0598C39.402 13.6716 40.341 13.6596 40.5224 14.0935L40.5214 14.0924Z" fill="#FCDB75"/>
<g style="mix-blend-mode:overlay" opacity="0.6">
<path d="M38.2239 14.0588L38.1251 16.4969C38.0566 16.5326 37.987 16.5674 37.9164 16.6021C37.3534 16.8754 36.8046 17.0803 36.3145 17.2105L37.1241 14.5067C37.5023 14.3256 37.874 14.176 38.2239 14.0599V14.0588Z" fill="white"/>
</g>
<path d="M39.5505 14.2877C39.5701 14.3061 39.5842 14.3289 39.5962 14.3527C39.6092 14.3831 39.6136 14.4167 39.6114 14.4536C39.5875 14.8321 38.7789 15.5089 37.6834 16.0414C36.8868 16.4296 36.1391 16.6454 35.6826 16.6444C35.5283 16.6444 35.4087 16.6194 35.3305 16.5695C35.2903 16.5435 35.2609 16.511 35.2446 16.4708C35.099 16.1227 35.9565 15.3668 37.1585 14.7822C38.2757 14.2389 39.2962 14.0339 39.5516 14.2877H39.5505Z" fill="#DB7C09"/>
<path d="M39.6119 14.4535C39.588 14.832 38.7795 15.5087 37.684 16.0412C36.8873 16.4295 36.1396 16.6453 35.6832 16.6442C35.5289 16.6442 35.4093 16.6193 35.3311 16.5694C35.3495 16.192 36.1603 15.5141 37.2601 14.9784C38.3252 14.4611 39.3055 14.2496 39.6119 14.4535Z" fill="#FAB93C"/>
<path d="M35.4016 23.8486L35.3733 24.6381C35.3711 24.6815 35.3624 24.7259 35.3461 24.7672C35.2788 24.9483 35.081 25.112 34.7853 25.2465H31.2022L30.7446 24.8301L30.5697 24.6706L30.424 24.5383L29.8165 23.9841L29.7111 23.8876L29.4014 23.6056L29.6948 23.6176C29.7133 23.6121 29.7318 23.6067 29.7502 23.6013C30.2175 23.4646 30.8164 23.3811 31.4826 23.367C31.6793 23.3616 31.8803 23.3638 32.0868 23.3714C32.2053 23.3768 32.3227 23.3833 32.4379 23.3931C32.6237 23.4072 32.8052 23.4267 32.9813 23.4494C33.5258 23.5232 34.0105 23.6414 34.3995 23.7889C34.418 23.7954 34.4376 23.803 34.455 23.8106L35.4005 23.8475L35.4016 23.8486Z" fill="#FAB93C"/>
<path d="M35.4013 23.8487L35.373 24.6382C35.3709 24.6816 35.3622 24.7261 35.3459 24.7673C33.2875 25.2152 31.7768 25.0926 30.7455 24.8291L30.5705 24.6697L30.4249 24.5374L29.8173 23.9832L29.7119 23.8866L30.0488 23.8259L31.2682 23.6047L32.4387 23.3921C32.6245 23.4062 32.806 23.4257 32.9821 23.4485C33.5266 23.5222 34.0113 23.6404 34.4003 23.7879C34.4188 23.7944 34.4384 23.802 34.4558 23.8096L35.4013 23.8465V23.8487Z" fill="#EF9518"/>
<path d="M35.4012 23.8487C35.3794 24.4473 33.997 24.8822 32.2658 24.8518C32.1897 24.8518 32.1136 24.8486 32.0365 24.8464C31.9408 24.8432 31.8463 24.8367 31.7528 24.8302C31.6985 24.8269 31.6452 24.8226 31.592 24.8182C31.5854 24.8182 31.5789 24.8182 31.5735 24.8161C31.4279 24.803 31.2855 24.7868 31.1485 24.7683C31.1138 24.764 31.0779 24.7586 31.0431 24.7532C31.0084 24.7488 30.9736 24.7434 30.9388 24.7369C30.904 24.7315 30.8703 24.726 30.8377 24.7206C30.7475 24.7044 30.6573 24.6881 30.5715 24.6707L30.4258 24.5384L29.8183 23.9842L29.7129 23.8877L29.4032 23.6057L29.1467 23.3725L29.0163 23.2522L28.9619 23.2034C29.439 22.7869 30.6758 22.5255 32.1158 22.5841C32.1408 22.5841 32.1658 22.5874 32.1897 22.5874C32.6038 22.6069 32.9983 22.6513 33.3591 22.7153C34.573 22.9322 35.4196 23.3736 35.4033 23.8487H35.4012Z" fill="#FCDB75"/>
<g style="mix-blend-mode:overlay" opacity="0.6">
<path d="M33.3559 22.7153L33.2211 22.9778L33.1179 23.1817L32.9799 23.4507L32.5788 24.2359L32.2647 24.8519C32.1887 24.8519 32.1126 24.8486 32.0354 24.8464C31.9398 24.8432 31.8452 24.8367 31.7518 24.8302C31.6974 24.8269 31.6442 24.8226 31.5909 24.8182C31.5844 24.8182 31.5779 24.8182 31.5725 24.8161C31.4268 24.8031 31.2845 24.7868 31.1475 24.7684C31.1127 24.764 31.0769 24.7586 31.0421 24.7532C31.0073 24.7488 30.9725 24.7434 30.9378 24.7369C30.903 24.7315 30.8693 24.7261 30.8367 24.7206C30.7465 24.7044 30.6563 24.6881 30.5704 24.6708L30.4248 24.5384L30.8356 24.084L31.2682 23.6047L31.4833 23.3661L31.7518 23.0678L31.9528 22.8455L32.1887 22.5852C32.6027 22.6047 32.9972 22.6492 33.3581 22.7132L33.3559 22.7153Z" fill="white"/>
</g>
<path d="M34.4513 23.558C34.461 23.584 34.4654 23.6112 34.4643 23.6383C34.4643 23.6719 34.4534 23.7044 34.4371 23.7359C34.26 24.0634 33.2579 24.2814 32.057 24.2315C31.1833 24.1968 30.4247 24.0309 30.0171 23.8107C29.8791 23.737 29.7813 23.6567 29.7324 23.5743C29.7074 23.532 29.6943 23.4886 29.6965 23.4452C29.7096 23.0645 30.7888 22.7988 32.1049 22.852C33.3286 22.9019 34.3274 23.2088 34.4513 23.558Z" fill="#DB7C09"/>
<path d="M34.4372 23.7359C34.26 24.0634 33.258 24.2814 32.0571 24.2315C31.1833 24.1968 30.4247 24.0309 30.0172 23.8107C29.8791 23.737 29.7813 23.6567 29.7324 23.5743C29.9041 23.2457 30.9094 23.0277 32.1147 23.0754C33.2819 23.1231 34.247 23.4051 34.4382 23.7348L34.4372 23.7359Z" fill="#FAB93C"/>
<path d="M36.4287 18.4684C36.4287 18.4684 38.5773 15.7202 39.438 15.2853C40.2988 14.8504 41.8899 14.5728 41.8899 14.5728C41.8899 14.5728 39.1544 18.232 36.4287 18.4695V18.4684Z" fill="#EF9518"/>
<path d="M61.3994 24.7685C61.3994 24.7685 64.6305 22.4335 65.3043 22.3706C65.9781 22.3077 71.6468 25.2522 71.6468 25.2522C71.6468 25.2522 63.4893 24.672 61.3994 24.7696V24.7685Z" fill="#EF9518"/>
<path d="M39.6704 17.5455C39.7269 17.706 39.5128 17.9413 39.1933 18.0726C38.8738 18.2038 38.5684 18.1788 38.513 18.0194C38.4564 17.8589 38.6705 17.6236 38.9901 17.4923C39.3096 17.3611 39.615 17.3861 39.6704 17.5455Z" fill="#FAB93C"/>
<path d="M38.2934 24.2403C38.35 24.4008 38.1359 24.6362 37.8163 24.7674C37.4968 24.8986 37.1914 24.8737 37.136 24.7142C37.0795 24.5537 37.2936 24.3184 37.6131 24.1872C37.9326 24.0559 38.238 24.0809 38.2934 24.2403Z" fill="#FAB93C"/>
<path d="M44.2016 18.6994C44.2766 18.913 43.9919 19.2275 43.5658 19.4011C43.1398 19.5746 42.7344 19.5431 42.6594 19.3295C42.5845 19.1158 42.8692 18.8013 43.2952 18.6278C43.7212 18.4532 44.1266 18.4857 44.2016 18.6994Z" fill="#FAB93C"/>
<path d="M54.1118 23.9528C54.1868 24.1665 53.902 24.481 53.476 24.6545C53.05 24.8291 52.6446 24.7966 52.5696 24.5829C52.4946 24.3693 52.7794 24.0548 53.2054 23.8813C53.6314 23.7077 54.0368 23.7392 54.1118 23.9528Z" fill="#FAB93C"/>
<path d="M64.7934 23.7858C64.8684 23.9995 64.5837 24.314 64.1576 24.4875C63.7316 24.6621 63.3262 24.6296 63.2512 24.416C63.1763 24.2023 63.461 23.8878 63.887 23.7143C64.313 23.5407 64.7184 23.5722 64.7934 23.7858Z" fill="#FAB93C"/>
<path d="M32.1684 21.1679C32.2434 21.3815 31.9587 21.696 31.5326 21.8696C31.1066 22.0431 30.7012 22.0116 30.6262 21.798C30.5513 21.5843 30.836 21.2698 31.262 21.0963C31.688 20.9217 32.0934 20.9542 32.1684 21.1679Z" fill="#FAB93C"/>
<path d="M45.3592 18.1172C45.2798 18.2657 44.9755 18.2365 44.6799 18.051C44.3843 17.8666 44.2082 17.5966 44.2876 17.448C44.3669 17.2994 44.6712 17.3287 44.9668 17.5142C45.2624 17.6985 45.4385 17.9686 45.3592 18.1172Z" fill="#FAB93C"/>
<path d="M55.7957 23.3152C55.7164 23.4637 55.412 23.4345 55.1164 23.249C54.8208 23.0646 54.6448 22.7946 54.7241 22.646C54.8034 22.4974 55.1077 22.5267 55.4034 22.7122C55.699 22.8965 55.875 23.1666 55.7957 23.3152Z" fill="#FAB93C"/>
<path d="M68.0144 24.5376C67.9351 24.6861 67.6308 24.6569 67.3352 24.4714C67.0396 24.287 66.8635 24.017 66.9429 23.8684C67.0222 23.7198 67.3265 23.7491 67.6221 23.9346C67.9177 24.1189 68.0938 24.389 68.0144 24.5376Z" fill="#FAB93C"/>
<path d="M41.4095 22.2438C41.4812 22.3425 41.3802 22.5561 41.1835 22.7232C40.9878 22.8891 40.7705 22.9444 40.6998 22.8457C40.6281 22.747 40.7292 22.5334 40.9259 22.3663C41.1215 22.2004 41.3389 22.1451 41.4095 22.2438Z" fill="#FAB93C"/>
<path d="M50.7953 21.6137C50.867 21.7124 50.7659 21.926 50.5692 22.093C50.3736 22.259 50.1562 22.3143 50.0856 22.2156C50.0138 22.1169 50.1149 21.9032 50.3116 21.7362C50.5072 21.5703 50.7246 21.515 50.7953 21.6137Z" fill="#FAB93C"/>
<path d="M40.181 18.8328C40.1539 18.9391 40.0278 18.9944 39.9006 18.9564C39.7724 18.9185 39.692 18.8002 39.7191 18.694C39.7463 18.5877 39.8724 18.5324 39.9995 18.5703C40.1278 18.6083 40.2082 18.7265 40.181 18.8328Z" fill="#FCDB75"/>
<path d="M55.3939 24.2998C55.3667 24.4061 55.2407 24.4614 55.1135 24.4235C54.9853 24.3855 54.9049 24.2673 54.932 24.161C54.9592 24.0547 55.0853 23.9994 55.2124 24.0374C55.3407 24.0753 55.4211 24.1935 55.3939 24.2998Z" fill="#FCDB75"/>
<path d="M65.7543 23.273C65.7271 23.3792 65.601 23.4346 65.4739 23.3966C65.3456 23.3586 65.2652 23.2404 65.2924 23.1341C65.3196 23.0279 65.4456 22.9725 65.5728 23.0105C65.701 23.0485 65.7814 23.1667 65.7543 23.273Z" fill="#FCDB75"/>
<path d="M33.2787 21.7437C33.2515 21.8499 33.1254 21.9053 32.9983 21.8673C32.8701 21.8293 32.7896 21.7111 32.8168 21.6048C32.844 21.4986 32.97 21.4432 33.0972 21.4812C33.2254 21.5192 33.3059 21.6374 33.2787 21.7437Z" fill="#FCDB75"/>
<path d="M43.4613 17.6594C43.4341 17.7657 43.3081 17.821 43.1809 17.7831C43.0527 17.7451 42.9722 17.6269 42.9994 17.5206C43.0266 17.4143 43.1527 17.359 43.2798 17.397C43.4081 17.4349 43.4885 17.5532 43.4613 17.6594Z" fill="#FCDB75"/>
<path d="M40.9203 15.8081C40.8931 15.9144 40.767 15.9697 40.6399 15.9318C40.5117 15.8938 40.4312 15.7756 40.4584 15.6693C40.4856 15.563 40.6116 15.5077 40.7388 15.5457C40.867 15.5836 40.9475 15.7018 40.9203 15.8081Z" fill="#DB7C09"/>
<path d="M44.2797 23.6621C44.2525 23.7684 44.1264 23.8237 43.9993 23.7858C43.871 23.7478 43.7906 23.6296 43.8178 23.5233C43.8449 23.417 43.971 23.3617 44.0982 23.3997C44.2264 23.4376 44.3068 23.5558 44.2797 23.6621Z" fill="#DB7C09"/>
<path d="M42.0308 22.1949C42.0167 22.248 41.9547 22.2751 41.8906 22.2567C41.8265 22.2372 41.7863 22.1786 41.7993 22.1254C41.8135 22.0723 41.8754 22.0452 41.9395 22.0636C42.0036 22.0832 42.0439 22.1417 42.0308 22.1949Z" fill="#FCDB75"/>
<path d="M35.7769 23.3997C35.7628 23.4528 35.7008 23.4799 35.6367 23.4615C35.5726 23.442 35.5324 23.3834 35.5454 23.3303C35.5585 23.2771 35.6215 23.25 35.6856 23.2685C35.7497 23.288 35.79 23.3466 35.7769 23.3997Z" fill="#DB7C09"/>
<path d="M38.814 19.501C38.7999 19.5542 38.7379 19.5813 38.6738 19.5628C38.6097 19.5444 38.5695 19.4847 38.5825 19.4316C38.5967 19.3785 38.6586 19.3513 38.7227 19.3698C38.7868 19.3893 38.8271 19.4479 38.814 19.501Z" fill="#FCDB75"/>
<path d="M44.2828 24.2652C44.2686 24.3183 44.2067 24.3454 44.1426 24.327C44.0785 24.3075 44.0382 24.2489 44.0513 24.1958C44.0643 24.1426 44.1274 24.1155 44.1915 24.1339C44.2556 24.1535 44.2958 24.212 44.2828 24.2652Z" fill="#FCDB75"/>
<path d="M53.6919 22.9368C53.6778 22.9899 53.6159 23.0171 53.5518 22.9986C53.4876 22.9791 53.4474 22.9205 53.4605 22.8674C53.4746 22.8143 53.5365 22.7871 53.6007 22.8056C53.6648 22.8251 53.705 22.8837 53.6919 22.9368Z" fill="#FCDB75"/>
<path d="M65.7574 24.2381C65.7432 24.2912 65.6813 24.3183 65.6172 24.2999C65.5531 24.2804 65.5128 24.2218 65.5259 24.1687C65.5389 24.1155 65.602 24.0884 65.6661 24.1068C65.7302 24.1253 65.7704 24.1849 65.7574 24.2381Z" fill="#DB7C09"/>
<path d="M58.2418 23.6003C58.2276 23.6535 58.1657 23.6806 58.1016 23.6621C58.0374 23.6426 57.9972 23.5841 58.0103 23.5309C58.0244 23.4778 58.0863 23.4496 58.1505 23.4691C58.2146 23.4886 58.2548 23.5472 58.2418 23.6003Z" fill="#FCDB75"/>
<path d="M41.5869 14.8027C41.5869 14.8027 42.9682 16.5206 46.9633 18.0964C50.9583 19.6711 44.2311 14.7485 41.5869 14.8027Z" fill="#DB7C09"/>
<path d="M53.249 19.7568L53.0023 20.4997C52.9882 20.542 52.9675 20.5799 52.9403 20.6147C52.5871 21.0767 51.1254 20.9758 49.5169 20.3544C47.7868 19.6841 46.5413 18.6636 46.7358 18.0758L46.9825 17.3318L47.8726 17.6756C48.5073 17.6984 49.342 17.8816 50.2223 18.2222C50.3342 18.2656 50.444 18.31 50.5516 18.3567C51.2895 18.6723 51.9198 19.0464 52.3589 19.413L53.249 19.7568Z" fill="#FAB93C"/>
<path d="M53.2495 19.7569L53.0028 20.4998C52.9887 20.5421 52.968 20.58 52.9408 20.6147C48.3991 20.0822 47.083 17.8264 47.083 17.8264L50.5531 18.3568C51.2911 18.6723 51.9214 19.0465 52.3605 19.4131L53.2506 19.7569H53.2495Z" fill="#EF9518"/>
<path d="M53.2494 19.7569C53.0625 20.3197 51.6225 20.2839 49.9803 19.6907C49.9075 19.6647 49.8358 19.6376 49.763 19.6094C49.1815 19.3838 48.6555 19.1202 48.2197 18.8459C47.359 18.3036 46.8536 17.7223 46.983 17.3308C47.1775 16.7419 48.7381 16.808 50.4683 17.4783C50.4911 17.488 50.515 17.4967 50.5379 17.5065C50.9269 17.6605 51.2899 17.8307 51.6171 18.0097C52.7136 18.6127 53.3972 19.309 53.2494 19.7569Z" fill="#FCDB75"/>
<g style="mix-blend-mode:overlay" opacity="0.6">
<path d="M51.618 18.0086L49.9813 19.6896C49.9085 19.6636 49.8368 19.6365 49.764 19.6083C49.1825 19.3827 48.6565 19.1191 48.2207 18.8448L50.5399 17.5054C50.929 17.6594 51.292 17.8296 51.6191 18.0086H51.618Z" fill="white"/>
</g>
<path d="M52.4266 19.1691C52.4287 19.1973 52.4244 19.2244 52.4168 19.2505C52.4059 19.2819 52.3885 19.3101 52.3635 19.334C52.1038 19.5888 51.0865 19.4685 49.9552 19.0303C49.1325 18.7125 48.4554 18.3069 48.1272 17.9642C48.0163 17.8493 47.9457 17.7408 47.9218 17.6464C47.9098 17.5976 47.9098 17.5521 47.924 17.512C48.0424 17.153 49.1455 17.2517 50.3856 17.731C51.5386 18.1779 52.4048 18.796 52.4255 19.1691H52.4266Z" fill="#DB7C09"/>
<path d="M52.3636 19.334C52.1039 19.5888 51.0866 19.4685 49.9553 19.0303C49.1326 18.7125 48.4555 18.3069 48.1273 17.9642C48.0164 17.8493 47.9458 17.7408 47.9219 17.6464C48.1773 17.3883 49.1967 17.5087 50.3324 17.9479C51.4322 18.3742 52.2723 18.9576 52.3636 19.334Z" fill="#FAB93C"/>
<path d="M42.2471 22.6059C42.2471 22.6059 46.9159 21.8359 47.3561 21.8391C47.7952 21.8424 49.0265 21.9606 49.0265 21.9606C49.0265 21.9606 46.766 23.6308 42.2471 22.6059Z" fill="#EF9518"/>
<path d="M51.6202 23.8043L51.6115 24.5939C51.6115 24.6383 51.6028 24.6817 51.5876 24.724C51.5191 24.9203 51.3029 25.1004 50.9768 25.2489H45.7167C45.2396 25.0472 44.9538 24.7924 44.9571 24.518L44.9647 23.7306V23.7273L45.9102 23.7371C45.9287 23.7306 45.9471 23.7252 45.9667 23.7198C46.4318 23.5712 47.0285 23.4681 47.6936 23.4345C47.8892 23.4248 48.0892 23.4204 48.2957 23.4237C48.4152 23.4258 48.5326 23.428 48.6489 23.4334C48.8358 23.4432 49.0173 23.4562 49.1934 23.4757C49.7379 23.5343 50.2269 23.6373 50.6193 23.774C50.6377 23.7794 50.6573 23.787 50.6758 23.7935L51.6224 23.8033L51.6202 23.8043Z" fill="#FAB93C"/>
<path d="M51.6191 23.8043L51.6104 24.5938C51.6104 24.6383 51.6017 24.6816 51.5865 24.7239C47.1328 25.8269 45.207 24.1589 45.207 24.1589L48.6467 23.4333C49.439 23.4702 50.1476 23.6015 50.6736 23.7923L51.6191 23.8032V23.8043Z" fill="#EF9518"/>
<path d="M51.6195 23.8043C51.613 24.4019 50.2415 24.878 48.5102 24.8975C48.4341 24.8975 48.357 24.8975 48.2798 24.8975C47.6625 24.8899 47.0843 24.827 46.5898 24.7207C45.6117 24.5125 44.9586 24.1416 44.9629 23.7262C44.9683 23.1005 46.4638 22.6113 48.3015 22.633C48.3265 22.633 48.3515 22.6341 48.3754 22.6352C48.7895 22.6428 49.1851 22.6764 49.547 22.7295C50.7664 22.9117 51.6228 23.3282 51.6184 23.8043H51.6195Z" fill="#FCDB75"/>
<g style="mix-blend-mode:overlay" opacity="0.6">
<path d="M49.5491 22.7295L48.5112 24.8964C48.4351 24.8964 48.3579 24.8964 48.2808 24.8964C47.6635 24.8888 47.0853 24.8259 46.5908 24.7196L48.3775 22.634C48.7916 22.6416 49.1872 22.6752 49.5491 22.7284V22.7295Z" fill="white"/>
</g>
<path d="M50.6642 23.5408C50.674 23.5669 50.6794 23.5929 50.6794 23.6211C50.6794 23.6547 50.6707 23.6873 50.6544 23.7187C50.4859 24.0517 49.4883 24.2979 48.2874 24.2827C47.4136 24.2729 46.6507 24.1287 46.2377 23.9215C46.0975 23.8521 45.9986 23.7751 45.9464 23.6938C45.9203 23.6526 45.9062 23.6092 45.9073 23.5658C45.9105 23.184 46.9832 22.888 48.3004 22.9031C49.5252 22.9172 50.5316 23.196 50.6642 23.5408Z" fill="#DB7C09"/>
<path d="M50.6543 23.7187C50.4858 24.0517 49.4882 24.2978 48.2872 24.2827C47.4135 24.2729 46.6505 24.1287 46.2375 23.9215C46.0974 23.8521 45.9985 23.7751 45.9463 23.6938C46.1104 23.3597 47.1092 23.1125 48.3155 23.1266C49.4838 23.1406 50.4543 23.3944 50.6543 23.7187Z" fill="#FAB93C"/>
<path d="M40.1114 33.527C40.1875 33.7862 40.1179 34.0096 39.9299 34.1376C39.8875 34.1669 39.8386 34.1908 39.7843 34.2103C39.5452 34.2916 39.3148 34.2265 39.1854 34.0302C39.155 33.9847 39.1311 33.9305 39.1126 33.8697C39.0192 33.552 39.1148 33.2353 39.4093 33.1344C39.7038 33.0336 40.0179 33.2093 40.1114 33.527Z" fill="url(#paint1_linear_5806_40565)"/>
<g style="mix-blend-mode:overlay" opacity="0.59">
<path d="M39.911 33.4348C39.898 33.5693 39.7871 33.643 39.6219 33.6246C39.4578 33.6061 39.3404 33.5074 39.3524 33.373C39.3654 33.2385 39.4709 33.1398 39.6361 33.1582C39.8002 33.1767 39.9241 33.3003 39.911 33.4348Z" fill="white"/>
</g>
<path d="M47.0445 25.249H45.9893C45.9947 25.0245 46.1034 24.8315 46.3207 24.7577C46.6153 24.6569 46.9293 24.8325 47.0228 25.1503C47.0337 25.1839 47.0413 25.2165 47.0456 25.249H47.0445Z" fill="url(#paint2_linear_5806_40565)"/>
<g style="mix-blend-mode:overlay" opacity="0.59">
<path d="M46.8341 24.9366C46.8276 25.0039 46.72 25.0342 46.5559 25.0169C46.3918 24.9984 46.2701 24.942 46.2766 24.8748C46.2831 24.8076 46.3842 24.7631 46.5483 24.7815C46.7124 24.8 46.8407 24.8694 46.8341 24.9366Z" fill="white"/>
</g>
<path d="M37.0603 25.2467H36.0322C36.0594 25.0612 36.167 24.9083 36.355 24.8443C36.6495 24.7424 36.9636 24.9191 37.0571 25.2369C37.0571 25.2402 37.0592 25.2434 37.0592 25.2467H37.0603Z" fill="url(#paint3_linear_5806_40565)"/>
<g style="mix-blend-mode:overlay" opacity="0.59">
<path d="M36.8693 25.0233C36.8628 25.0905 36.7552 25.1209 36.5911 25.1035C36.427 25.0851 36.3053 25.0287 36.3118 24.9615C36.3183 24.8942 36.4183 24.8302 36.5835 24.8487C36.7476 24.8671 36.8769 24.9571 36.8704 25.0244L36.8693 25.0233Z" fill="white"/>
</g>
<path d="M47.5508 25.6327C47.6269 25.8919 47.5574 26.1153 47.3693 26.2433C47.327 26.2726 47.2781 26.2965 47.2237 26.316C46.9846 26.3973 46.7542 26.3323 46.6249 26.136C46.5945 26.0904 46.5706 26.0362 46.5521 25.9754C46.4586 25.6577 46.5543 25.341 46.8488 25.2401C47.1433 25.1393 47.4574 25.315 47.5508 25.6327Z" fill="url(#paint4_linear_5806_40565)"/>
<g style="mix-blend-mode:overlay" opacity="0.59">
<path d="M47.3505 25.5405C47.3374 25.675 47.2266 25.7487 47.0614 25.7303C46.8973 25.7118 46.7799 25.6132 46.7919 25.4787C46.8038 25.3442 46.9103 25.2455 47.0755 25.2639C47.2396 25.2824 47.3635 25.406 47.3505 25.5405Z" fill="white"/>
</g>
<path d="M47.3326 26.6967C47.413 26.9721 47.3391 27.2086 47.1402 27.3452C47.0946 27.3767 47.0435 27.4016 46.9848 27.4222C46.7316 27.509 46.486 27.4396 46.349 27.2303C46.3164 27.1815 46.2914 27.1251 46.2719 27.06C46.173 26.7227 46.274 26.3865 46.587 26.2791C46.9 26.1718 47.2337 26.3583 47.3326 26.6967Z" fill="url(#paint5_linear_5806_40565)"/>
<g style="mix-blend-mode:overlay" opacity="0.59">
<path d="M47.1206 26.599C47.1065 26.7422 46.9891 26.8192 46.8141 26.7996C46.6391 26.7801 46.5152 26.676 46.5283 26.5328C46.5424 26.3897 46.6544 26.2856 46.8293 26.3051C47.0043 26.3246 47.1347 26.4558 47.1206 26.599Z" fill="white"/>
</g>
<path d="M47.0001 27.7802C47.0761 28.0394 47.0066 28.2628 46.8186 28.3908C46.7762 28.4201 46.7273 28.4439 46.6729 28.4634C46.4338 28.5448 46.2034 28.4797 46.0741 28.2834C46.0437 28.2379 46.0198 28.1836 46.0013 28.1229C45.9078 27.8051 46.0035 27.4885 46.298 27.3876C46.5925 27.2867 46.9066 27.4624 47.0001 27.7802Z" fill="url(#paint6_linear_5806_40565)"/>
<g style="mix-blend-mode:overlay" opacity="0.59">
<path d="M46.7997 27.688C46.7866 27.8224 46.6758 27.8962 46.5106 27.8777C46.3454 27.8593 46.2291 27.7606 46.2411 27.6261C46.2541 27.4917 46.3595 27.393 46.5247 27.4114C46.6888 27.4298 46.8127 27.5535 46.7997 27.688Z" fill="white"/>
</g>
<path d="M46.668 28.7314C46.7441 28.9906 46.6745 29.214 46.4865 29.342C46.4441 29.3712 46.3952 29.3951 46.3409 29.4146C46.1018 29.496 45.8714 29.4309 45.7421 29.2346C45.7117 29.189 45.6877 29.1348 45.6693 29.0741C45.5758 28.7563 45.6714 28.4396 45.966 28.3388C46.2605 28.2379 46.5746 28.4136 46.668 28.7314Z" fill="url(#paint7_linear_5806_40565)"/>
<g style="mix-blend-mode:overlay" opacity="0.59">
<path d="M46.4667 28.6391C46.4536 28.7736 46.3428 28.8474 46.1776 28.8289C46.0135 28.8105 45.8961 28.7118 45.9081 28.5773C45.92 28.4428 46.0265 28.3441 46.1917 28.3626C46.3558 28.381 46.4797 28.5046 46.4667 28.6391Z" fill="white"/>
</g>
<path d="M46.1758 29.6803C46.2519 29.9395 46.1824 30.163 45.9943 30.2909C45.952 30.3202 45.9031 30.3441 45.8487 30.3636C45.6096 30.4449 45.3792 30.3799 45.2499 30.1836C45.2195 30.138 45.1956 30.0838 45.1771 30.0231C45.0836 29.7053 45.1793 29.3886 45.4738 29.2877C45.7683 29.1869 46.0824 29.3626 46.1758 29.6803Z" fill="url(#paint8_linear_5806_40565)"/>
<g style="mix-blend-mode:overlay" opacity="0.59">
<path d="M45.9755 29.5881C45.9624 29.7226 45.8516 29.7963 45.6864 29.7779C45.5223 29.7595 45.4049 29.6608 45.4169 29.5263C45.4299 29.3918 45.5353 29.2931 45.7005 29.3115C45.8646 29.33 45.9885 29.4536 45.9755 29.5881Z" fill="white"/>
</g>
<path d="M45.7696 30.6237C45.8457 30.8829 45.7761 31.1063 45.5881 31.2343C45.5457 31.2636 45.4968 31.2874 45.4425 31.307C45.2034 31.3883 44.973 31.3232 44.8436 31.1269C44.8132 31.0814 44.7893 31.0271 44.7708 30.9664C44.6774 30.6486 44.773 30.332 45.0675 30.2311C45.362 30.1302 45.6761 30.3059 45.7696 30.6237Z" fill="url(#paint9_linear_5806_40565)"/>
<g style="mix-blend-mode:overlay" opacity="0.59">
<path d="M45.5682 30.5315C45.5552 30.6659 45.4444 30.7397 45.2792 30.7212C45.114 30.7028 44.9977 30.6041 45.0096 30.4696C45.0227 30.3352 45.1281 30.2365 45.2933 30.2549C45.4574 30.2733 45.5813 30.397 45.5682 30.5315Z" fill="white"/>
</g>
<path d="M45.2374 31.5793C45.3134 31.8385 45.2439 32.0619 45.0559 32.1899C45.0135 32.2191 44.9646 32.243 44.9102 32.2625C44.6711 32.3439 44.4407 32.2788 44.3114 32.0825C44.281 32.0369 44.2571 31.9827 44.2386 31.922C44.1451 31.6042 44.2408 31.2875 44.5353 31.1867C44.8298 31.0858 45.1439 31.2615 45.2374 31.5793Z" fill="url(#paint10_linear_5806_40565)"/>
<g style="mix-blend-mode:overlay" opacity="0.59">
<path d="M45.037 31.487C45.0239 31.6215 44.9131 31.6953 44.7479 31.6768C44.5838 31.6584 44.4664 31.5597 44.4784 31.4252C44.4914 31.2907 44.5968 31.192 44.762 31.2105C44.9261 31.2289 45.05 31.3525 45.037 31.487Z" fill="white"/>
</g>
<path d="M44.4835 32.3329C44.5595 32.5921 44.49 32.8155 44.302 32.9435C44.2596 32.9728 44.2107 32.9967 44.1563 33.0162C43.9172 33.0975 43.6868 33.0324 43.5575 32.8361C43.5271 32.7906 43.5032 32.7364 43.4847 32.6756C43.3912 32.3579 43.4869 32.0412 43.7814 31.9403C44.0759 31.8395 44.39 32.0152 44.4835 32.3329Z" fill="url(#paint11_linear_5806_40565)"/>
<g style="mix-blend-mode:overlay" opacity="0.59">
<path d="M44.2831 32.2407C44.27 32.3752 44.1592 32.4489 43.994 32.4305C43.8299 32.412 43.7125 32.3133 43.7245 32.1789C43.7375 32.0444 43.8429 31.9457 44.0081 31.9641C44.1722 31.9826 44.2961 32.1062 44.2831 32.2407Z" fill="white"/>
</g>
<path d="M43.7169 32.9577C43.7929 33.2169 43.7234 33.4403 43.5354 33.5683C43.493 33.5976 43.4441 33.6214 43.3897 33.6409C43.1506 33.7234 42.9202 33.6572 42.7909 33.4609C42.7605 33.4154 42.7366 33.3611 42.7181 33.3004C42.6246 32.9826 42.7203 32.6659 43.0148 32.5651C43.3093 32.4642 43.6234 32.6399 43.7169 32.9577Z" fill="url(#paint12_linear_5806_40565)"/>
<g style="mix-blend-mode:overlay" opacity="0.59">
<path d="M43.5165 32.8654C43.5034 32.9999 43.3926 33.0737 43.2274 33.0552C43.0633 33.0368 42.9459 32.9381 42.9579 32.8036C42.9709 32.6691 43.0763 32.5705 43.2415 32.5889C43.4056 32.6073 43.5295 32.731 43.5165 32.8654Z" fill="white"/>
</g>
<path d="M42.8409 33.4284C42.917 33.6876 42.8474 33.911 42.6594 34.039C42.617 34.0683 42.5681 34.0921 42.5138 34.1116C42.2747 34.193 42.0443 34.1279 41.9149 33.9316C41.8845 33.8861 41.8606 33.8318 41.8421 33.7711C41.7487 33.4533 41.8443 33.1366 42.1388 33.0358C42.4333 32.9349 42.7474 33.1106 42.8409 33.4284Z" fill="url(#paint13_linear_5806_40565)"/>
<g style="mix-blend-mode:overlay" opacity="0.59">
<path d="M42.6395 33.3361C42.6265 33.4706 42.5156 33.5444 42.3504 33.5259C42.1863 33.5075 42.069 33.4088 42.0809 33.2743C42.094 33.1398 42.1994 33.0412 42.3646 33.0596C42.5287 33.078 42.6526 33.2017 42.6395 33.3361Z" fill="white"/>
</g>
<path d="M41.9297 33.7126C42.0058 33.9718 41.9363 34.1952 41.7483 34.3232C41.7059 34.3524 41.657 34.3763 41.6026 34.3958C41.3635 34.4772 41.1331 34.4121 41.0038 34.2158C40.9734 34.1702 40.9495 34.116 40.931 34.0553C40.8375 33.7375 40.9332 33.4208 41.2277 33.32C41.5222 33.2191 41.8363 33.3948 41.9297 33.7126Z" fill="url(#paint14_linear_5806_40565)"/>
<g style="mix-blend-mode:overlay" opacity="0.59">
<path d="M41.7294 33.6203C41.7163 33.7548 41.6055 33.8286 41.4403 33.8101C41.2762 33.7917 41.1588 33.693 41.1708 33.5585C41.1838 33.424 41.2892 33.3253 41.4544 33.3438C41.6185 33.3622 41.7424 33.4858 41.7294 33.6203Z" fill="white"/>
</g>
<path d="M36.1358 25.2184C36.2119 25.4776 36.1423 25.701 35.9543 25.8301C35.9119 25.8594 35.863 25.8832 35.8087 25.9028C35.5696 25.9852 35.3381 25.919 35.2099 25.7216C35.1794 25.6761 35.1555 25.6219 35.137 25.5611C35.0436 25.2423 35.1392 24.9267 35.4337 24.8258C35.7283 24.725 36.0423 24.9007 36.1358 25.2195V25.2184Z" fill="url(#paint15_linear_5806_40565)"/>
<g style="mix-blend-mode:overlay" opacity="0.59">
<path d="M35.9344 25.1274C35.9214 25.2619 35.8106 25.3356 35.6454 25.3172C35.4813 25.2988 35.3639 25.2001 35.3758 25.0656C35.3878 24.9311 35.4943 24.8324 35.6595 24.8509C35.8236 24.8693 35.9475 24.9929 35.9344 25.1274Z" fill="white"/>
</g>
<path d="M36.336 26.2553C36.4121 26.5145 36.3425 26.7379 36.1545 26.867C36.1121 26.8962 36.0632 26.9201 36.0089 26.9396C35.7698 27.022 35.5383 26.9559 35.4101 26.7585C35.3796 26.713 35.3557 26.6587 35.3372 26.598C35.2438 26.2791 35.3394 25.9635 35.6339 25.8627C35.9285 25.7618 36.2425 25.9375 36.336 26.2564V26.2553Z" fill="url(#paint16_linear_5806_40565)"/>
<g style="mix-blend-mode:overlay" opacity="0.59">
<path d="M36.1356 26.1631C36.1226 26.2975 36.0106 26.3713 35.8465 26.3528C35.6824 26.3344 35.5651 26.2357 35.577 26.1012C35.5901 25.9667 35.6955 25.8681 35.8607 25.8865C36.0248 25.9049 36.1487 26.0286 36.1356 26.1631Z" fill="white"/>
</g>
<path d="M36.5254 27.2607C36.6015 27.5199 36.532 27.7433 36.344 27.8723C36.3016 27.9016 36.2527 27.9255 36.1983 27.945C35.9592 28.0274 35.7277 27.9613 35.5995 27.7639C35.5691 27.7183 35.5452 27.6641 35.5267 27.6034C35.4332 27.2845 35.5289 26.9689 35.8234 26.8681C36.1179 26.7672 36.432 26.9429 36.5254 27.2617V27.2607Z" fill="url(#paint17_linear_5806_40565)"/>
<g style="mix-blend-mode:overlay" opacity="0.59">
<path d="M36.3241 27.1684C36.3111 27.3029 36.1991 27.3766 36.035 27.3582C35.8709 27.3398 35.7535 27.2411 35.7655 27.1066C35.7785 26.9721 35.8839 26.8734 36.0491 26.8919C36.2132 26.9103 36.3371 27.0339 36.3241 27.1684Z" fill="white"/>
</g>
<path d="M36.8272 28.2531C36.9033 28.5123 36.8337 28.7357 36.6457 28.8648C36.6033 28.894 36.5544 28.9179 36.5001 28.9374C36.261 29.0198 36.0295 28.9537 35.9013 28.7563C35.8708 28.7108 35.8469 28.6565 35.8284 28.5958C35.735 28.2769 35.8306 27.9613 36.1251 27.8605C36.4197 27.7596 36.7337 27.9353 36.8272 28.2542V28.2531Z" fill="url(#paint18_linear_5806_40565)"/>
<g style="mix-blend-mode:overlay" opacity="0.59">
<path d="M36.6268 28.1609C36.6138 28.2953 36.5018 28.3691 36.3377 28.3506C36.1736 28.3322 36.0563 28.2335 36.0682 28.099C36.0813 27.9646 36.1867 27.8659 36.3519 27.8843C36.516 27.9027 36.6399 28.0264 36.6268 28.1609Z" fill="white"/>
</g>
<path d="M37.1299 29.3029C37.206 29.5621 37.1365 29.7855 36.9484 29.9146C36.9061 29.9438 36.8572 29.9677 36.8028 29.9872C36.5637 30.0697 36.3322 30.0035 36.204 29.8061C36.1736 29.7606 36.1497 29.7063 36.1312 29.6456C36.0377 29.3268 36.1334 29.0112 36.4279 28.9103C36.7224 28.8094 37.0365 28.9851 37.1299 29.304V29.3029Z" fill="url(#paint19_linear_5806_40565)"/>
<g style="mix-blend-mode:overlay" opacity="0.59">
<path d="M36.9296 29.2107C36.9165 29.3451 36.8046 29.4189 36.6405 29.4004C36.4764 29.382 36.359 29.2833 36.371 29.1488C36.384 29.0144 36.4894 28.9157 36.6546 28.9341C36.8187 28.9525 36.9426 29.0762 36.9296 29.2107Z" fill="white"/>
</g>
<path d="M37.5157 30.2506C37.5918 30.5098 37.5222 30.7333 37.3342 30.8623C37.2918 30.8916 37.2429 30.9155 37.1886 30.935C36.9495 31.0174 36.718 30.9513 36.5897 30.7539C36.5593 30.7083 36.5354 30.6541 36.5169 30.5934C36.4235 30.2745 36.5191 29.9589 36.8136 29.858C37.1081 29.7572 37.4222 29.9329 37.5157 30.2517V30.2506Z" fill="url(#paint20_linear_5806_40565)"/>
<g style="mix-blend-mode:overlay" opacity="0.59">
<path d="M37.3153 30.1584C37.3023 30.2929 37.1903 30.3666 37.0262 30.3482C36.8621 30.3298 36.7447 30.2311 36.7567 30.0966C36.7697 29.9621 36.8752 29.8634 37.0404 29.8819C37.2045 29.9003 37.3284 30.0239 37.3153 30.1584Z" fill="white"/>
</g>
<path d="M37.9639 31.1955C38.04 31.4547 37.9704 31.6781 37.7824 31.8071C37.74 31.8364 37.6911 31.8603 37.6368 31.8798C37.3977 31.9622 37.1662 31.8961 37.038 31.6987C37.0075 31.6531 36.9836 31.5989 36.9652 31.5382C36.8717 31.2193 36.9673 30.9037 37.2619 30.8029C37.5564 30.702 37.8705 30.8777 37.9639 31.1966V31.1955Z" fill="url(#paint21_linear_5806_40565)"/>
<g style="mix-blend-mode:overlay" opacity="0.59">
<path d="M37.7626 31.1032C37.7495 31.2377 37.6387 31.3115 37.4735 31.293C37.3094 31.2746 37.192 31.1759 37.204 31.0414C37.217 30.9069 37.3224 30.8082 37.4876 30.8267C37.6517 30.8451 37.7756 30.9688 37.7626 31.1032Z" fill="white"/>
</g>
<path d="M38.5284 32.152C38.6045 32.4112 38.5349 32.6346 38.3469 32.7637C38.3045 32.793 38.2556 32.8168 38.2013 32.8363C37.9622 32.9188 37.7307 32.8526 37.6024 32.6552C37.572 32.6097 37.5481 32.5555 37.5296 32.4947C37.4362 32.1759 37.5318 31.8603 37.8263 31.7594C38.1208 31.6586 38.4349 31.8342 38.5284 32.1531V32.152Z" fill="url(#paint22_linear_5806_40565)"/>
<g style="mix-blend-mode:overlay" opacity="0.59">
<path d="M38.328 32.0598C38.315 32.1943 38.203 32.268 38.0389 32.2496C37.8748 32.2311 37.7574 32.1324 37.7694 31.998C37.7824 31.8635 37.8879 31.7648 38.053 31.7832C38.2172 31.8017 38.341 31.9253 38.328 32.0598Z" fill="white"/>
</g>
<path d="M39.2794 32.9599C39.3554 33.2191 39.2859 33.4425 39.0979 33.5715C39.0555 33.6008 39.0066 33.6247 38.9522 33.6442C38.7131 33.7266 38.4816 33.6605 38.3534 33.4631C38.323 33.4175 38.2991 33.3633 38.2806 33.3026C38.1871 32.9837 38.2828 32.6681 38.5773 32.5673C38.8718 32.4664 39.1859 32.6421 39.2794 32.961V32.9599Z" fill="url(#paint23_linear_5806_40565)"/>
<g style="mix-blend-mode:overlay" opacity="0.59">
<path d="M39.079 32.8676C39.0659 33.0021 38.954 33.0759 38.7899 33.0574C38.6258 33.039 38.5084 32.9403 38.5204 32.8058C38.5334 32.6713 38.6388 32.5726 38.804 32.5911C38.9692 32.6095 39.092 32.7332 39.079 32.8676Z" fill="white"/>
</g>
<path d="M40.9464 33.8134C41.0224 34.0726 40.9529 34.296 40.7649 34.424C40.7225 34.4533 40.6736 34.4771 40.6192 34.4966C40.3801 34.578 40.1497 34.5129 40.0204 34.3166C39.99 34.2711 39.9661 34.2168 39.9476 34.1561C39.8541 33.8383 39.9498 33.5217 40.2443 33.4208C40.5388 33.3199 40.8529 33.4956 40.9464 33.8134Z" fill="url(#paint24_linear_5806_40565)"/>
<g style="mix-blend-mode:overlay" opacity="0.59">
<path d="M40.745 33.7212C40.732 33.8556 40.6211 33.9294 40.4559 33.9109C40.2918 33.8925 40.1744 33.7938 40.1864 33.6593C40.1994 33.5249 40.3048 33.4262 40.47 33.4446C40.6341 33.463 40.758 33.5867 40.745 33.7212Z" fill="white"/>
</g>
<path d="M67.3414 25.251H66.2959C66.3111 25.0449 66.4198 24.8692 66.6252 24.7987C66.9197 24.6979 67.2338 24.8736 67.3273 25.1924C67.3338 25.2119 67.3381 25.2314 67.3414 25.251Z" fill="url(#paint25_linear_5806_40565)"/>
<g style="mix-blend-mode:overlay" opacity="0.59">
<path d="M67.0521 24.9636C67.0455 25.0275 66.9543 25.059 66.8151 25.0427C66.676 25.0275 66.5739 24.9755 66.5793 24.9104C66.5858 24.8464 66.6717 24.803 66.8108 24.8182C66.9499 24.8334 67.0586 24.8985 67.0521 24.9625V24.9636Z" fill="white"/>
</g>
<path d="M59.8556 25.2501H58.796C58.7731 24.9931 58.8807 24.7632 59.1242 24.6807C59.4187 24.5788 59.7328 24.7556 59.8262 25.0733C59.8447 25.1351 59.8534 25.1948 59.8556 25.2501Z" fill="url(#paint26_linear_5806_40565)"/>
<g style="mix-blend-mode:overlay" opacity="0.59">
<path d="M59.5676 24.8335C59.5622 24.891 59.4818 24.9181 59.36 24.904C59.2383 24.8899 59.1481 24.8444 59.1536 24.7869C59.159 24.7294 59.234 24.6915 59.3568 24.7045C59.4796 24.7175 59.5731 24.775 59.5676 24.8324V24.8335Z" fill="white"/>
</g>
<path d="M59.0645 25.1481C59.1406 25.4073 59.071 25.6307 58.883 25.7598C58.8406 25.7891 58.7917 25.8129 58.7374 25.8324C58.4983 25.9149 58.2668 25.8487 58.1386 25.6513C58.1081 25.6058 58.0842 25.5516 58.0658 25.4908C57.9723 25.172 58.0679 24.8564 58.3624 24.7555C58.657 24.6546 58.971 24.8303 59.0645 25.1492V25.1481Z" fill="url(#paint27_linear_5806_40565)"/>
<g style="mix-blend-mode:overlay" opacity="0.59">
<path d="M58.8641 25.0559C58.8511 25.1904 58.7392 25.2641 58.575 25.2457C58.4109 25.2272 58.2936 25.1285 58.3055 24.9941C58.3186 24.8596 58.424 24.7609 58.5892 24.7793C58.7533 24.7978 58.8772 24.9214 58.8641 25.0559Z" fill="white"/>
</g>
<path d="M59.4512 26.0959C59.5273 26.3551 59.4577 26.5785 59.2697 26.7075C59.2273 26.7368 59.1784 26.7607 59.1241 26.7802C58.885 26.8626 58.6535 26.7965 58.5253 26.5991C58.4949 26.5535 58.4709 26.4993 58.4525 26.4386C58.359 26.1197 58.4546 25.8041 58.7492 25.7033C59.0437 25.6024 59.3578 25.7781 59.4512 26.0969V26.0959Z" fill="url(#paint28_linear_5806_40565)"/>
<g style="mix-blend-mode:overlay" opacity="0.59">
<path d="M59.2499 26.0048C59.2368 26.1393 59.1249 26.2131 58.9608 26.1946C58.7967 26.1762 58.6793 26.0775 58.6913 25.943C58.7043 25.8085 58.8097 25.7099 58.9749 25.7283C59.1401 25.7467 59.2629 25.8704 59.2499 26.0048Z" fill="white"/>
</g>
<path d="M59.8985 27.0404C59.9746 27.2996 59.905 27.5231 59.717 27.6521C59.6746 27.6814 59.6257 27.7053 59.5714 27.7248C59.3323 27.8072 59.1008 27.741 58.9725 27.5437C58.9421 27.4981 58.9182 27.4439 58.8997 27.3832C58.8063 27.0643 58.9019 26.7487 59.1964 26.6478C59.4909 26.547 59.805 26.7227 59.8985 27.0415V27.0404Z" fill="url(#paint29_linear_5806_40565)"/>
<g style="mix-blend-mode:overlay" opacity="0.59">
<path d="M59.6981 26.9482C59.6851 27.0827 59.5731 27.1564 59.409 27.138C59.2449 27.1196 59.1276 27.0209 59.1395 26.8864C59.1526 26.7519 59.258 26.6532 59.4232 26.6717C59.5873 26.6901 59.7112 26.8137 59.6981 26.9482Z" fill="white"/>
</g>
<path d="M60.4639 27.997C60.54 28.2562 60.4705 28.4796 60.2824 28.6087C60.2401 28.6379 60.1911 28.6618 60.1368 28.6813C59.8977 28.7637 59.6662 28.6976 59.538 28.5002C59.5076 28.4547 59.4836 28.4004 59.4652 28.3397C59.3717 28.0208 59.4673 27.7052 59.7619 27.6044C60.0564 27.5035 60.3705 27.6792 60.4639 27.9981V27.997Z" fill="url(#paint30_linear_5806_40565)"/>
<g style="mix-blend-mode:overlay" opacity="0.59">
<path d="M60.2636 27.9047C60.2505 28.0392 60.1386 28.113 59.9745 28.0945C59.8104 28.0761 59.693 27.9774 59.7049 27.8429C59.718 27.7085 59.8234 27.6098 59.9886 27.6282C60.1527 27.6466 60.2766 27.7703 60.2636 27.9047Z" fill="white"/>
</g>
<path d="M61.2139 28.8051C61.29 29.0643 61.2205 29.2877 61.0324 29.4168C60.9901 29.446 60.9411 29.4699 60.8868 29.4894C60.6477 29.5708 60.4162 29.5057 60.288 29.3083C60.2575 29.2628 60.2336 29.2085 60.2152 29.1478C60.1217 28.8289 60.2173 28.5134 60.5119 28.4125C60.8064 28.3116 61.1205 28.4873 61.2139 28.8062V28.8051Z" fill="url(#paint31_linear_5806_40565)"/>
<g style="mix-blend-mode:overlay" opacity="0.59">
<path d="M61.0135 28.7129C61.0005 28.8473 60.8886 28.9211 60.7245 28.9026C60.5604 28.8842 60.443 28.7855 60.4549 28.651C60.468 28.5166 60.5734 28.4179 60.7386 28.4363C60.9027 28.4547 61.0266 28.5784 61.0135 28.7129Z" fill="white"/>
</g>
<path d="M62.0479 29.3722C62.124 29.6314 62.0544 29.8548 61.8664 29.9828C61.824 30.0121 61.7751 30.036 61.7208 30.0555C61.4817 30.1368 61.2513 30.0718 61.122 29.8755C61.0915 29.8299 61.0676 29.7757 61.0491 29.7149C60.9557 29.3972 61.0513 29.0805 61.3458 28.9796C61.6404 28.8788 61.9544 29.0545 62.0479 29.3722Z" fill="url(#paint32_linear_5806_40565)"/>
<g style="mix-blend-mode:overlay" opacity="0.59">
<path d="M61.8466 29.28C61.8335 29.4145 61.7227 29.4882 61.5575 29.4698C61.3923 29.4514 61.276 29.3527 61.288 29.2182C61.301 29.0837 61.4064 28.985 61.5716 29.0034C61.7357 29.0219 61.8596 29.1455 61.8466 29.28Z" fill="white"/>
</g>
<path d="M68.0069 25.4342C68.083 25.6934 68.0134 25.9169 67.8254 26.0448C67.783 26.0741 67.7341 26.098 67.6798 26.1175C67.4407 26.1988 67.2103 26.1338 67.0809 25.9375C67.0505 25.8919 67.0266 25.8377 67.0081 25.777C66.9147 25.4592 67.0103 25.1425 67.3048 25.0416C67.5993 24.9408 67.9134 25.1165 68.0069 25.4342Z" fill="url(#paint33_linear_5806_40565)"/>
<g style="mix-blend-mode:overlay" opacity="0.59">
<path d="M67.8065 25.342C67.7935 25.4765 67.6826 25.5502 67.5174 25.5318C67.3533 25.5134 67.236 25.4147 67.2479 25.2802C67.2599 25.1457 67.3664 25.047 67.5316 25.0655C67.6957 25.0839 67.8196 25.2075 67.8065 25.342Z" fill="white"/>
</g>
<path d="M67.7042 26.4689C67.7802 26.7281 67.7107 26.9515 67.5227 27.0795C67.4803 27.1088 67.4314 27.1326 67.377 27.1522C67.1379 27.2335 66.9075 27.1684 66.7782 26.9721C66.7478 26.9266 66.7239 26.8724 66.7054 26.8116C66.6119 26.4939 66.7076 26.1772 67.0021 26.0763C67.2966 25.9755 67.6107 26.1511 67.7042 26.4689Z" fill="url(#paint34_linear_5806_40565)"/>
<g style="mix-blend-mode:overlay" opacity="0.59">
<path d="M67.5038 26.3767C67.4907 26.5112 67.3799 26.5849 67.2147 26.5665C67.0506 26.548 66.9332 26.4493 66.9452 26.3149C66.9582 26.1804 67.0636 26.0817 67.2288 26.1001C67.3929 26.1186 67.5168 26.2422 67.5038 26.3767Z" fill="white"/>
</g>
<path d="M67.1729 27.4245C67.249 27.6837 67.1794 27.9071 66.9914 28.0351C66.949 28.0644 66.9001 28.0882 66.8458 28.1077C66.6067 28.1891 66.3763 28.124 66.247 27.9277C66.2165 27.8822 66.1926 27.8279 66.1741 27.7672C66.0807 27.4494 66.1763 27.1327 66.4708 27.0319C66.7654 26.931 67.0794 27.1067 67.1729 27.4245Z" fill="url(#paint35_linear_5806_40565)"/>
<g style="mix-blend-mode:overlay" opacity="0.59">
<path d="M66.9716 27.3322C66.9585 27.4667 66.8477 27.5405 66.6825 27.522C66.5184 27.5036 66.401 27.4049 66.4129 27.2704C66.426 27.1359 66.5314 27.0372 66.6966 27.0557C66.8607 27.0741 66.9846 27.1978 66.9716 27.3322Z" fill="white"/>
</g>
<path d="M66.42 28.1781C66.4961 28.4373 66.4265 28.6608 66.2385 28.7887C66.1961 28.818 66.1472 28.8419 66.0929 28.8614C65.8538 28.9427 65.6234 28.8777 65.494 28.6814C65.4636 28.6358 65.4397 28.5816 65.4212 28.5209C65.3278 28.2031 65.4234 27.8864 65.7179 27.7855C66.0124 27.6847 66.3265 27.8604 66.42 28.1781Z" fill="url(#paint36_linear_5806_40565)"/>
<g style="mix-blend-mode:overlay" opacity="0.59">
<path d="M66.2186 28.0859C66.2056 28.2204 66.0947 28.2941 65.9295 28.2757C65.7654 28.2573 65.6481 28.1586 65.66 28.0241C65.6731 27.8896 65.7785 27.7909 65.9437 27.8093C66.1078 27.8278 66.2317 27.9514 66.2186 28.0859Z" fill="white"/>
</g>
<path d="M65.6524 28.8029C65.7285 29.0621 65.6589 29.2855 65.4709 29.4135C65.4285 29.4428 65.3796 29.4666 65.3253 29.4862C65.0862 29.5675 64.8558 29.5024 64.7265 29.3061C64.696 29.2606 64.6721 29.2063 64.6536 29.1456C64.5602 28.8278 64.6558 28.5112 64.9503 28.4103C65.2449 28.3094 65.5589 28.4851 65.6524 28.8029Z" fill="url(#paint37_linear_5806_40565)"/>
<g style="mix-blend-mode:overlay" opacity="0.59">
<path d="M65.452 28.7107C65.439 28.8451 65.3281 28.9189 65.163 28.9005C64.9978 28.882 64.8815 28.7833 64.8934 28.6488C64.9054 28.5144 65.0119 28.4157 65.1771 28.4341C65.3412 28.4525 65.4651 28.5762 65.452 28.7107Z" fill="white"/>
</g>
<path d="M64.7755 29.2736C64.8515 29.5328 64.782 29.7562 64.594 29.8842C64.5516 29.9135 64.5027 29.9373 64.4483 29.9569C64.2092 30.0382 63.9788 29.9731 63.8495 29.7768C63.8191 29.7313 63.7952 29.677 63.7767 29.6163C63.6832 29.2985 63.7789 28.9819 64.0734 28.881C64.3679 28.7801 64.682 28.9558 64.7755 29.2736Z" fill="url(#paint38_linear_5806_40565)"/>
<g style="mix-blend-mode:overlay" opacity="0.59">
<path d="M64.5751 29.1826C64.562 29.3171 64.4512 29.3908 64.286 29.3724C64.1219 29.3539 64.0045 29.2552 64.0165 29.1208C64.0295 28.9863 64.1349 28.8876 64.3001 28.906C64.4642 28.9245 64.5881 29.0481 64.5751 29.1826Z" fill="white"/>
</g>
<path d="M63.8653 29.5578C63.9414 29.817 63.8718 30.0404 63.6838 30.1684C63.6414 30.1977 63.5925 30.2215 63.5382 30.241C63.2991 30.3224 63.0687 30.2573 62.9393 30.061C62.9089 30.0155 62.885 29.9612 62.8665 29.9005C62.7731 29.5827 62.8687 29.266 63.1632 29.1652C63.4577 29.0643 63.7718 29.24 63.8653 29.5578Z" fill="url(#paint39_linear_5806_40565)"/>
<g style="mix-blend-mode:overlay" opacity="0.59">
<path d="M63.6649 29.4655C63.6519 29.6 63.541 29.6738 63.3758 29.6553C63.2117 29.6369 63.0944 29.5382 63.1063 29.4037C63.1193 29.2692 63.2248 29.1705 63.39 29.189C63.5541 29.2074 63.678 29.3311 63.6649 29.4655Z" fill="white"/>
</g>
<path d="M62.8809 29.6586C62.957 29.9178 62.8874 30.1412 62.6994 30.2692C62.657 30.2985 62.6081 30.3223 62.5538 30.3419C62.3147 30.4232 62.0843 30.3581 61.955 30.1618C61.9245 30.1163 61.9006 30.0621 61.8822 30.0013C61.7887 29.6836 61.8843 29.3669 62.1788 29.266C62.4734 29.1652 62.7875 29.3408 62.8809 29.6586Z" fill="url(#paint40_linear_5806_40565)"/>
<g style="mix-blend-mode:overlay" opacity="0.59">
<path d="M62.6805 29.5664C62.6675 29.7009 62.5567 29.7746 62.3915 29.7562C62.2274 29.7377 62.11 29.639 62.1219 29.5046C62.135 29.3701 62.2404 29.2714 62.4056 29.2898C62.5697 29.3083 62.6936 29.4319 62.6805 29.5664Z" fill="white"/>
</g>
<path d="M11.1202 25.4756C-1.73444 20.4618 -0.524842 8.21859 0.755402 2.73413C0.666285 3.27206 -1.66598 18.1746 11.1202 25.4745V25.4756Z" fill="#A53012"/>
<path d="M25.9099 24.2382L1.82324 1.97388C1.82324 1.97388 14.2899 15.9827 25.9099 24.2382Z" fill="#470500"/>
<path d="M31.9629 49.9999H67.6891V49.0662L32.1911 48.8406L31.9629 49.9999Z" fill="#FCDB75"/>
<path d="M15.2285 49.9999H31.3576V48.8406H15.6089L15.2285 49.9999Z" fill="#FAB93C"/>
<path opacity="0.43" d="M34.4434 44.9211L61.0144 44.7324L47.9924 46.0892L34.4434 44.9211Z" fill="#661107"/>
</g>
<defs>
<linearGradient id="paint0_linear_5806_40565" x1="45.8911" y1="26.5014" x2="56.4849" y2="44.4589" gradientUnits="userSpaceOnUse">
<stop stop-color="#851703"/>
<stop offset="1" stop-color="#A53012"/>
</linearGradient>
<linearGradient id="paint1_linear_5806_40565" x1="39.6104" y1="36.0561" x2="39.6104" y2="26.74" gradientUnits="userSpaceOnUse">
<stop stop-color="#A9E5D1"/>
<stop offset="1" stop-color="#0098CB"/>
</linearGradient>
<linearGradient id="paint2_linear_5806_40565" x1="46.5164" y1="36.0563" x2="46.5164" y2="26.7402" gradientUnits="userSpaceOnUse">
<stop stop-color="#A9E5D1"/>
<stop offset="1" stop-color="#0098CB"/>
</linearGradient>
<linearGradient id="paint3_linear_5806_40565" x1="36.5463" y1="36.0572" x2="36.5463" y2="26.7401" gradientUnits="userSpaceOnUse">
<stop stop-color="#A9E5D1"/>
<stop offset="1" stop-color="#0098CB"/>
</linearGradient>
<linearGradient id="paint4_linear_5806_40565" x1="47.0498" y1="36.0561" x2="47.0498" y2="26.74" gradientUnits="userSpaceOnUse">
<stop stop-color="#A9E5D1"/>
<stop offset="1" stop-color="#0098CB"/>
</linearGradient>
<linearGradient id="paint5_linear_5806_40565" x1="46.8" y1="36.0562" x2="46.8" y2="26.7401" gradientUnits="userSpaceOnUse">
<stop stop-color="#A9E5D1"/>
<stop offset="1" stop-color="#0098CB"/>
</linearGradient>
<linearGradient id="paint6_linear_5806_40565" x1="46.498" y1="36.0562" x2="46.498" y2="26.7401" gradientUnits="userSpaceOnUse">
<stop stop-color="#A9E5D1"/>
<stop offset="1" stop-color="#0098CB"/>
</linearGradient>
<linearGradient id="paint7_linear_5806_40565" x1="46.1659" y1="36.0563" x2="46.1659" y2="26.7402" gradientUnits="userSpaceOnUse">
<stop stop-color="#A9E5D1"/>
<stop offset="1" stop-color="#0098CB"/>
</linearGradient>
<linearGradient id="paint8_linear_5806_40565" x1="45.6748" y1="36.0563" x2="45.6748" y2="26.7402" gradientUnits="userSpaceOnUse">
<stop stop-color="#A9E5D1"/>
<stop offset="1" stop-color="#0098CB"/>
</linearGradient>
<linearGradient id="paint9_linear_5806_40565" x1="45.2675" y1="36.0561" x2="45.2675" y2="26.74" gradientUnits="userSpaceOnUse">
<stop stop-color="#A9E5D1"/>
<stop offset="1" stop-color="#0098CB"/>
</linearGradient>
<linearGradient id="paint10_linear_5806_40565" x1="44.7364" y1="36.0562" x2="44.7364" y2="26.7401" gradientUnits="userSpaceOnUse">
<stop stop-color="#A9E5D1"/>
<stop offset="1" stop-color="#0098CB"/>
</linearGradient>
<linearGradient id="paint11_linear_5806_40565" x1="43.9824" y1="36.0561" x2="43.9824" y2="26.74" gradientUnits="userSpaceOnUse">
<stop stop-color="#A9E5D1"/>
<stop offset="1" stop-color="#0098CB"/>
</linearGradient>
<linearGradient id="paint12_linear_5806_40565" x1="43.2158" y1="36.0562" x2="43.2158" y2="26.7401" gradientUnits="userSpaceOnUse">
<stop stop-color="#A9E5D1"/>
<stop offset="1" stop-color="#0098CB"/>
</linearGradient>
<linearGradient id="paint13_linear_5806_40565" x1="42.3388" y1="36.0562" x2="42.3388" y2="26.7401" gradientUnits="userSpaceOnUse">
<stop stop-color="#A9E5D1"/>
<stop offset="1" stop-color="#0098CB"/>
</linearGradient>
<linearGradient id="paint14_linear_5806_40565" x1="41.4287" y1="36.0562" x2="41.4287" y2="26.7401" gradientUnits="userSpaceOnUse">
<stop stop-color="#A9E5D1"/>
<stop offset="1" stop-color="#0098CB"/>
</linearGradient>
<linearGradient id="paint15_linear_5806_40565" x1="35.6337" y1="36.0561" x2="35.6337" y2="26.74" gradientUnits="userSpaceOnUse">
<stop stop-color="#A9E5D1"/>
<stop offset="1" stop-color="#0098CB"/>
</linearGradient>
<linearGradient id="paint16_linear_5806_40565" x1="35.835" y1="36.0562" x2="35.835" y2="26.7401" gradientUnits="userSpaceOnUse">
<stop stop-color="#A9E5D1"/>
<stop offset="1" stop-color="#0098CB"/>
</linearGradient>
<linearGradient id="paint17_linear_5806_40565" x1="36.0234" y1="36.0562" x2="36.0234" y2="26.7401" gradientUnits="userSpaceOnUse">
<stop stop-color="#A9E5D1"/>
<stop offset="1" stop-color="#0098CB"/>
</linearGradient>
<linearGradient id="paint18_linear_5806_40565" x1="36.3251" y1="36.0563" x2="36.3251" y2="26.7402" gradientUnits="userSpaceOnUse">
<stop stop-color="#A9E5D1"/>
<stop offset="1" stop-color="#0098CB"/>
</linearGradient>
<linearGradient id="paint19_linear_5806_40565" x1="36.6278" y1="36.0562" x2="36.6278" y2="26.7402" gradientUnits="userSpaceOnUse">
<stop stop-color="#A9E5D1"/>
<stop offset="1" stop-color="#0098CB"/>
</linearGradient>
<linearGradient id="paint20_linear_5806_40565" x1="37.0147" y1="36.0561" x2="37.0147" y2="26.74" gradientUnits="userSpaceOnUse">
<stop stop-color="#A9E5D1"/>
<stop offset="1" stop-color="#0098CB"/>
</linearGradient>
<linearGradient id="paint21_linear_5806_40565" x1="37.4618" y1="36.0563" x2="37.4618" y2="26.7402" gradientUnits="userSpaceOnUse">
<stop stop-color="#A9E5D1"/>
<stop offset="1" stop-color="#0098CB"/>
</linearGradient>
<linearGradient id="paint22_linear_5806_40565" x1="38.0274" y1="36.0563" x2="38.0274" y2="26.7402" gradientUnits="userSpaceOnUse">
<stop stop-color="#A9E5D1"/>
<stop offset="1" stop-color="#0098CB"/>
</linearGradient>
<linearGradient id="paint23_linear_5806_40565" x1="38.7773" y1="36.0562" x2="38.7773" y2="26.7401" gradientUnits="userSpaceOnUse">
<stop stop-color="#A9E5D1"/>
<stop offset="1" stop-color="#0098CB"/>
</linearGradient>
<linearGradient id="paint24_linear_5806_40565" x1="40.4443" y1="36.0562" x2="40.4443" y2="26.7401" gradientUnits="userSpaceOnUse">
<stop stop-color="#A9E5D1"/>
<stop offset="1" stop-color="#0098CB"/>
</linearGradient>
<linearGradient id="paint25_linear_5806_40565" x1="66.4046" y1="25.7911" x2="67.1946" y2="24.6204" gradientUnits="userSpaceOnUse">
<stop offset="0.05" stop-color="#D20029"/>
<stop offset="1" stop-color="#EB4B55"/>
</linearGradient>
<linearGradient id="paint26_linear_5806_40565" x1="58.8546" y1="25.8162" x2="59.7454" y2="24.4957" gradientUnits="userSpaceOnUse">
<stop offset="0.05" stop-color="#D20029"/>
<stop offset="1" stop-color="#EB4B55"/>
</linearGradient>
<linearGradient id="paint27_linear_5806_40565" x1="58.2358" y1="26.3977" x2="58.8279" y2="24.393" gradientUnits="userSpaceOnUse">
<stop offset="0.05" stop-color="#D20029"/>
<stop offset="1" stop-color="#EB4B55"/>
</linearGradient>
<linearGradient id="paint28_linear_5806_40565" x1="58.6215" y1="27.3461" x2="59.2136" y2="25.3414" gradientUnits="userSpaceOnUse">
<stop offset="0.05" stop-color="#D20029"/>
<stop offset="1" stop-color="#EB4B55"/>
</linearGradient>
<linearGradient id="paint29_linear_5806_40565" x1="59.0696" y1="28.2907" x2="59.6616" y2="26.286" gradientUnits="userSpaceOnUse">
<stop offset="0.05" stop-color="#D20029"/>
<stop offset="1" stop-color="#EB4B55"/>
</linearGradient>
<linearGradient id="paint30_linear_5806_40565" x1="59.6347" y1="29.2462" x2="60.2268" y2="27.2415" gradientUnits="userSpaceOnUse">
<stop offset="0.05" stop-color="#D20029"/>
<stop offset="1" stop-color="#EB4B55"/>
</linearGradient>
<linearGradient id="paint31_linear_5806_40565" x1="60.3857" y1="30.0554" x2="60.9774" y2="28.0497" gradientUnits="userSpaceOnUse">
<stop offset="0.05" stop-color="#D20029"/>
<stop offset="1" stop-color="#EB4B55"/>
</linearGradient>
<linearGradient id="paint32_linear_5806_40565" x1="61.2192" y1="30.6211" x2="61.8106" y2="28.6177" gradientUnits="userSpaceOnUse">
<stop offset="0.05" stop-color="#D20029"/>
<stop offset="1" stop-color="#EB4B55"/>
</linearGradient>
<linearGradient id="paint33_linear_5806_40565" x1="67.178" y1="26.6833" x2="67.7704" y2="24.6796" gradientUnits="userSpaceOnUse">
<stop offset="0.05" stop-color="#D20029"/>
<stop offset="1" stop-color="#EB4B55"/>
</linearGradient>
<linearGradient id="paint34_linear_5806_40565" x1="66.876" y1="27.7186" x2="67.4673" y2="25.7152" gradientUnits="userSpaceOnUse">
<stop offset="0.05" stop-color="#D20029"/>
<stop offset="1" stop-color="#EB4B55"/>
</linearGradient>
<linearGradient id="paint35_linear_5806_40565" x1="66.3442" y1="28.6744" x2="66.9353" y2="26.67" gradientUnits="userSpaceOnUse">
<stop offset="0.05" stop-color="#D20029"/>
<stop offset="1" stop-color="#EB4B55"/>
</linearGradient>
<linearGradient id="paint36_linear_5806_40565" x1="65.591" y1="29.4283" x2="66.1821" y2="27.4239" gradientUnits="userSpaceOnUse">
<stop offset="0.05" stop-color="#D20029"/>
<stop offset="1" stop-color="#EB4B55"/>
</linearGradient>
<linearGradient id="paint37_linear_5806_40565" x1="64.8234" y1="30.0524" x2="65.4155" y2="28.0477" gradientUnits="userSpaceOnUse">
<stop offset="0.05" stop-color="#D20029"/>
<stop offset="1" stop-color="#EB4B55"/>
</linearGradient>
<linearGradient id="paint38_linear_5806_40565" x1="63.947" y1="30.5233" x2="64.5384" y2="28.5199" gradientUnits="userSpaceOnUse">
<stop offset="0.05" stop-color="#D20029"/>
<stop offset="1" stop-color="#EB4B55"/>
</linearGradient>
<linearGradient id="paint39_linear_5806_40565" x1="63.0367" y1="30.8068" x2="63.628" y2="28.8034" gradientUnits="userSpaceOnUse">
<stop offset="0.05" stop-color="#D20029"/>
<stop offset="1" stop-color="#EB4B55"/>
</linearGradient>
<linearGradient id="paint40_linear_5806_40565" x1="62.0521" y1="30.908" x2="62.6442" y2="28.9033" gradientUnits="userSpaceOnUse">
<stop offset="0.05" stop-color="#D20029"/>
<stop offset="1" stop-color="#EB4B55"/>
</linearGradient>
<clipPath id="clip0_5806_40565">
<rect width="73" height="50" fill="white"/>
</clipPath>
</defs>
</svg>
