<svg width="375" height="266" viewBox="0 0 375 266" fill="none" xmlns="http://www.w3.org/2000/svg">
<g clip-path="url(#clip0_6439_68589)">
<path d="M469 188H188V265.326H469V188Z" fill="url(#paint0_linear_6439_68589)"/>
<path opacity="0.74" d="M467.328 227.332C467.328 227.332 455.049 228.137 439.917 222.75C430.327 219.335 436.301 215.175 430.495 213.524C424.689 211.872 403.167 213.425 390.743 214.13C378.319 214.836 339.943 203.167 321.67 200.197C303.398 197.227 322.192 191.27 322.192 191.27C322.192 191.27 291.139 192.249 296.348 188.304L467.328 188.129V227.329V227.332Z" fill="url(#paint1_linear_6439_68589)"/>
<mask id="mask0_6439_68589" style="mask-type:luminance" maskUnits="userSpaceOnUse" x="-19" y="60" width="606" height="206">
<path d="M586.64 60H-19V266H586.64V60Z" fill="white"/>
</mask>
<g mask="url(#mask0_6439_68589)">
<path d="M-47.9023 174.205C-25.3948 149.168 6.12321 135.316 37.8925 133.516C73.8395 131.477 101.147 146.263 130.749 167.189C139.949 173.69 149.417 177.13 160.075 179.837C187.568 186.82 218.33 158.471 245.897 178.371C254.545 184.613 261.4 193.343 268.746 201.348C294.974 229.929 322.61 234.569 358.849 242.45C394.537 250.213 433.471 246.22 466.6 229.254C498.497 212.922 524.56 185.191 557.767 171.595C560.82 170.346 596.153 160.574 596.363 165.283C598.555 214.916 599.387 229.795 599.371 279.487C507.005 253.246 409.892 260.456 314.638 266.344C220.875 272.137 127.046 276.467 33.217 280.797C9.11084 281.909 -15.4691 282.964 -38.6977 275.795C-33.7537 226.808 -38.723 222.446 -47.9023 174.205Z" fill="#2B1428"/>
<path d="M489.622 223.453C494.706 220.722 499.72 217.685 505.294 216.194C515.116 213.565 525.618 215.992 535.663 214.402C561.907 210.249 579.071 180.272 605.575 178.36C607.388 178.228 609.431 178.327 610.684 179.645C611.747 180.77 611.916 182.447 612.01 183.992C613.09 201.518 612.422 219.156 610.016 236.551C543.256 247.147 475.568 251.894 407.984 250.715C404.346 250.654 374.954 251.004 380.384 241.149C382.292 237.684 409.269 242.541 414.58 242.488C440.627 242.232 466.657 235.784 489.626 223.449L489.622 223.453Z" fill="#5F8DE8"/>
<path d="M-92.1885 209.649C-50.4117 199.913 -7.38239 191.055 37.6492 188.064C118.525 182.696 199.458 196.597 274.809 213.662C305.606 220.637 336.094 228.193 368.127 233.199C451.198 246.177 543.173 240.878 619.587 218.717C627.435 244.368 632.754 270.118 636.656 296.045C401.544 284.711 164.726 304.829 -70.9293 297.726C-73.3683 297.652 -75.9433 297.553 -77.9498 296.787C-81.0521 295.604 -81.7731 293.289 -82.2304 291.229C-88.0438 264.96 -86.3752 235.922 -92.1885 209.653V209.649Z" fill="#37172A"/>
<path d="M27.0652 226.63C40.9208 226.779 56.7663 228.225 64.6767 236.86C68.3312 240.853 69.7196 245.904 73.8066 249.649C80.6294 255.907 92.701 256.739 103.401 256.698C177.606 256.406 252.841 237.371 324.776 251.19C360.728 258.095 393.65 272.939 430.162 277.883C461.573 282.135 494.776 278.921 524.844 287.03C492.885 291.747 460.102 291.957 427.546 292.147C383.915 292.406 340.28 292.662 296.649 292.921C173.23 293.65 49.8118 294.38 -73.6028 295.109C-78.7281 295.138 -84.3519 295.035 -88.2165 292.484C-97.9355 286.061 -98.7925 264.378 -98.3105 255.343C-97.8202 246.134 -94.7467 240.638 -83.565 236.523C-53.2171 225.357 -5.89888 226.276 27.0652 226.63Z" fill="#2B1428"/>
<path opacity="0.49" d="M41.6996 257.61C48.3369 261.945 54.2038 267.601 61.5168 270.662C68.6403 273.645 76.5713 273.917 84.2963 273.905C154.476 273.794 224.821 253.651 294.103 264.87C298.05 265.508 302.182 266.341 305.215 268.953C308.243 271.561 309.607 276.533 307.061 279.619C305.05 282.058 301.527 282.458 298.376 282.672C187.572 290.129 76.3488 284.518 -34.5657 278.902C-42.9334 278.478 -65.029 276.517 -62.6888 263.296C-60.9543 253.486 -38.1995 251.224 -30.8824 249.778C-6.6568 244.999 20.1108 243.52 41.7038 257.619L41.6996 257.61Z" fill="#2C1428"/>
</g>
<path d="M53.8643 40.8541C54.7857 40.8541 55.5249 40.1155 55.5249 39.1948C55.5249 38.5574 55.1604 37.9806 54.5934 37.6973L44.2954 30.9791C43.1208 30.2101 41.602 30.2101 40.4375 30.9791L30.1396 37.6973C29.5725 37.9705 29.208 38.5574 29.208 39.1948C29.208 40.1155 29.9472 40.8541 30.8687 40.8541H31.5977V47.2587C30.2814 47.2587 29.208 48.3312 29.208 49.6466V49.7275C29.208 50.5066 29.5827 51.2351 30.2206 51.6803L32.9748 54.3413L29.208 134.455H55.535L51.7582 54.3413L54.5124 51.6803C55.1503 51.2351 55.5249 50.5066 55.5249 49.7275V49.6466C55.5249 48.3312 54.4516 47.2587 53.1352 47.2587V40.8541H53.8643Z" fill="url(#paint2_linear_6439_68589)"/>
<path opacity="0.58" d="M236.777 13.7576V66.9776C236.777 67.4329 236.382 67.7972 235.916 67.7466L49.46 47.096C49.0651 47.0555 48.7715 46.7216 48.7715 46.327V42.1989C48.7715 41.8145 49.0449 41.4907 49.4297 41.4401L235.886 13.0088C236.352 12.938 236.777 13.3023 236.777 13.7677V13.7576Z" fill="url(#paint3_linear_6439_68589)"/>
<path opacity="0.58" d="M-151 71.279V23.4922C-151 23.0268 -150.473 22.6726 -149.876 22.7333L36.8434 41.4514C37.3396 41.502 37.7142 41.8258 37.7142 42.2103V46.3687C37.7142 46.7431 37.37 47.0669 36.884 47.1276L-149.836 72.0378C-150.443 72.1187 -151 71.7545 -151 71.279Z" fill="url(#paint4_linear_6439_68589)"/>
<path opacity="0.7" d="M45.4405 41.5938H41.0966C40.5373 41.5938 40.084 42.0467 40.084 42.6055V46.3694C40.084 46.9282 40.5373 47.3812 41.0966 47.3812H45.4405C45.9997 47.3812 46.4531 46.9282 46.4531 46.3694V42.6055C46.4531 42.0467 45.9997 41.5938 45.4405 41.5938Z" fill="url(#paint5_linear_6439_68589)"/>
<path fill-rule="evenodd" clip-rule="evenodd" d="M28.5456 116.993L31.5997 121.737C31.5997 121.737 31.7278 121.909 31.5898 122.012C31.4518 122.115 31.2344 122.243 31.2344 122.243C31.2344 122.243 31.2069 122.382 30.9739 122.482C30.7415 122.581 30.3839 122.766 30.1178 122.766C29.8516 122.766 29.4297 122.803 29.1843 122.803C28.9389 122.803 28.9238 122.756 28.8922 122.697C28.861 122.639 28.7671 122.471 28.7671 122.471C28.7671 122.471 28.8211 123.877 28.8117 124.052C28.8024 124.226 28.7329 125.534 28.7329 125.534C28.7329 125.534 28.7567 126.497 28.6364 126.862C28.516 127.227 28.5352 127.333 28.5668 128.063C28.5985 128.794 28.6332 129.434 28.6332 130.134C28.6332 130.833 28.9363 131.802 29.0094 131.923C29.0826 132.044 29.1137 132.186 29.1293 132.291C29.1449 132.396 29.3498 132.943 29.395 133.081C29.4401 133.218 29.4904 133.387 29.5127 133.506C29.5356 133.625 29.7125 134.062 30.0415 134.341C30.3699 134.62 30.3938 134.945 30.2532 134.99C30.1126 135.036 29.505 134.903 29.2284 134.922C28.9518 134.94 28.6115 134.871 28.4802 134.601C28.3489 134.331 28.1917 133.737 28.1917 133.737L28.1938 134.273L28.0443 134.264C28.0443 134.264 28.0806 133.705 27.9784 133.324C27.8767 132.943 27.6546 132.991 27.6427 132.713C27.6308 132.434 27.6303 132.386 27.7605 132.249C27.8907 132.113 28.0744 131.805 27.7916 131.233C27.5088 130.662 27.2146 129.735 27.1181 129.297C27.0216 128.858 26.9972 128.371 26.9972 128.371C26.9972 128.371 25.9356 129.528 25.7306 129.674C25.5257 129.82 24.7515 130.749 24.5243 131.166C24.2965 131.584 24.0007 132.016 23.9327 132.189C23.8648 132.363 23.5731 132.841 23.5731 132.841C23.5731 132.841 23.472 132.945 23.5882 133.192C23.7044 133.439 23.913 133.784 23.913 133.891C23.913 133.998 23.913 134.229 23.6645 134.118C23.4159 134.006 23.0216 133.703 22.8955 133.584C22.7694 133.465 22.4404 133.16 22.4949 132.821C22.5494 132.482 22.7113 132.033 22.7149 131.86C22.7186 131.686 22.5811 131.427 22.3994 131.544C22.2178 131.662 21.7856 131.956 21.7856 131.956L21.7239 131.828C21.7239 131.828 22.1971 131.489 22.36 131.131C22.5235 130.774 22.5847 130.551 22.9162 130.499C23.2478 130.447 23.4803 130.479 23.4803 130.479C23.4803 130.479 24.2202 129.828 24.5772 129.051C24.9342 128.275 25.7701 127.41 26.0835 127.105C26.3974 126.801 27.2987 126.321 26.84 125.444C26.3813 124.566 25.4634 122.734 25.4634 122.734C25.4634 122.734 25.0115 123.036 24.5118 123.02C24.0116 123.004 23.9089 123.124 23.5835 123.012C23.2582 122.9 23.0278 122.748 23.0278 122.748L24.3105 118.617C24.3105 118.617 24.3764 117.746 24.5211 117.467C24.6659 117.188 25.135 116.724 25.135 116.724C25.135 116.724 25.0291 116.096 24.8309 115.775C24.6327 115.454 24.3421 114.991 24.2249 114.726C24.1076 114.461 23.8243 114.127 23.8243 114.127C23.8243 114.127 23.6214 115.64 23.3838 116.153C23.1456 116.666 22.9967 117.185 22.9967 117.185C22.9967 117.185 22.9692 117.423 22.8524 117.534C22.7357 117.645 22.2267 118.122 21.8883 118.408C21.55 118.694 20.6596 119.391 20.5491 119.468C20.4386 119.544 20.1018 119.783 20.0334 119.887C19.9649 119.991 19.8585 120.106 19.735 120.151C19.6115 120.196 19.3225 120.379 19.1404 120.382C18.9582 120.385 18.7792 120.43 18.6926 120.493C18.6059 120.557 18.4731 120.789 18.4425 120.878C18.4119 120.968 18.3605 121.009 18.3128 121.018C18.265 121.026 18.2105 120.963 18.2105 120.924C18.2105 120.886 18.306 120.628 18.306 120.628C18.306 120.628 18.1394 120.882 18.1317 121.063C18.1239 121.243 18.059 121.295 18.0279 121.307C17.9962 121.319 17.906 121.293 17.9023 121.22C17.8982 121.146 17.9257 120.907 17.9257 120.847C17.9257 120.788 17.9148 120.512 17.9423 120.45C17.9698 120.387 18.0933 120.266 18.0933 120.266C18.0933 120.266 17.9319 120.29 17.8359 120.505C17.7399 120.72 17.6538 120.848 17.5957 120.879C17.537 120.911 17.3793 120.831 17.4582 120.713C17.537 120.595 17.618 120.386 17.6559 120.265C17.6937 120.144 17.7934 120.078 17.9065 120.033C18.0196 119.988 18.1576 119.872 18.1877 119.815C18.2178 119.758 18.2801 119.664 18.4684 119.664C18.6568 119.664 19.4294 119.535 19.6748 119.229C19.9202 118.923 20.2897 118.687 20.4485 118.527C20.6072 118.367 20.9803 117.862 21.1313 117.701C21.2823 117.54 21.5838 117.141 21.783 116.887C21.9828 116.632 22.1089 116.42 22.2874 115.996C22.4659 115.572 22.7813 115.053 22.7186 114.141C22.6553 113.229 22.8939 112.528 23.0288 112.247C23.1638 111.966 23.4419 111.966 23.4419 111.966C23.4419 111.966 23.6136 111.771 23.7132 111.716C23.8134 111.661 23.9768 111.611 23.9768 111.611C23.9768 111.611 24.0407 111.611 24.0448 111.446C24.0495 111.281 24.0401 111.244 24.0401 111.244C24.0401 111.244 24.0178 111.366 23.8383 111.353C23.6593 111.34 23.5633 111.195 23.5633 111.195C23.5633 111.195 23.6671 111.285 23.7734 111.24C23.8798 111.195 24.0121 111.075 24.0121 111.075C24.0121 111.075 23.898 111.172 23.8098 111.172C23.7215 111.172 23.6204 111.099 23.6204 111.099C23.6204 111.099 23.6878 111.091 23.8098 111.002C23.9317 110.913 23.9628 110.85 23.9628 110.85C23.9628 110.85 23.789 111.004 23.6748 111.028C23.5607 111.051 23.4621 111.046 23.4621 111.046C23.4621 111.046 23.6665 110.924 23.7568 110.872C23.8471 110.819 23.9535 110.726 23.9644 110.623C23.9758 110.521 23.968 110.317 23.8959 110.223C23.8238 110.13 23.8015 110.039 23.8191 109.879C23.8373 109.719 23.8461 109.655 23.831 109.58C23.816 109.505 23.7081 109.443 23.7573 109.197C23.8066 108.95 23.8274 108.874 23.8118 108.772C23.7963 108.67 23.6323 108.099 23.9094 107.69C24.1865 107.282 24.3317 107.282 24.3317 107.282C24.3317 107.282 24.4615 107.016 24.958 107.001C25.4546 106.985 25.9039 107.222 26.0134 107.354C26.1229 107.486 26.6491 108.171 26.935 108.789C27.2209 109.407 27.2131 109.375 27.2769 109.76C27.3402 110.145 27.389 110.089 27.4362 110.242C27.4834 110.395 27.4466 110.506 27.3578 110.648C27.2691 110.791 27.2836 111.081 27.1041 111.213C26.9246 111.346 26.731 111.367 26.6065 111.367C26.482 111.367 26.3855 111.402 26.3855 111.402C26.3855 111.402 26.6885 111.544 26.9749 111.604C27.2613 111.663 27.4886 111.824 27.679 111.865C27.87 111.906 28.1948 112.038 28.268 112.407C28.3411 112.776 28.2809 113.938 28.2809 113.938C28.2809 113.938 28.6301 115.066 28.6945 115.334C28.7583 115.601 28.7495 115.952 29.1698 115.841C29.5901 115.731 30.3762 115.555 30.5225 115.472C30.6688 115.389 31.1908 115.183 31.4668 115.098C31.7434 115.013 31.8877 114.989 32.1461 114.849C32.4045 114.71 32.7007 114.666 32.858 114.666C33.0152 114.666 33.1823 114.703 33.3125 114.735C33.4433 114.766 33.5579 114.835 33.6207 114.872C33.6835 114.909 33.7359 114.946 33.7359 114.994C33.7359 115.041 33.614 115.076 33.5429 115.044C33.4718 115.013 33.2622 114.949 33.1636 114.945C33.065 114.941 32.8912 114.957 32.8912 114.957C32.8912 114.957 32.9804 115.053 33.1148 115.057C33.2487 115.06 33.3104 114.997 33.3483 115.063C33.3862 115.129 33.3519 115.292 33.3519 115.292C33.3519 115.292 33.492 115.361 33.5169 115.454C33.5418 115.548 33.4516 115.611 33.4516 115.611C33.4516 115.611 33.4894 115.769 33.298 115.781C33.1065 115.793 32.8139 115.769 32.7272 115.76C32.6406 115.751 32.5212 115.829 32.2701 115.835C32.0189 115.841 31.5468 115.823 31.5468 115.823C31.5468 115.823 30.1255 116.588 29.78 116.665C29.4344 116.742 28.5471 116.992 28.5471 116.992L28.5456 116.993Z" fill="#250D22"/>
<path d="M48.3655 113.869C48.3746 113.837 48.3983 113.811 48.4202 113.787C48.4457 113.759 48.4712 113.732 48.4958 113.705C48.5477 113.648 48.5997 113.592 48.6516 113.536C48.6999 113.484 48.7473 113.43 48.7983 113.38C48.843 113.336 48.8931 113.296 48.9514 113.272C49.017 113.245 49.0872 113.242 49.1574 113.253C49.2284 113.265 49.2959 113.291 49.3633 113.316C49.4316 113.341 49.4991 113.367 49.5665 113.394C49.5938 113.405 49.6221 113.416 49.6494 113.426C49.6503 113.421 49.6531 113.416 49.6594 113.412C49.6968 113.389 49.736 113.367 49.7733 113.345C49.7761 113.343 49.7788 113.341 49.7815 113.339C49.7679 113.317 49.756 113.294 49.7478 113.269C49.7451 113.261 49.7424 113.252 49.7405 113.243C49.7405 113.242 49.7405 113.242 49.7396 113.24C49.7396 113.237 49.7396 113.235 49.7396 113.233C49.736 113.209 49.7396 113.186 49.7569 113.168C49.7597 113.165 49.7624 113.163 49.7651 113.161C49.7679 113.158 49.7715 113.156 49.7752 113.154C49.8426 113.116 49.9201 113.19 49.9647 113.235C49.992 113.263 50.0203 113.294 50.0349 113.329C50.0494 113.365 50.044 113.409 50.0057 113.429C49.992 113.436 49.9775 113.438 49.9629 113.437C49.9447 113.453 49.9173 113.46 49.8927 113.452C49.8836 113.449 49.8763 113.444 49.8681 113.44C49.8626 113.447 49.8563 113.453 49.8499 113.46C49.8371 113.471 49.8235 113.481 49.8089 113.489C49.9729 113.555 50.1378 113.619 50.3037 113.681C50.3037 113.678 50.3055 113.674 50.3073 113.67C50.3201 113.646 50.3383 113.628 50.3602 113.613C50.3647 113.61 50.3693 113.609 50.3729 113.609C50.3811 113.6 50.3893 113.59 50.3975 113.579C50.3884 113.564 50.3793 113.548 50.3729 113.531C50.3565 113.491 50.342 113.432 50.3775 113.397C50.3811 113.393 50.3848 113.39 50.3893 113.388C50.393 113.382 50.3985 113.377 50.4067 113.373C50.4376 113.358 50.475 113.381 50.5032 113.403C50.5051 113.404 50.5069 113.406 50.5087 113.407C50.5105 113.408 50.5114 113.409 50.5133 113.41C50.5187 113.41 50.5251 113.41 50.5306 113.416C50.5661 113.445 50.5935 113.482 50.6099 113.525C50.6235 113.561 50.6363 113.613 50.6053 113.644C50.598 113.653 50.5898 113.656 50.5816 113.658C50.5807 113.659 50.5798 113.661 50.5789 113.662C50.5479 113.695 50.5042 113.679 50.4723 113.657C50.4631 113.665 50.4531 113.673 50.444 113.681C50.4285 113.693 50.4121 113.704 50.3948 113.714C50.5415 113.768 50.69 113.819 50.8395 113.863C50.8632 113.831 50.8969 113.809 50.9343 113.793C50.9306 113.782 50.9261 113.771 50.9224 113.761C50.9124 113.732 50.9051 113.703 50.8996 113.673C50.8914 113.627 50.8996 113.559 50.9598 113.553C50.9926 113.549 51.0208 113.571 51.0427 113.593C51.0627 113.613 51.0791 113.636 51.0919 113.662C51.1047 113.687 51.1129 113.714 51.1174 113.741C51.1211 113.77 51.1238 113.803 51.111 113.829C51.1001 113.851 51.0791 113.863 51.0564 113.865C51.0509 113.871 51.0445 113.876 51.0363 113.879C51.0053 113.89 50.9762 113.873 50.9607 113.847C50.9589 113.845 50.9579 113.842 50.957 113.839C50.9324 113.848 50.9106 113.863 50.8887 113.877C50.998 113.909 51.1083 113.938 51.2195 113.962C51.2905 113.978 51.3616 113.992 51.4327 114.004C51.501 114.016 51.5703 114.027 51.6359 114.047C51.7015 114.068 51.7589 114.101 51.8118 114.145C51.8628 114.188 51.9075 114.239 51.9612 114.28C51.9986 114.309 52.0414 114.333 52.0888 114.344C52.0961 114.34 52.1043 114.337 52.1134 114.339C52.538 114.413 52.9554 114.521 53.3718 114.634C53.7809 114.746 54.1901 114.858 54.5992 114.97C54.5646 114.897 54.5327 114.82 54.5427 114.738C54.5482 114.693 54.5728 114.645 54.6275 114.649C54.674 114.652 54.7068 114.69 54.7341 114.722C54.7505 114.742 54.766 114.762 54.7824 114.781C54.8024 114.79 54.8197 114.807 54.8343 114.823C54.8516 114.842 54.869 114.861 54.8863 114.88C54.92 114.918 54.9555 114.955 54.9938 114.987C55.043 115.028 55.0968 115.065 55.135 115.115C55.3902 115.186 55.6435 115.259 55.895 115.343C56.029 115.388 56.162 115.434 56.295 115.478C56.3287 115.484 56.3625 115.491 56.3944 115.504C56.4135 115.511 56.4317 115.519 56.4499 115.528C56.4563 115.53 56.4618 115.532 56.4682 115.533C56.4682 115.534 56.4691 115.535 56.4691 115.537C56.4909 115.548 56.5128 115.56 56.5356 115.57C56.5429 115.568 56.5502 115.566 56.5566 115.561C56.5903 115.571 56.6249 115.581 56.6586 115.591C56.6613 115.585 56.6641 115.578 56.6659 115.572C56.6695 115.565 56.6723 115.557 56.6759 115.55C56.6741 115.55 56.6732 115.549 56.6714 115.548C56.6714 115.548 56.6705 115.548 56.6695 115.548C56.655 115.542 56.6404 115.538 56.6258 115.534C56.6185 115.533 56.6103 115.531 56.6021 115.53C56.5985 115.53 56.5948 115.529 56.5912 115.528C56.5894 115.528 56.5894 115.528 56.5884 115.528C56.5884 115.528 56.5884 115.528 56.5857 115.528C56.573 115.527 56.5611 115.526 56.5502 115.517C56.5374 115.507 56.532 115.49 56.5402 115.474C56.5429 115.471 56.5456 115.468 56.5484 115.465C56.5465 115.463 56.5438 115.461 56.542 115.459C56.5001 115.413 56.5192 115.362 56.5474 115.315C56.5739 115.271 56.5957 115.226 56.6149 115.179C56.6322 115.126 56.6486 115.072 56.6641 115.018C56.6668 115.005 56.6705 114.991 56.6732 114.978C56.6741 114.972 56.6768 114.967 56.6796 114.964C56.6832 114.951 56.6859 114.939 56.6896 114.926C56.7178 114.643 56.7534 114.361 56.7971 114.081C56.8263 113.895 56.8573 113.708 56.8937 113.523C56.9283 113.346 56.9703 113.168 57.035 112.998C57.1607 112.673 57.3794 112.387 57.6045 112.122C57.7065 112.001 57.8241 111.885 57.9726 111.822C58.1394 111.75 58.328 111.746 58.5075 111.737C58.6041 111.732 58.7016 111.729 58.7982 111.728C58.8456 111.728 58.893 111.728 58.9403 111.728C58.9786 111.728 59.0205 111.728 59.0561 111.711C59.1189 111.68 59.1372 111.604 59.1554 111.543C59.1745 111.48 59.2 111.414 59.2538 111.371C59.2748 111.355 59.2985 111.346 59.3249 111.344C59.3276 111.342 59.3303 111.339 59.3331 111.337C59.3686 111.308 59.4042 111.278 59.4388 111.248C59.4725 111.219 59.5062 111.189 59.5399 111.16C59.5627 111.14 59.5955 111.115 59.5982 111.082C59.6019 111.047 59.57 111.01 59.5527 110.981C59.5317 110.946 59.5089 110.912 59.4862 110.879C59.4397 110.81 59.3905 110.744 59.3376 110.681C59.2966 110.632 59.2529 110.584 59.2082 110.538C59.2028 110.621 59.18 110.702 59.1435 110.777C59.1308 110.804 59.0816 110.799 59.077 110.768C59.046 110.567 59.0014 110.368 58.944 110.173C58.9358 110.188 58.9267 110.203 58.9157 110.216C58.9012 110.234 58.8747 110.225 58.8629 110.21C58.8082 110.134 58.7727 110.042 58.7636 109.949C58.7581 109.96 58.7517 109.97 58.7453 109.979C58.6998 110.041 58.6251 110.081 58.5467 110.062C58.5203 110.056 58.5111 110.02 58.5303 110.002C58.6424 109.899 58.6633 109.738 58.6442 109.595C58.6214 109.425 58.5531 109.263 58.5221 109.095C58.4674 108.802 58.4701 108.491 58.5676 108.207C58.5913 108.138 58.6214 108.072 58.6569 108.008C58.677 107.961 58.7007 107.915 58.7289 107.872C58.8292 107.627 59.005 107.41 59.2237 107.255C59.5071 107.053 59.8652 106.968 60.2115 107.011C60.4138 107.036 60.6088 107.101 60.7828 107.207C60.7856 107.208 60.7874 107.211 60.7892 107.213C60.9888 107.318 61.1692 107.46 61.3177 107.624C61.4562 107.776 61.572 107.949 61.6567 108.135C61.6995 108.229 61.7351 108.326 61.7615 108.424C61.7916 108.535 61.8071 108.647 61.8198 108.761C61.8353 108.9 61.8481 109.046 61.9091 109.175C61.9583 109.279 62.0376 109.376 62.1506 109.417C62.1807 109.428 62.1898 109.481 62.1506 109.487C62.1205 109.492 62.0905 109.494 62.0604 109.496C62.1278 109.514 62.1934 109.536 62.2508 109.576C62.2672 109.586 62.2754 109.607 62.2636 109.625C62.1661 109.783 61.9793 109.868 61.7952 109.866C61.8481 109.885 61.9028 109.899 61.9592 109.906C61.9875 109.909 61.9939 109.95 61.9756 109.966C61.8554 110.078 61.6731 110.106 61.5219 110.05C61.5528 110.08 61.5902 110.103 61.6321 110.117C61.6777 110.131 61.6585 110.195 61.613 110.187C61.5383 110.173 61.4672 110.14 61.408 110.093C61.3833 110.286 61.4098 110.482 61.4827 110.662C61.5392 110.775 61.592 110.888 61.6467 111.001C61.6722 110.985 61.6986 110.969 61.7278 110.958C61.7679 110.942 61.8171 110.922 61.8617 110.922C61.8982 110.922 61.921 110.977 61.9319 111.005C61.9447 111.037 61.951 111.07 61.9602 111.102C61.9693 111.131 61.9802 111.161 62.0066 111.179C62.0422 111.204 62.0941 111.21 62.136 111.22C62.2363 111.243 62.3365 111.265 62.4367 111.288C62.6399 111.333 62.845 111.373 63.05 111.411C63.1511 111.43 63.2532 111.447 63.3553 111.464C63.4354 111.477 63.5165 111.493 63.5931 111.52C63.6797 111.552 63.7589 111.599 63.8182 111.67C63.8628 111.723 63.9002 111.781 63.9567 111.821C64.0296 111.806 64.1116 111.825 64.1735 111.866C64.271 111.929 64.3348 112.026 64.4086 112.112C64.5581 112.283 64.7385 112.425 64.928 112.551C65.1185 112.677 65.3171 112.789 65.5121 112.909C65.7381 113.047 65.9568 113.198 66.1719 113.353C66.294 113.441 66.4161 113.53 66.5373 113.62C66.5983 113.665 66.6585 113.709 66.7195 113.754C66.7359 113.767 66.7514 113.775 66.7596 113.794C66.7651 113.809 66.7678 113.824 66.7687 113.839C66.7687 113.856 66.766 113.873 66.7605 113.889C66.9355 113.96 67.0968 114.062 67.2335 114.19C67.3738 114.321 67.5077 114.486 67.5478 114.677C67.5697 114.781 67.5597 114.891 67.4959 114.979C67.4868 114.991 67.4749 114.996 67.4631 114.995C67.4385 115.053 67.4111 115.111 67.382 115.166C67.3519 115.241 67.3146 115.314 67.269 115.379C67.269 115.383 67.2708 115.387 67.2708 115.391C67.2763 115.433 67.2799 115.478 67.2681 115.519C67.2553 115.563 67.2253 115.596 67.1906 115.625C67.1505 115.657 67.1104 115.689 67.0703 115.721C67.0439 115.742 67.0175 115.762 66.9911 115.783C67.4212 115.992 67.7009 116.409 67.8458 116.851C68.0071 117.368 68.0317 117.93 67.9788 118.468C67.9242 119.022 67.7848 119.564 67.6071 120.09C67.5342 120.304 67.4604 120.521 67.3656 120.728C67.3164 120.808 67.2644 120.887 67.2089 120.963C67.135 121.061 67.0512 121.161 66.9528 121.241C66.9227 121.265 66.8899 121.286 66.8571 121.306C66.848 121.306 66.8389 121.308 66.8298 121.313C66.7915 121.334 66.7523 121.355 66.7131 121.373C66.7059 121.376 66.6995 121.378 66.6922 121.381C66.684 121.384 66.6776 121.387 66.6721 121.392C66.5564 121.443 66.4361 121.481 66.3122 121.51C65.986 121.585 65.6415 121.584 65.3135 121.52C65.1805 121.494 65.0501 121.457 64.9244 121.408C64.9162 121.406 64.908 121.404 64.8998 121.402C64.8788 121.397 64.8579 121.39 64.8369 121.383C64.8296 121.383 64.8223 121.383 64.815 121.383C64.6866 121.378 64.5553 121.359 64.436 121.311C64.3859 121.29 64.3385 121.265 64.2938 121.236C64.2656 121.512 64.2565 121.791 64.2911 122.067C64.2911 122.071 64.292 122.075 64.2938 122.078C64.2929 122.116 64.292 122.154 64.2911 122.191C64.2911 122.215 64.3038 122.23 64.3202 122.236C64.3102 122.338 64.302 122.439 64.2956 122.539C64.2729 122.884 64.2647 123.23 64.2565 123.575C64.2483 123.921 64.2401 124.266 64.2173 124.611C64.2054 124.786 64.1899 124.962 64.1681 125.136C64.1498 125.282 64.1407 125.444 64.0615 125.573C64.0232 125.635 63.9694 125.685 63.9293 125.745C63.8829 125.815 63.8683 125.893 63.8683 125.976C63.8683 126.134 63.9047 126.288 63.8883 126.447C63.871 126.607 63.8254 126.763 63.7817 126.918C63.7361 127.08 63.6997 127.243 63.6806 127.411C63.6058 128.071 63.7334 128.736 63.656 129.396C63.6168 129.724 63.5138 130.036 63.4145 130.351C63.3097 130.682 63.2313 131.018 63.2022 131.364C63.1985 131.411 63.1949 131.458 63.1931 131.504C63.2167 131.512 63.2067 131.548 63.1912 131.546C63.1903 131.569 63.1894 131.592 63.1885 131.615C63.1885 131.627 63.183 131.635 63.1748 131.642C63.1739 131.654 63.173 131.668 63.1712 131.68C63.1648 131.742 63.1575 131.804 63.1511 131.867C63.1448 131.92 63.1347 131.978 63.1557 132.029C63.1721 132.07 63.2095 132.099 63.2414 132.126C63.2751 132.155 63.3106 132.185 63.3316 132.224C63.3543 132.268 63.3589 132.318 63.3471 132.366C63.3197 132.47 63.2341 132.541 63.1675 132.62C63.1156 132.682 63.0463 132.8 63.1211 132.871C63.1393 132.888 63.132 132.915 63.1138 132.928C63.0719 132.956 63.0236 132.97 62.9744 132.968C62.9744 133.336 63.1265 133.7 63.3953 133.957C63.5402 134.096 63.7207 134.21 63.82 134.39C63.8655 134.471 63.8947 134.565 63.892 134.658C63.8911 134.702 63.8829 134.747 63.8655 134.787C63.8546 134.814 63.8464 134.836 63.8163 134.846C63.7899 134.855 63.7626 134.863 63.7361 134.872C63.3152 134.995 62.8614 135.009 62.4331 134.91C62.3329 134.887 62.2299 134.859 62.1415 134.806C62.0577 134.756 61.9984 134.679 61.9255 134.618C61.8636 134.565 61.7907 134.544 61.7114 134.528C61.6376 134.513 61.561 134.503 61.4936 134.469C61.418 134.431 61.3751 134.363 61.3679 134.281C61.3624 134.226 61.3679 134.171 61.3697 134.116C61.3715 134.057 61.3733 133.998 61.3751 133.939C61.3824 133.702 61.3897 133.464 61.397 133.227C61.397 133.203 61.3988 133.18 61.3988 133.156C61.3788 133.079 61.3278 133.01 61.2804 132.947C61.2066 132.848 61.1164 132.75 61.0808 132.63C61.0644 132.573 61.0635 132.512 61.0836 132.456C61.1145 132.37 61.1865 132.31 61.2266 132.23C61.2722 132.142 61.2804 132.032 61.2968 131.934C61.315 131.826 61.3323 131.716 61.3478 131.607C61.4116 131.167 61.4535 130.725 61.4754 130.281C61.4982 129.836 61.5082 129.391 61.541 128.947C61.5711 128.541 61.613 128.137 61.6658 127.733C61.6549 127.676 61.6476 127.619 61.6403 127.562C61.6294 127.473 61.6175 127.384 61.6075 127.295C61.5975 127.207 61.5938 127.06 61.6923 127.025C61.5838 126.438 61.654 125.842 61.6567 125.25C61.6576 124.947 61.6339 124.649 61.582 124.352C61.5319 124.062 61.4654 123.775 61.4143 123.485C61.3587 123.167 61.3232 122.843 61.3515 122.519C61.3077 122.541 61.2694 122.578 61.243 122.616C61.1783 122.707 61.1355 122.815 61.0881 122.916C60.9906 123.126 60.9004 123.339 60.8147 123.554C60.6425 123.982 60.4812 124.415 60.2944 124.838C60.2006 125.049 60.1003 125.258 59.9883 125.461C59.9327 125.562 59.8734 125.662 59.8115 125.76C59.7996 125.778 59.7887 125.796 59.7768 125.814C59.745 125.936 59.7176 126.058 59.6957 126.183C59.662 126.376 59.6365 126.571 59.5955 126.764C59.5126 127.156 59.3568 127.526 59.211 127.899C59.1609 128.026 59.1126 128.154 59.0688 128.285C59.0433 128.434 59.0123 128.583 58.9649 128.728C58.9577 128.75 58.9494 128.773 58.9412 128.794C58.9285 128.883 58.9203 128.973 58.9185 129.064C58.9139 129.266 58.9185 129.467 58.8766 129.667C58.8365 129.858 58.7681 130.042 58.6989 130.225C58.5567 130.599 58.4237 130.979 58.4246 131.383C58.4246 131.383 58.4246 131.384 58.4246 131.385C58.431 131.389 58.4355 131.395 58.4355 131.405C58.4364 131.491 58.441 131.577 58.4401 131.663C58.4401 131.747 58.4437 131.832 58.4355 131.915C58.4282 131.991 58.4091 132.064 58.3581 132.122C58.3335 132.151 58.3007 132.173 58.2651 132.187C58.3107 132.236 58.3362 132.302 58.3298 132.368C58.3207 132.464 58.2469 132.549 58.1521 132.574C58.0938 132.589 58.0355 132.577 57.9763 132.573C57.9343 132.571 57.8851 132.575 57.8569 132.61C57.8268 132.648 57.8724 132.687 57.8915 132.718C57.9134 132.754 57.9243 132.798 57.9225 132.84C57.9198 132.908 57.8906 132.972 57.8414 133.017C57.9389 133.073 57.969 133.217 57.9717 133.323C57.9753 133.432 57.969 133.542 57.9662 133.651C57.9644 133.768 57.9617 133.883 57.9599 134C57.958 134.111 57.9617 134.223 57.9526 134.333C57.9453 134.425 57.9125 134.512 57.8295 134.561C57.7585 134.602 57.6701 134.609 57.5899 134.6C57.4887 134.589 57.3922 134.55 57.291 134.54C57.24 134.535 57.188 134.537 57.1397 134.557C57.0951 134.574 57.0577 134.605 57.0213 134.635C56.9447 134.698 56.8655 134.757 56.7771 134.804C56.6049 134.897 56.4144 134.951 56.2212 134.978C56.0016 135.009 55.7793 135.003 55.5597 134.98C55.443 134.968 55.3273 134.951 55.2116 134.933C55.1551 134.924 55.0977 134.914 55.0412 134.904C54.9947 134.896 54.9464 134.889 54.9027 134.872C54.858 134.854 54.8197 134.825 54.7979 134.782C54.776 134.74 54.7705 134.692 54.766 134.645C54.7605 134.589 54.756 134.533 54.7505 134.477C54.7459 134.425 54.7377 134.371 54.7396 134.319C54.7414 134.268 54.7569 134.222 54.7942 134.186C54.8298 134.152 54.8762 134.128 54.92 134.106C55.0148 134.056 55.1141 134.012 55.2161 133.976C55.2453 133.966 55.2745 133.956 55.3045 133.947C55.3155 133.931 55.3364 133.918 55.3537 133.909C55.3975 133.889 55.433 133.864 55.4658 133.829C55.4995 133.793 55.5278 133.752 55.556 133.712C55.5879 133.667 55.6225 133.623 55.659 133.581C55.7337 133.495 55.8194 133.415 55.9132 133.35C55.9615 133.315 56.0144 133.291 56.0654 133.262C56.1082 133.236 56.1447 133.205 56.1766 133.167C56.2413 133.09 56.2814 132.996 56.3187 132.903C56.316 132.899 56.3142 132.894 56.3142 132.888C56.3187 132.84 56.2932 132.791 56.2513 132.767C56.2285 132.755 56.2312 132.716 56.2586 132.71C56.3014 132.701 56.3433 132.692 56.3862 132.684C56.3142 132.606 56.2613 132.51 56.2349 132.407C56.2185 132.343 56.2094 132.275 56.2622 132.225C56.285 132.203 56.3105 132.184 56.3324 132.16C56.3533 132.135 56.3716 132.109 56.388 132.081C56.4572 131.963 56.4928 131.823 56.5183 131.689C56.5447 131.548 56.5474 131.408 56.5493 131.265C56.5502 131.161 56.5538 131.053 56.583 130.953C56.5912 130.841 56.6085 130.73 56.6213 130.62C56.6386 130.472 56.6586 130.323 56.6777 130.175C56.7133 129.889 56.7461 129.603 56.8117 129.322C56.8445 129.184 56.8892 129.048 56.9292 128.913C56.9703 128.776 57.0003 128.639 57.0103 128.497C57.0204 128.355 57.0176 128.211 57.0268 128.068C57.0359 127.932 57.0596 127.797 57.0978 127.665C57.1352 127.535 57.1853 127.41 57.2409 127.287C57.2746 127.192 57.301 127.093 57.3275 126.996C57.3557 126.892 57.3821 126.787 57.4022 126.681C57.4432 126.466 57.466 126.248 57.4669 126.029C57.4669 125.918 57.4569 125.808 57.4596 125.697C57.4623 125.585 57.4988 125.485 57.5416 125.382C57.6236 125.189 57.6837 124.989 57.7248 124.784C57.8068 124.37 57.8213 123.947 57.8669 123.528C57.8897 123.319 57.9198 123.111 57.969 122.907C58.0227 122.686 58.0965 122.469 58.1558 122.251C58.2141 122.033 58.2542 121.812 58.2925 121.59C58.3325 121.359 58.3726 121.129 58.4127 120.898C58.4191 120.863 58.4246 120.828 58.431 120.794C58.431 120.794 58.431 120.794 58.43 120.795C58.4118 120.808 58.3799 120.795 58.3763 120.773C58.3189 120.484 58.4474 120.206 58.4392 119.918C58.4346 119.779 58.3745 119.643 58.3982 119.503C58.4036 119.469 58.4164 119.435 58.4346 119.407C58.4528 119.376 58.4774 119.35 58.4929 119.318C58.5212 119.258 58.513 119.188 58.502 119.125C58.4893 119.052 58.472 118.979 58.4711 118.905C58.4692 118.826 58.4802 118.747 58.4947 118.669C58.5239 118.512 58.5604 118.355 58.5941 118.199C58.5449 118.152 58.4975 118.104 58.4547 118.051C58.3972 117.98 58.3489 117.904 58.318 117.818C58.2842 117.723 58.276 117.622 58.2724 117.521C58.2688 117.389 58.2642 117.25 58.2861 117.118C58.1612 117.066 58.0373 117.012 57.9143 116.957C57.9034 117.001 57.8915 117.044 57.8769 117.087C57.8578 117.145 57.8396 117.221 57.7885 117.261C57.7311 117.306 57.6473 117.284 57.5817 117.271C57.4377 117.242 57.3001 117.186 57.168 117.125C57.0295 117.059 56.8946 116.986 56.7588 116.915C56.7078 116.889 56.6568 116.863 56.6058 116.837L56.0545 116.62C56.0545 116.62 56.0472 116.615 56.0426 116.612C55.9506 116.564 55.8567 116.519 55.7592 116.484C55.6836 116.457 55.608 116.434 55.5332 116.404C55.412 116.355 55.2681 116.287 55.1332 116.31C55.1159 116.303 55.0995 116.296 55.084 116.287C55.0667 116.297 55.0494 116.306 55.0302 116.314C54.9965 116.328 54.961 116.337 54.9254 116.343C54.8507 116.356 54.7751 116.357 54.6995 116.356C54.6311 116.356 54.5455 116.365 54.5017 116.303C54.4744 116.263 54.4753 116.22 54.4871 116.178C54.4735 116.181 54.4607 116.184 54.4471 116.186C54.4115 116.199 54.3732 116.206 54.3386 116.186C54.3322 116.182 54.3259 116.177 54.3204 116.172C54.3058 116.164 54.2912 116.156 54.2776 116.145C54.2356 116.109 54.2183 116.05 54.2311 116C54.2001 116.003 54.1691 116.005 54.1381 116.004C54.0835 116.002 54.0279 115.992 53.9869 115.954C53.9204 115.893 53.9277 115.806 53.9523 115.727C53.5613 115.597 53.1713 115.467 52.7777 115.348C52.5225 115.27 52.2674 115.195 52.0104 115.123C51.9995 115.131 51.984 115.131 51.9703 115.125C51.727 115.014 51.4445 115.098 51.2195 115.213C51.1593 115.244 51.1019 115.287 51.0327 115.295C50.9625 115.303 50.8878 115.288 50.8185 115.28C50.6992 115.263 50.5816 115.238 50.4668 115.205C50.4431 115.249 50.4167 115.292 50.3875 115.332C50.4212 115.35 50.4522 115.372 50.475 115.405C50.4914 115.429 50.4686 115.458 50.4431 115.46C50.4121 115.462 50.3811 115.459 50.352 115.453C50.3392 115.469 50.3101 115.473 50.2973 115.451C50.2946 115.446 50.2909 115.441 50.2882 115.437C50.2508 115.422 50.2153 115.402 50.1852 115.375C50.1734 115.365 50.1624 115.355 50.1524 115.344C50.1324 115.323 50.1451 115.28 50.1779 115.282C50.1952 115.283 50.2126 115.287 50.229 115.29C50.259 115.246 50.2873 115.202 50.3155 115.157C50.2116 115.121 50.1096 115.077 50.0121 115.026C49.941 114.99 49.8718 114.949 49.8025 114.908C49.787 114.94 49.7706 114.973 49.7542 115.005C49.7424 115.034 49.7287 115.061 49.7141 115.088C49.7278 115.097 49.7415 115.107 49.7533 115.119C49.7633 115.129 49.7661 115.144 49.7606 115.157C49.7661 115.161 49.7706 115.166 49.7761 115.171C49.797 115.192 49.7825 115.234 49.7506 115.232C49.6394 115.226 49.5364 115.166 49.4799 115.07C49.4663 115.047 49.4827 115.021 49.5064 115.017C49.5064 115.017 49.5064 115.016 49.5073 115.015C49.5173 114.999 49.5401 114.992 49.5565 115.002C49.5765 115.014 49.5957 115.026 49.6139 115.038C49.6522 114.98 49.6868 114.919 49.7169 114.857C49.7023 114.848 49.6877 114.839 49.674 114.831C49.5319 114.745 49.3833 114.658 49.2239 114.606C49.212 114.621 49.202 114.637 49.1902 114.652C49.1865 114.657 49.1829 114.662 49.1792 114.667C49.1583 114.711 49.1309 114.753 49.099 114.79C49.1072 114.796 49.1154 114.801 49.1236 114.808C49.151 114.834 49.1965 114.877 49.1756 114.918C49.1546 114.956 49.1063 114.95 49.0708 114.939C48.9952 114.917 48.9259 114.874 48.873 114.816C48.8466 114.787 48.8102 114.746 48.8366 114.705C48.8566 114.674 48.9022 114.672 48.935 114.684C48.9532 114.69 48.9706 114.7 48.9879 114.711C49.0234 114.659 49.0644 114.614 49.1109 114.572C49.0662 114.563 49.0198 114.557 48.9733 114.554C48.8967 114.551 48.8193 114.556 48.7427 114.554C48.6808 114.553 48.5988 114.552 48.5541 114.502C48.5322 114.478 48.5222 114.448 48.5131 114.418C48.5013 114.38 48.4903 114.343 48.4785 114.306C48.4557 114.232 48.4329 114.159 48.4101 114.085C48.3983 114.047 48.3865 114.011 48.3755 113.973C48.3655 113.94 48.3573 113.905 48.3673 113.871L48.3655 113.869ZM63.8036 115.389C64.005 115.342 64.2073 115.299 64.4132 115.283C64.6173 115.267 64.8223 115.277 65.0237 115.311C65.0474 115.315 65.0702 115.319 65.093 115.323C65.1121 115.327 65.1358 115.335 65.154 115.325C65.185 115.31 65.2014 115.265 65.2178 115.237C65.2215 115.23 65.226 115.224 65.2306 115.217C65.2224 115.21 65.2151 115.201 65.2078 115.193C65.2041 115.197 65.2014 115.201 65.1978 115.204C65.165 115.235 65.1221 115.251 65.0766 115.252C64.9854 115.252 64.9034 115.2 64.8324 115.15C64.7485 115.094 64.6674 115.034 64.5891 114.971C64.4414 114.852 64.2993 114.722 64.1772 114.578C64.0979 114.484 64.0268 114.381 63.9758 114.269C63.9029 114.21 63.8273 114.154 63.7498 114.1C63.738 114.149 63.7261 114.198 63.7143 114.247C63.6414 114.527 63.5521 114.802 63.4455 115.071C63.3853 115.223 63.3206 115.373 63.2505 115.521C63.4345 115.474 63.6186 115.43 63.8036 115.387V115.389ZM58.4118 116.014C58.3972 115.836 58.3836 115.658 58.369 115.48C58.3644 115.42 58.3599 115.359 58.3553 115.298C58.3462 115.366 58.3353 115.432 58.3225 115.498C58.3052 115.588 58.2842 115.679 58.256 115.766C58.2442 115.803 58.2259 115.839 58.1886 115.856C58.1813 115.859 58.174 115.861 58.1667 115.863C58.1621 115.909 58.1558 115.956 58.1476 116.002C58.2205 116.024 58.2961 116.048 58.3708 116.051C58.3927 116.051 58.4155 116.051 58.4373 116.046C58.4237 116.041 58.4118 116.031 58.4109 116.014H58.4118Z" fill="#250D22"/>
<path d="M350.99 185.821C350.824 185.45 350.726 185.151 350.56 184.895C350.49 184.786 350.278 184.72 350.129 184.719C348.89 184.705 347.651 184.701 346.412 184.719C346.072 184.724 345.909 184.606 345.787 184.288C345.326 183.085 344.833 181.894 344.355 180.697C344.316 180.597 344.297 180.49 344.271 180.395H349.392V178.443C349.198 178.443 349.033 178.443 348.87 178.443C345.623 178.443 342.376 178.435 339.129 178.452C338.709 178.455 338.598 178.327 338.614 177.925C338.644 177.159 338.616 176.392 338.628 175.625C338.629 175.488 338.7 175.35 338.773 175.097C338.419 174.753 337.994 174.319 337.542 173.914C337.445 173.828 337.255 173.818 337.108 173.818C334.474 173.813 331.838 173.808 329.204 173.822C328.866 173.823 328.655 173.728 328.482 173.433C328.24 173.019 327.89 172.66 327.697 172.228C327.545 171.886 327.521 171.471 327.508 171.086C327.482 170.288 327.5 170.288 328.306 170.263C328.549 170.256 328.797 170.274 329.029 170.221C329.157 170.193 329.258 170.044 329.371 169.949C329.256 169.88 329.144 169.754 329.028 169.751C328.43 169.73 327.832 169.729 327.234 169.745C326.94 169.752 326.778 169.65 326.848 169.356C326.979 168.81 327.102 168.255 327.305 167.734C327.429 167.418 327.464 167.21 327.036 167C326.786 167.392 326.481 167.781 326.275 168.216C326.047 168.698 325.889 169.215 325.736 169.728C325.651 170.011 325.545 170.087 325.228 170.065C324.592 170.021 323.951 170.072 323.311 170.079C322.827 170.084 322.511 170.35 322.314 170.754C322.194 170.997 322.033 171.062 321.776 171.061C320.366 171.05 318.956 171.063 317.547 171.05C317.241 171.048 317.049 171.139 316.901 171.412C316.544 172.071 316.138 172.704 315.793 173.37C315.61 173.722 315.378 173.831 314.991 173.823C313.824 173.799 312.651 173.876 311.489 173.799C310.007 173.7 308.712 174.196 307.44 174.839C307.116 175.003 306.796 175.176 306.471 175.419C306.612 175.426 306.753 175.439 306.894 175.439C308.219 175.441 309.543 175.44 310.867 175.44C311.133 175.44 311.391 175.453 311.483 175.771C311.598 176.173 311.383 176.424 310.9 176.426C309.704 176.432 308.508 176.428 307.312 176.429C306.827 176.429 306.34 176.464 305.86 176.421C305.003 176.345 304.244 176.531 303.55 177.049C302.956 177.492 302.329 177.893 301.712 178.305C301.648 178.347 301.558 178.359 301.479 178.364C301.294 178.376 301.109 178.38 300.925 178.38C294.801 178.38 288.678 178.38 282.555 178.38C282.4 178.38 282.246 178.38 281.999 178.38C282.149 178.575 282.245 178.715 282.357 178.842C284.167 180.904 285.978 182.963 287.791 185.021C287.969 185.224 288.149 185.431 288.356 185.6C288.486 185.707 288.666 185.762 288.831 185.815C288.922 185.844 289.029 185.82 289.129 185.82C309.522 185.82 329.916 185.82 350.309 185.82H350.99V185.821ZM331.36 180.417C331.517 180.4 331.6 180.385 331.683 180.385C335.411 180.384 339.139 180.388 342.868 180.377C343.158 180.377 343.257 180.51 343.347 180.744C343.641 181.508 343.955 182.263 344.258 183.022C344.475 183.564 344.686 184.106 344.905 184.661C344.799 184.688 344.758 184.706 344.718 184.706C340.946 184.708 337.176 184.711 333.404 184.696C333.256 184.696 333.044 184.537 332.975 184.398C332.762 183.969 332.602 183.513 332.423 183.067C332.076 182.205 331.731 181.342 331.359 180.417H331.36ZM323.003 180.409C323.247 180.397 323.383 180.385 323.519 180.385C325.627 180.384 327.734 180.393 329.841 180.376C330.168 180.373 330.324 180.484 330.437 180.771C330.878 181.888 331.335 183 331.78 184.116C331.849 184.288 331.888 184.474 331.957 184.708C330.157 184.708 328.424 184.712 326.691 184.7C326.588 184.7 326.46 184.598 326.386 184.508C325.278 183.175 324.177 181.835 323.003 180.41L323.003 180.409ZM338.052 175.314C338.052 176.284 338.054 177.215 338.047 178.146C338.047 178.217 338.001 178.317 337.945 178.354C337.726 178.496 336.648 178.342 336.456 178.152C335.653 177.353 334.849 176.552 334.048 175.751C333.923 175.626 333.806 175.494 333.637 175.315H338.052V175.314ZM333.178 178.292C331.445 177.987 330.795 176.425 329.724 175.345C331.473 175.627 332.098 177.219 333.178 178.292ZM335.239 178.313C334.445 178.38 332.134 176.36 331.811 175.318C332.622 175.274 334.823 177.196 335.239 178.313ZM324.93 178.398C324.691 178.327 324.53 178.296 324.38 178.234C323.724 177.962 323.213 177.518 322.774 176.958C322.338 176.402 321.841 175.895 321.338 175.33C322.268 175.251 324.264 176.958 324.93 178.398ZM319.258 175.328C320.155 175.262 322.383 177.192 322.825 178.348C322.255 178.334 321.769 178.058 321.418 177.721C320.661 176.994 320.003 176.165 319.258 175.327V175.328ZM326.94 178.306C326.141 178.397 324.257 176.773 323.498 175.34C324.261 175.225 326.602 177.243 326.94 178.306ZM329.007 178.3C328.248 178.405 325.975 176.421 325.588 175.317C326.399 175.271 328.63 177.217 329.007 178.3ZM327.629 175.376C328.466 175.259 330.718 177.229 331.107 178.387C329.377 177.983 328.727 176.427 327.629 175.376ZM313.125 182.365C313.125 182.278 313.081 182.135 313.134 182.058C313.269 181.861 313.418 181.617 313.618 181.54C313.772 181.481 314.049 181.6 314.208 181.722C314.463 181.919 314.475 182.768 314.216 182.966C314.04 183.102 313.745 183.222 313.552 183.168C313.213 183.074 313.078 182.753 313.125 182.364V182.365ZM307.709 182.371C307.663 181.959 307.743 181.615 308.151 181.543C308.346 181.508 308.627 181.603 308.778 181.739C309.078 182.009 309.051 182.747 308.737 183.008C308.587 183.133 308.311 183.227 308.142 183.175C307.966 183.121 307.828 182.887 307.72 182.704C307.664 182.61 307.71 182.457 307.71 182.37L307.709 182.371ZM296.708 182.448C296.8 182.027 296.83 181.656 297.23 181.554C297.425 181.504 297.712 181.584 297.879 181.708C298.181 181.93 298.134 182.842 297.812 183.054C297.65 183.161 297.326 183.238 297.21 183.15C296.991 182.984 296.87 182.689 296.707 182.448H296.708ZM319.821 182.353C319.809 182.355 319.799 182.356 319.788 182.358C319.788 182.457 319.792 182.556 319.788 182.655C319.773 182.968 319.585 183.148 319.3 183.209C318.995 183.276 318.72 183.124 318.663 182.851C318.594 182.523 318.576 182.139 318.686 181.832C318.845 181.384 319.483 181.368 319.709 181.781C319.798 181.943 319.787 182.16 319.821 182.353H319.821ZM302.278 182.341C302.258 182.333 302.24 182.326 302.22 182.319C302.299 182.105 302.33 181.852 302.468 181.686C302.685 181.423 302.982 181.422 303.259 181.644C303.514 181.848 303.599 182.581 303.397 182.907C303.23 183.179 302.963 183.311 302.676 183.18C302.513 183.106 302.4 182.89 302.307 182.715C302.253 182.613 302.286 182.466 302.279 182.339L302.278 182.341ZM328.108 173.705C327.52 173.913 327.21 173.677 326.972 173.219C326.717 172.725 326.418 172.254 326.139 171.773L326.214 171.649C326.473 171.726 326.839 171.722 326.97 171.896C327.391 172.454 327.725 173.079 328.109 173.705L328.108 173.705ZM326.582 173.674C326.565 173.715 326.547 173.755 326.53 173.796C326.275 173.753 325.896 173.801 325.788 173.652C325.354 173.057 325.005 172.401 324.624 171.767C324.65 171.725 324.677 171.682 324.703 171.639C324.975 171.729 325.356 171.736 325.498 171.923C325.911 172.467 326.227 173.084 326.582 173.673L326.582 173.674ZM322.155 173.802C321.784 173.757 321.412 173.817 321.314 173.682C320.876 173.077 320.517 172.415 320.129 171.773C320.153 171.742 320.178 171.71 320.202 171.678C320.458 171.72 320.839 171.673 320.947 171.823C321.373 172.41 321.713 173.059 322.155 173.802ZM318.63 171.779C319.227 171.564 319.516 171.819 319.745 172.253C320.006 172.745 320.304 173.218 320.652 173.811C320.274 173.753 319.896 173.805 319.79 173.66C319.362 173.073 319.017 172.425 318.63 171.779H318.63ZM319.092 173.696C318.494 173.915 318.207 173.654 317.978 173.221C317.717 172.729 317.418 172.256 317.07 171.66C317.451 171.722 317.83 171.672 317.937 171.819C318.364 172.407 318.709 173.054 319.093 173.695L319.092 173.696ZM321.64 171.797C321.658 171.749 321.675 171.701 321.693 171.653C321.961 171.723 322.349 171.706 322.478 171.88C322.901 172.448 323.229 173.086 323.626 173.752C323.257 173.716 322.91 173.928 322.677 173.525C322.339 172.944 321.986 172.372 321.64 171.797V171.797ZM325.166 173.814C324.786 173.749 324.399 173.797 324.285 173.643C323.85 173.053 323.503 172.399 323.123 171.769C323.146 171.73 323.169 171.691 323.192 171.652C323.46 171.723 323.845 171.708 323.975 171.882C324.398 172.448 324.728 173.084 325.166 173.814H325.166Z" fill="#2B1428"/>
<path d="M288.789 186.135C289.373 186.784 289.863 187.357 290.39 187.896C290.492 187.999 290.731 187.996 290.907 187.996C296.12 188.001 301.331 188.001 306.544 188.001C322.108 188.001 337.673 188.001 353.237 188.001C353.449 188.001 353.659 188.001 353.901 188.001V186.968C353.316 186.968 352.709 186.937 352.107 186.978C351.662 187.008 351.37 186.909 351.272 186.442C351.2 186.099 350.929 186.134 350.668 186.134C342.295 186.136 333.921 186.136 325.548 186.136C313.515 186.136 301.482 186.136 289.449 186.136C289.27 186.136 289.091 186.136 288.79 186.136L288.789 186.135Z" fill="#2B1428"/>
<g opacity="0.7">
<g clip-path="url(#clip1_6439_68589)">
<path d="M148.484 222.589C148.496 222.681 148.873 222.643 148.859 222.539C148.845 222.434 145.348 196.084 145.348 196.084C145.342 196.03 145.293 195.993 145.239 196.001L145.055 196.025C145.002 196.031 144.965 196.08 144.973 196.134C144.973 196.134 148.473 222.496 148.485 222.589H148.484Z" fill="#DC9F5E"/>
<path d="M158.222 199.942C158.222 199.942 153.39 196.653 145.195 196.512C145.195 196.512 139.013 198.372 134.255 202.231L134 203.846C133.998 203.857 134 203.868 134.006 203.877L134.721 204.939C134.741 204.97 134.788 204.962 134.797 204.926L135.213 203.319L135.511 205.356C135.519 205.408 135.562 205.447 135.614 205.447C136.359 205.452 141.49 205.489 142.445 205.429C142.51 205.425 142.562 205.372 142.568 205.306L142.703 203.431L143.327 205.301C143.327 205.301 152.27 204.179 152.638 203.827L152.854 201.87L153.472 203.571C153.49 203.623 153.546 203.652 153.6 203.639C154.198 203.49 157.371 202.657 158.449 201.949C158.472 201.933 158.483 201.907 158.48 201.88L158.223 199.943L158.222 199.942Z" fill="#F2F2F2"/>
<path d="M145.195 196.512C145.131 196.51 151.753 200.258 152.854 201.869C152.854 201.869 157.798 200.492 158.222 199.942C157.294 199.584 150.132 196.682 145.195 196.512Z" fill="#F75959"/>
<path d="M145.195 196.512C145.195 196.512 142.675 202.183 142.703 203.43C142.703 203.43 137.198 203.854 135.213 203.318C135.213 203.318 143.339 196.593 145.195 196.512Z" fill="#F75959"/>
<path d="M158.222 199.941L158.479 201.878C158.482 201.905 158.47 201.933 158.447 201.948C156.97 202.891 154.143 203.526 153.597 203.643C153.544 203.654 153.491 203.624 153.473 203.573L152.854 201.869C152.854 201.869 158.024 200.305 158.222 199.942V199.941Z" fill="#DB5252"/>
<path d="M142.703 203.43L142.568 205.309C142.564 205.372 142.515 205.423 142.452 205.431C138.558 205.926 136.054 205.538 135.599 205.458C135.555 205.45 135.52 205.414 135.513 205.369L135.213 203.316C135.213 203.316 137.2 203.697 142.703 203.429V203.43Z" fill="#DB5252"/>
<path d="M135.213 203.318L134.797 204.925C134.789 204.96 134.742 204.968 134.721 204.938L134.014 203.885C134.005 203.87 134 203.852 134.003 203.833L134.254 202.23C134.254 202.23 134.463 203.014 135.213 203.318Z" fill="#DBDDDD"/>
<path d="M152.854 201.867L152.638 203.824C151.708 204.404 143.424 205.587 143.327 205.298C143.23 205.009 142.703 203.428 142.703 203.428C142.703 203.428 148.793 203.273 152.854 201.867Z" fill="#DBDDDD"/>
<path d="M146.161 205.101C146.161 205.101 146.611 208.483 146.623 208.575C146.635 208.667 147.012 208.629 146.998 208.525C146.984 208.42 146.537 205.051 146.537 205.051" fill="#CC8D54"/>
<path opacity="0.13" d="M141.085 223.454C141.085 224.519 146.673 225.384 153.567 225.384C160.46 225.384 166.048 224.519 166.048 223.454C166.048 222.388 160.46 221.523 153.567 221.523C146.673 221.523 141.085 222.388 141.085 223.454Z" fill="#343031"/>
<path d="M165.838 209.677L152.707 225.595C152.707 225.595 152.643 225.766 152.781 225.864C152.92 225.962 153.09 225.84 153.247 225.679C153.403 225.519 166.031 210.081 166.132 209.975C166.233 209.869 166.262 209.695 166.136 209.604C165.977 209.488 165.839 209.677 165.839 209.677H165.838Z" fill="#C68652"/>
<path d="M158.713 209.416C158.713 209.416 147.956 220.746 146.285 222.673C146.239 222.725 146.197 222.835 146.313 222.969C146.32 222.976 146.419 223.091 146.428 223.095C146.559 223.166 146.66 222.946 146.811 222.799C146.971 222.643 158.962 209.753 159.065 209.651C159.138 209.579 159.274 209.577 159.248 209.487C159.237 209.448 159.084 209.359 159.032 209.34C158.85 209.269 158.715 209.416 158.715 209.416H158.713Z" fill="#BF804C"/>
<path d="M158.897 209.495L146.418 222.822C146.397 222.845 146.382 222.872 146.376 222.902C146.366 222.96 146.367 223.056 146.456 223.122C146.591 223.225 146.766 223.107 146.926 222.95C147.086 222.794 159.077 209.905 159.18 209.802C159.284 209.699 159.318 209.527 159.195 209.431C159.041 209.311 158.896 209.496 158.896 209.496L158.897 209.495Z" fill="#D39359"/>
<path d="M156.473 212.35C156.473 212.35 157.634 218.824 158.217 221.306C158.233 221.374 158.296 221.472 158.474 221.458C158.484 221.458 158.634 221.443 158.642 221.439C158.776 221.374 158.658 221.164 158.627 220.956C158.594 220.735 156.897 212.4 156.874 212.255C156.858 212.154 156.936 212.043 156.848 212.01C156.81 211.996 156.64 212.056 156.596 212.069C156.408 212.124 156.473 212.35 156.473 212.35Z" fill="#CE8E55"/>
<path d="M156.649 212.298L158.414 221.285C158.419 221.315 158.434 221.342 158.455 221.365C158.497 221.408 158.574 221.462 158.68 221.429C158.842 221.379 158.848 221.169 158.817 220.947C158.784 220.726 157.087 212.391 157.064 212.246C157.041 212.102 156.921 211.972 156.772 212.017C156.585 212.072 156.649 212.298 156.649 212.298Z" fill="#DC9F5E"/>
<path fill-rule="evenodd" clip-rule="evenodd" d="M156.977 212.306C156.973 212.364 156.93 212.407 156.881 212.401C156.832 212.396 156.794 212.343 156.798 212.284C156.801 212.225 156.845 212.183 156.894 212.188C156.943 212.193 156.981 212.247 156.977 212.306Z" fill="#CE8E55"/>
<path d="M159.02 209.758C158.96 209.755 158.941 210 159.009 210.003C159.077 210.006 165.62 210.266 165.62 210.266C165.655 210.267 165.684 210.241 165.685 210.206L165.69 210.087C165.692 210.052 165.665 210.022 165.631 210.021C165.631 210.021 159.08 209.76 159.02 209.758Z" fill="#DC9F5E"/>
<path d="M147.292 222.193C147.235 222.172 147.144 222.4 147.207 222.422C147.27 222.446 153.55 224.712 153.55 224.712C153.582 224.724 153.618 224.708 153.63 224.675L153.671 224.563C153.683 224.53 153.667 224.494 153.634 224.482C153.634 224.482 147.347 222.213 147.292 222.193Z" fill="#DC9F5E"/>
<path d="M147.643 219.775C147.586 219.755 147.497 219.983 147.561 220.005C147.626 220.028 153.933 222.212 153.933 222.212C153.966 222.224 154.002 222.207 154.013 222.174L154.053 222.061C154.065 222.028 154.048 221.992 154.015 221.981C154.015 221.981 147.7 219.794 147.643 219.775Z" fill="#DC9F5E"/>
<path d="M146.924 222.693C146.867 222.672 146.776 222.9 146.839 222.922C146.902 222.946 153.181 225.212 153.181 225.212C153.214 225.224 153.25 225.208 153.262 225.175L153.303 225.063C153.315 225.03 153.299 224.994 153.266 224.982C153.266 224.982 146.979 222.713 146.924 222.693Z" fill="#DC9F5E"/>
<path d="M161.062 219.505C157.856 221.315 154.166 221.428 153.489 221.564C152.738 221.721 152.688 222.809 152.694 223.194C152.694 223.261 152.631 223.307 152.568 223.287L145.99 221.178C145.99 221.178 145.859 219.292 146.295 219.257C150.671 218.906 153.526 217.585 154.745 216.787C158.76 214.158 158.877 209.863 158.877 209.863L165.176 210.133C165.176 210.133 165.198 217.169 161.063 219.505H161.062Z" fill="white"/>
<path d="M165.134 211.042L158.641 210.632C158.598 210.421 158.652 209.964 158.674 209.803C158.678 209.772 158.705 209.748 158.738 209.75L165.237 210.005C165.237 210.005 165.121 210.536 165.135 211.041L165.134 211.042Z" fill="#DBDDDD"/>
<path fill-rule="evenodd" clip-rule="evenodd" d="M147.9 219.361C147.629 219.387 145.848 219.28 146.329 221.242L145.887 221.176C145.887 221.176 144.8 219.131 147.425 218.924C153.901 218.413 157.915 215.44 158.672 209.808C158.677 209.773 158.707 209.748 158.742 209.75L159.382 209.775C158.971 211.353 158.102 218.391 147.9 219.362V219.361ZM160.968 209.844L160.275 209.821C157.662 217.179 154.773 218.633 147.311 219.635C146.554 219.737 146.648 221.386 146.648 221.386L147.348 221.609C147.494 220.088 147.634 220.016 149.099 219.824C154.862 219.068 159.661 216.953 160.967 209.844H160.968ZM162.327 209.898L161.634 209.862C160.235 217.913 155.1 219.001 148.992 220.026C147.575 220.264 147.836 221.765 147.836 221.765L148.651 222.025C148.797 221.133 148.688 220.339 150.974 220.038C157.21 219.221 161.584 217.016 162.327 209.898ZM163.812 209.947L163.119 209.901C161.717 217.311 157.842 219.338 151.938 220.106C151.293 220.189 149.904 220.52 149.551 221.194C149.329 221.619 149.29 222.229 149.29 222.229L150.25 222.536C150.25 221.6 151.205 220.587 152.758 220.414C158.59 219.762 162.436 218.504 163.812 209.948V209.947ZM165.047 209.996L164.332 209.982C162.771 217.275 160.296 220.253 153.663 220.504C151.187 220.598 150.948 222.758 150.948 222.758L151.832 223.04C151.978 221.869 152.341 221.04 154.076 221.04C159.786 221.04 164.483 218.378 165.046 209.995L165.047 209.996Z" fill="#F75959"/>
<path fill-rule="evenodd" clip-rule="evenodd" d="M158.528 210.661C158.633 210.324 158.584 210.109 158.606 209.855C158.611 209.786 158.662 209.748 158.731 209.75L159.37 209.777C159.312 209.996 159.247 210.321 159.149 210.72C158.988 210.67 158.794 210.649 158.593 210.656C158.568 210.656 158.552 210.658 158.528 210.661ZM160.592 210.726C160.659 210.726 160.72 210.734 160.775 210.751C160.846 210.458 160.91 210.155 160.968 209.844L160.275 209.821C160.166 210.128 160.056 210.425 159.946 210.711C159.944 210.717 159.943 210.721 159.94 210.727C160.158 210.731 160.375 210.728 160.592 210.727V210.726ZM164.896 211.004C164.917 211.004 164.936 211.008 164.956 211.009C164.957 210.998 164.958 210.987 164.959 210.976C164.995 210.658 165.024 210.33 165.046 209.994L164.332 209.98C164.259 210.318 164.185 210.648 164.108 210.968C164.108 210.969 164.108 210.972 164.107 210.973C164.369 210.985 164.631 210.999 164.895 211.003L164.896 211.004ZM163.592 210.959C163.605 210.959 163.618 210.959 163.631 210.959C163.632 210.952 163.633 210.945 163.635 210.939C163.698 210.619 163.757 210.288 163.813 209.945L163.119 209.899C163.054 210.242 162.984 210.573 162.909 210.893C162.909 210.898 162.907 210.901 162.906 210.905C163.13 210.886 163.375 210.923 163.592 210.957V210.959ZM162.098 210.846C162.133 210.846 162.167 210.849 162.202 210.85C162.252 210.542 162.293 210.224 162.328 209.896L161.634 209.86C161.578 210.186 161.516 210.5 161.447 210.803C161.445 210.812 161.444 210.819 161.442 210.828C161.451 210.827 161.461 210.825 161.471 210.825C161.67 210.81 161.9 210.806 162.099 210.846H162.098Z" fill="#DB5252"/>
<g opacity="0.17">
<path d="M165.104 211.379C164.578 216.337 159.37 217.73 154.911 216.513C155.987 215.782 156.767 214.79 157.328 213.851C158.375 212.097 158.649 210.381 158.605 209.839C158.618 209.791 158.704 209.749 158.737 209.75L165.236 210.005C165.236 210.005 165.146 210.872 165.104 211.379Z" fill="#2F3030"/>
</g>
<path d="M165.694 209.586C165.694 209.586 154.185 223.404 152.645 225.438C152.603 225.494 152.568 225.606 152.693 225.732C152.701 225.74 152.807 225.846 152.816 225.851C152.952 225.913 153.038 225.686 153.179 225.531C153.329 225.364 165.902 209.983 165.999 209.873C166.067 209.796 166.203 209.785 166.17 209.697C166.157 209.659 166.028 209.528 165.989 209.502C165.827 209.393 165.695 209.587 165.695 209.587L165.694 209.586Z" fill="#CE8E55"/>
<path d="M165.82 209.726L152.788 225.576C152.768 225.6 152.755 225.629 152.752 225.659C152.745 225.718 152.753 225.813 152.845 225.874C152.987 225.966 153.153 225.838 153.304 225.671C153.454 225.505 166.027 210.124 166.124 210.014C166.221 209.904 166.244 209.73 166.114 209.643C165.952 209.534 165.82 209.727 165.82 209.727V209.726Z" fill="#DC9F5E"/>
<path fill-rule="evenodd" clip-rule="evenodd" d="M166.045 209.966C166.01 210.013 165.95 210.025 165.912 209.994C165.874 209.961 165.872 209.897 165.907 209.85C165.941 209.803 166.001 209.79 166.039 209.823C166.077 209.855 166.08 209.92 166.045 209.966Z" fill="#CE8E55"/>
<path d="M164.058 212.297C164.058 212.297 165.118 219.933 165.611 222.435C165.624 222.503 165.685 222.603 165.863 222.595C165.874 222.595 166.024 222.586 166.032 222.582C166.169 222.522 166.058 222.306 166.035 222.098C166.011 221.876 164.492 212.406 164.475 212.261C164.463 212.16 164.544 212.051 164.457 212.016C164.42 212.001 164.236 212.009 164.192 212.021C164.002 212.07 164.059 212.298 164.059 212.298L164.058 212.297Z" fill="#CE8E55"/>
<path d="M164.247 212.298L165.809 222.423C165.814 222.453 165.827 222.481 165.848 222.504C165.887 222.548 165.963 222.606 166.07 222.576C166.233 222.532 166.248 222.321 166.223 222.099C166.198 221.877 164.68 212.407 164.663 212.262C164.646 212.117 164.53 211.983 164.38 212.023C164.191 212.072 164.247 212.299 164.247 212.299V212.298Z" fill="#DC9F5E"/>
<path fill-rule="evenodd" clip-rule="evenodd" d="M164.575 212.287C164.587 212.345 164.556 212.397 164.507 212.405C164.458 212.412 164.408 212.371 164.396 212.314C164.384 212.256 164.415 212.204 164.465 212.196C164.514 212.189 164.564 212.23 164.575 212.287Z" fill="#CE8E55"/>
<path d="M165.661 221.062C165.661 221.062 156.202 221.506 153.659 221.705C153.524 221.716 153.275 221.845 153.374 222.017C153.405 222.07 153.486 222.191 153.49 222.201C153.535 222.343 153.738 222.162 153.948 222.162C154.172 222.162 165.71 221.483 165.856 221.481C165.958 221.479 166.036 221.435 166.079 221.353C166.098 221.318 166.046 221.253 165.993 221.208C165.815 221.056 165.66 221.064 165.66 221.064L165.661 221.062Z" fill="#CE8E55"/>
<path d="M165.845 221.248L153.651 221.9C153.621 221.901 153.591 221.911 153.566 221.93C153.519 221.964 153.453 222.033 153.471 222.143C153.497 222.311 153.705 222.348 153.928 222.348C154.152 222.348 165.69 221.668 165.836 221.666C165.982 221.664 166.128 221.565 166.105 221.41C166.076 221.216 165.845 221.248 165.845 221.248Z" fill="#DC9F5E"/>
<path fill-rule="evenodd" clip-rule="evenodd" d="M165.789 221.37C165.833 221.33 165.894 221.33 165.924 221.368C165.956 221.407 165.946 221.47 165.903 221.511C165.859 221.551 165.799 221.552 165.768 221.513C165.736 221.474 165.746 221.411 165.789 221.371V221.37Z" fill="#CE8E55"/>
<path fill-rule="evenodd" clip-rule="evenodd" d="M156.02 221.929C156.063 221.889 156.124 221.889 156.155 221.927C156.186 221.966 156.177 222.029 156.133 222.069C156.089 222.11 156.03 222.111 155.998 222.072C155.966 222.032 155.976 221.969 156.02 221.93V221.929Z" fill="#CE8E55"/>
</g>
</g>
<g opacity="0.7" clip-path="url(#clip2_6439_68589)">
<path d="M238.582 220.14C238.582 220.14 239.731 220.718 241.765 221.492C242.211 221.661 242.698 221.841 243.225 222.025C243.481 222.114 243.747 222.206 244.022 222.298C244.095 222.322 244.168 222.345 244.242 222.371C244.727 222.53 245.24 222.692 245.779 222.855C245.903 222.892 246.028 222.929 246.155 222.966C246.217 222.985 246.281 223.003 246.346 223.022C246.665 223.115 246.993 223.207 247.33 223.299C247.464 223.336 247.6 223.373 247.737 223.409C247.754 223.414 247.771 223.418 247.788 223.423C248.183 223.527 248.588 223.63 249.003 223.731C249.08 223.75 249.158 223.768 249.236 223.787C249.484 223.847 249.736 223.905 249.991 223.963C250.113 223.991 250.237 224.018 250.36 224.046C250.753 224.132 251.153 224.217 251.561 224.298C252.096 224.406 252.643 224.508 253.203 224.602C253.338 224.625 253.471 224.648 253.607 224.67C253.619 224.672 253.631 224.675 253.643 224.677C253.778 224.699 253.915 224.72 254.051 224.742C254.291 224.78 254.533 224.817 254.776 224.852C254.888 224.868 255.001 224.885 255.114 224.9C255.575 224.964 256.043 225.024 256.518 225.079C256.685 225.098 256.853 225.116 257.02 225.134C257.754 225.211 258.503 225.276 259.265 225.327C260.478 225.407 261.724 225.45 262.998 225.449C262.998 225.449 259.221 218.97 252.605 216.998C252.258 216.895 251.903 216.805 251.54 216.728C251.538 216.728 251.537 216.728 251.536 216.726C251.514 216.721 251.493 216.717 251.471 216.713C251.424 216.703 251.376 216.694 251.329 216.685C251.196 216.66 251.062 216.634 250.925 216.613C250.729 216.58 250.531 216.552 250.33 216.528C246.972 216.133 243.026 216.97 238.581 220.143L238.582 220.14Z" fill="#CF4C51"/>
<path d="M241.765 221.493C242.21 221.662 242.698 221.841 243.225 222.026C243.481 222.115 243.747 222.206 244.022 222.298C244.094 222.323 244.168 222.346 244.241 222.371C244.726 222.531 245.24 222.693 245.779 222.855C245.902 222.893 246.028 222.93 246.155 222.967C246.217 222.986 246.281 223.004 246.346 223.023C246.665 223.115 246.993 223.208 247.33 223.3C247.464 223.337 247.599 223.373 247.737 223.409C247.754 223.414 247.771 223.419 247.788 223.424C248.182 223.528 248.588 223.631 249.003 223.732C249.079 223.751 249.158 223.769 249.236 223.788C249.484 223.847 249.736 223.906 249.991 223.963C250.113 223.992 250.236 224.018 250.359 224.047C250.753 224.133 251.152 224.218 251.561 224.298C252.095 224.406 252.643 224.507 253.203 224.603C253.337 224.625 253.471 224.648 253.606 224.671C253.619 224.673 253.63 224.676 253.643 224.677C253.778 224.699 253.915 224.721 254.051 224.743C254.291 224.78 254.533 224.817 254.775 224.852C254.888 224.868 255.001 224.885 255.113 224.901C255.574 224.965 256.043 225.024 256.517 225.079C256.684 225.098 256.852 225.116 257.019 225.134C257.753 225.212 258.502 225.277 259.264 225.327C258.476 222.813 255.438 218.558 252.485 217.097C252.167 216.939 251.852 216.815 251.539 216.728C251.537 216.728 251.536 216.728 251.534 216.726C251.511 216.72 251.489 216.713 251.465 216.709C251.423 216.696 251.379 216.686 251.335 216.677C251.199 216.647 251.061 216.625 250.923 216.612C250.752 216.595 250.573 216.589 250.387 216.597C247.723 216.684 243.796 219.105 241.764 221.494L241.765 221.493Z" fill="white"/>
<path d="M247.788 223.423C248.182 223.527 248.588 223.63 249.003 223.732C249.079 223.751 249.158 223.769 249.236 223.787C249.484 223.847 249.736 223.906 249.991 223.963C250.113 223.992 250.236 224.018 250.359 224.047C250.753 224.133 251.152 224.218 251.561 224.298C252.095 224.406 252.643 224.507 253.203 224.603C253.337 224.625 253.471 224.648 253.606 224.671C253.619 224.673 253.63 224.675 253.643 224.677C253.778 224.699 253.915 224.721 254.051 224.743C253.964 222.638 253.511 219.279 251.9 217.205C251.764 217.031 251.622 216.865 251.47 216.712C251.47 216.711 251.468 216.71 251.466 216.709C251.442 216.684 251.417 216.658 251.391 216.633C251.391 216.633 251.372 216.647 251.337 216.677C251.337 216.677 251.332 216.682 251.33 216.684C251.266 216.739 251.157 216.841 251.011 217.001C250.369 217.702 249.021 219.524 247.789 223.423H247.788Z" fill="#CF4C51"/>
<path d="M251.726 216.764L251.924 215.149C251.932 215.081 251.887 215.018 251.82 215.003C251.752 214.988 251.683 215.027 251.662 215.092L251.156 216.637C251.156 216.637 251.421 216.81 251.726 216.765V216.764Z" fill="#FF9E2F"/>
<path d="M250.331 216.523C250.348 216.547 250.367 216.57 250.389 216.592C250.529 216.743 250.746 216.887 251.011 216.997C251.092 217.031 251.178 217.063 251.268 217.09C251.491 217.158 251.707 217.193 251.901 217.201C252.143 217.208 252.349 217.171 252.487 217.093C252.536 217.064 252.576 217.032 252.607 216.994C252.26 216.891 251.905 216.801 251.542 216.724C251.54 216.724 251.539 216.724 251.537 216.722C251.515 216.716 251.493 216.71 251.469 216.705C251.444 216.679 251.419 216.654 251.393 216.628C251.393 216.628 251.374 216.643 251.339 216.673C251.203 216.643 251.065 216.621 250.928 216.608C250.732 216.575 250.533 216.547 250.333 216.523H250.331Z" fill="#FF9E2F"/>
<mask id="mask1_6439_68589" style="mask-type:luminance" maskUnits="userSpaceOnUse" x="238" y="216" width="25" height="10">
<path d="M262.999 225.445C262.999 225.445 258.945 218.033 251.336 216.674C243.843 215.337 238.901 220.104 238.901 220.104C238.901 220.104 249.916 225.578 263 225.445H262.999Z" fill="white"/>
</mask>
<g mask="url(#mask1_6439_68589)">
<path d="M254.918 217.501C254.806 217.928 250.803 219.306 247.486 215.527" stroke="#3B282E" stroke-width="0.58" stroke-miterlimit="10" stroke-linecap="round"/>
</g>
<path d="M238.582 220.141C242.675 221.958 246.373 223.175 249.584 223.986C249.709 224.018 249.834 224.048 249.958 224.079C258.106 226.081 263 225.447 263 225.447C258.326 224.021 254.033 222.954 250.395 222.166C250.268 222.139 250.142 222.111 250.017 222.085C243.054 220.595 238.582 220.142 238.582 220.142V220.141Z" fill="#BB3339"/>
<path d="M246.124 239.762C246.14 239.77 246.156 239.778 246.174 239.78C246.278 239.804 246.382 239.74 246.405 239.636L249.957 224.076L250.394 222.163C250.267 222.136 250.141 222.109 250.016 222.082L249.582 223.984L246.028 239.552C246.009 239.637 246.049 239.722 246.123 239.762H246.124Z" fill="#FF9E2F"/>
<path d="M225.366 239.008L222.184 242.998L257.092 242.982L258.815 239.505L225.366 239.008Z" fill="#FEB98F"/>
<path d="M223.354 238.727C223.354 238.727 251.501 239.225 260.942 239.46" stroke="#3B282E" stroke-width="0.94" stroke-miterlimit="10" stroke-linecap="round"/>
<path d="M221.876 239.882C221.876 239.882 253.639 239.62 260.673 240.467" stroke="#3B282E" stroke-width="0.94" stroke-miterlimit="10" stroke-linecap="round"/>
<path d="M220.96 241.206C220.96 241.206 253.277 240.711 260.31 241.559" stroke="#3B282E" stroke-width="0.94" stroke-miterlimit="10" stroke-linecap="round"/>
<path d="M220.045 242.676C220.045 242.676 252.732 241.991 259.765 242.837" stroke="#3B282E" stroke-width="0.94" stroke-miterlimit="10" stroke-linecap="round"/>
<path d="M225.366 238.684L222.184 242.673L257.092 242.657L258.815 239.18L225.366 238.684Z" fill="#CF4C51"/>
<path d="M241.811 236.68C241.811 236.889 240.579 237.059 239.058 237.059C237.538 237.059 236.306 236.89 236.306 236.68C236.306 236.47 237.538 236.301 239.058 236.301C240.579 236.301 241.811 236.47 241.811 236.68Z" fill="#FEB98F"/>
<path d="M240.606 236.275C240.266 236.429 239.889 236.515 239.491 236.515C238.336 236.515 237.352 235.79 236.976 234.774C237.371 233.661 238.728 232.863 238.728 232.863C238.728 232.863 238.837 235.128 240.605 236.275H240.606Z" fill="#FF797A"/>
<path d="M238.729 232.863C238.055 232.654 237.486 232.683 237.033 232.811C237.428 231.903 238.32 231.258 239.37 231.211C238.699 231.829 238.73 232.863 238.73 232.863H238.729Z" fill="#6169D8"/>
<path d="M238.729 232.863C238.729 232.863 237.372 233.66 236.977 234.774C236.872 234.49 236.814 234.182 236.814 233.862C236.814 233.488 236.892 233.133 237.033 232.811C237.485 232.684 238.056 232.654 238.729 232.863Z" fill="#CF4C51"/>
<path d="M242.17 233.858C242.17 233.981 242.162 234.103 242.145 234.221C241.425 234.07 240.278 233.71 238.729 232.86C239.724 232.195 240.791 232.106 241.553 232.163C241.939 232.622 242.171 233.213 242.171 233.858H242.17Z" fill="#FFB03A"/>
<path d="M238.729 232.862C238.729 232.862 238.699 231.828 239.369 231.21C239.41 231.208 239.451 231.207 239.492 231.207C240.321 231.207 241.061 231.58 241.552 232.165C240.79 232.108 239.723 232.196 238.729 232.862H238.729Z" fill="#CF4C51"/>
<path d="M242.145 234.225C242.019 235.138 241.424 235.904 240.607 236.275C238.838 235.128 238.729 232.863 238.729 232.863C240.278 233.713 241.425 234.074 242.145 234.225Z" fill="#CF4C51"/>
<path d="M241.552 232.165C240.79 232.108 239.723 232.196 238.729 232.862C238.729 232.862 238.698 231.828 239.368 231.21C239.409 231.208 239.45 231.207 239.491 231.207C240.32 231.207 241.06 231.58 241.551 232.165H241.552Z" fill="white"/>
<path d="M238.729 232.863C238.729 232.863 237.372 233.66 236.977 234.774C236.872 234.49 236.814 234.182 236.814 233.862C236.814 233.488 236.892 233.133 237.033 232.811C237.485 232.684 238.056 232.654 238.729 232.863Z" fill="white"/>
<path d="M242.145 234.225C242.019 235.138 241.424 235.904 240.607 236.275C238.838 235.128 238.729 232.863 238.729 232.863C240.278 233.713 241.425 234.074 242.145 234.225Z" fill="white"/>
<path d="M239.048 232.64C239.165 232.757 239.133 232.977 238.976 233.132C238.82 233.287 238.597 233.319 238.48 233.203C238.362 233.087 238.395 232.866 238.551 232.711C238.708 232.556 238.93 232.524 239.048 232.64Z" fill="white"/>
<path d="M238.943 232.74C239.024 232.821 239.002 232.974 238.893 233.082C238.785 233.189 238.63 233.212 238.549 233.131C238.468 233.05 238.49 232.897 238.599 232.789C238.707 232.682 238.862 232.659 238.943 232.74Z" stroke="#FCF4E9" stroke-width="0.71" stroke-miterlimit="10" stroke-linecap="round"/>
<path d="M237.271 238.308C237.242 238.468 237.204 238.622 237.157 238.772C237.011 239.237 236.78 239.659 236.484 240.022C236.315 240.229 236.126 240.416 235.92 240.583C235.431 240.976 234.846 241.249 234.216 241.366C233.92 241.422 233.613 241.442 233.302 241.424C233.15 241.416 232.999 241.399 232.846 241.372C232.364 241.287 231.919 241.115 231.525 240.878C231.28 240.729 231.053 240.555 230.851 240.359C230.507 240.027 230.228 239.632 230.03 239.197C229.93 238.978 229.852 238.749 229.796 238.513C229.681 238.027 229.661 237.511 229.754 236.988C229.763 236.94 229.772 236.893 229.783 236.848L237.293 238.166C237.288 238.212 237.28 238.259 237.272 238.307L237.271 238.308Z" fill="#6CAD52"/>
<path d="M230.898 237.988L230.991 238.3L230.03 239.195C229.93 238.976 229.851 238.748 229.796 238.511L230.898 237.988Z" fill="#479C26"/>
<path d="M231.819 239.27L232.269 239.496L231.524 240.877C231.279 240.729 231.053 240.554 230.851 240.358L231.819 239.27Z" fill="#479C26"/>
<path d="M233.888 239.741L234.217 241.367C233.92 241.422 233.614 241.443 233.303 241.425L233.398 239.738L233.889 239.74L233.888 239.741Z" fill="#479C26"/>
<path d="M235.494 238.98L236.484 240.021C236.315 240.228 236.126 240.415 235.92 240.581L234.995 239.384L235.494 238.981V238.98Z" fill="#479C26"/>
<path d="M237.271 238.306C237.242 238.466 237.204 238.62 237.157 238.77L236.345 238.395L236.491 238.023L237.292 238.164C237.287 238.211 237.279 238.258 237.271 238.305V238.306Z" fill="#479C26"/>
<path d="M236.953 238.108C236.554 239.865 234.824 241.018 233.016 240.701C231.207 240.383 229.984 238.712 230.218 236.926L236.953 238.108Z" fill="#FFB03A"/>
<path d="M236.799 238.08C236.333 239.679 234.746 240.708 233.094 240.418C231.442 240.128 230.31 238.621 230.427 236.961L236.8 238.08H236.799Z" fill="#FF797A"/>
<path d="M233.279 238.775C233.242 238.835 233.182 238.867 233.145 238.844C233.108 238.821 233.107 238.754 233.143 238.694C233.18 238.633 233.24 238.602 233.277 238.625C233.315 238.647 233.316 238.714 233.279 238.775Z" fill="#3B282E"/>
<path d="M235.519 238.835C235.546 238.9 235.534 238.966 235.494 238.983C235.453 238.999 235.399 238.959 235.372 238.894C235.345 238.829 235.357 238.763 235.397 238.746C235.438 238.73 235.492 238.769 235.519 238.835Z" fill="#3B282E"/>
<path d="M234.38 239.856C234.382 239.927 234.349 239.985 234.305 239.987C234.261 239.988 234.224 239.932 234.222 239.861C234.22 239.79 234.253 239.732 234.297 239.73C234.341 239.73 234.378 239.785 234.38 239.856Z" fill="#3B282E"/>
<path d="M234.48 238.302C234.489 238.372 234.46 238.434 234.416 238.438C234.372 238.443 234.33 238.391 234.323 238.32C234.314 238.25 234.343 238.189 234.387 238.184C234.431 238.179 234.473 238.231 234.48 238.302Z" fill="#3B282E"/>
<path d="M231.591 239.107C231.542 239.159 231.477 239.177 231.445 239.148C231.412 239.118 231.425 239.052 231.473 239C231.522 238.948 231.587 238.93 231.619 238.959C231.652 238.989 231.638 239.055 231.591 239.107Z" fill="#3B282E"/>
<path d="M230.884 237.723C230.82 237.756 230.752 237.749 230.733 237.71C230.713 237.671 230.749 237.614 230.813 237.583C230.877 237.551 230.945 237.557 230.964 237.596C230.983 237.635 230.948 237.692 230.884 237.723Z" fill="#3B282E"/>
<path d="M232.259 238.006C232.209 238.056 232.144 238.073 232.112 238.042C232.081 238.012 232.096 237.946 232.146 237.895C232.195 237.845 232.261 237.828 232.293 237.859C232.324 237.89 232.309 237.956 232.259 238.006Z" fill="#3B282E"/>
<path d="M232.936 239.907C232.918 239.975 232.868 240.022 232.826 240.01C232.784 239.999 232.764 239.935 232.782 239.867C232.8 239.798 232.85 239.752 232.892 239.763C232.934 239.775 232.954 239.839 232.936 239.907Z" fill="#3B282E"/>
</g>
<path d="M349.071 215.249C349.217 215.034 349.432 215.011 349.625 214.975C350.099 214.889 350.577 214.824 351.055 214.76C351.125 214.751 351.203 214.794 351.262 214.809C351.329 214.767 351.388 214.701 351.454 214.693C353.038 214.517 354.623 214.335 356.211 214.187C356.596 214.151 356.994 214.22 357.383 214.267C357.646 214.298 357.842 214.458 357.902 214.722C357.958 214.964 358 215.215 358 215.461C358 215.654 357.861 215.787 357.678 215.879C355.995 216.732 354.246 217.425 352.466 218.043C350.174 218.839 347.839 219.488 345.468 220.005C343.83 220.363 342.18 220.665 340.508 220.812C337.989 221.033 335.465 221.073 332.941 220.858C332.328 220.805 331.72 220.71 331.145 220.464C330.928 220.372 330.688 220.333 330.472 220.24C330.329 220.178 330.199 220.075 330.083 219.969C329.941 219.84 329.994 219.7 330.14 219.624C330.654 219.355 331.162 219.071 331.695 218.851C332.104 218.683 332.545 218.593 332.976 218.484C335.269 217.907 337.567 217.356 339.898 216.955C340.739 216.81 341.581 216.673 342.423 216.538C342.599 216.51 342.661 216.46 342.629 216.25C342.36 214.487 342.11 212.721 341.851 210.956C341.656 209.618 341.46 208.28 341.252 206.945C341.234 206.825 341.148 206.701 341.062 206.611C340.868 206.41 340.778 206.202 340.905 205.93C341.1 205.509 340.921 205.094 340.854 204.686C340.551 202.869 340.228 201.055 339.918 199.239C339.881 199.019 339.804 198.848 339.588 198.749C339.387 198.658 339.458 198.473 339.512 198.344C339.658 197.988 340.055 197.869 340.325 198.142C340.689 198.511 341.115 198.568 341.593 198.601C342.086 198.634 342.575 198.743 343.064 198.834C343.218 198.862 343.287 198.84 343.335 198.677C343.47 198.213 343.801 197.98 344.273 197.908C344.467 197.879 344.669 197.827 344.839 197.734C345.213 197.531 345.286 197.076 345.02 196.75C344.866 196.561 344.749 196.36 344.754 196.106C344.755 196.076 344.752 196.043 344.738 196.019C344.389 195.398 344.638 194.841 344.965 194.327C345.283 193.826 346.174 193.922 346.532 194.468C346.599 194.571 346.648 194.693 346.678 194.813C346.734 195.039 346.796 195.269 346.806 195.499C346.812 195.652 346.748 195.815 346.685 195.961C346.576 196.215 346.421 196.45 346.328 196.709C346.196 197.076 346.492 197.464 346.881 197.469C347.022 197.471 347.165 197.458 347.303 197.478C347.7 197.534 347.89 197.756 347.92 198.171C347.962 198.765 347.864 199.344 347.714 199.913C347.535 200.595 347.332 201.27 347.15 201.951C347.032 202.395 347.156 202.819 347.29 203.24C347.435 203.698 347.584 204.155 347.711 204.619C347.842 205.097 347.972 205.578 348.06 206.066C348.21 206.887 348.085 207.711 348.033 208.535C347.988 209.236 348.004 209.942 348.009 210.647C348.01 210.754 348.071 210.883 348.145 210.964C348.489 211.335 348.671 211.787 348.712 212.271C348.776 213.017 348.761 213.769 348.808 214.517C348.823 214.764 348.815 215.049 349.069 215.249L349.071 215.249ZM343.963 201.105C343.938 201.114 343.913 201.123 343.888 201.131C343.878 201.158 343.866 201.184 343.857 201.21C343.71 201.677 343.58 202.151 343.412 202.61C343.104 203.45 342.583 204.166 342.057 204.879C341.957 205.015 341.851 205.158 341.8 205.316C341.704 205.617 341.641 205.929 341.577 206.239C341.548 206.378 341.52 206.527 341.541 206.664C341.685 207.604 341.841 208.542 341.996 209.48C342.332 211.51 342.668 213.541 343.006 215.57C343.036 215.745 343.073 215.921 343.133 216.087C343.151 216.138 343.296 216.202 343.32 216.183C343.658 215.91 343.999 215.63 343.919 215.12C343.85 214.68 343.776 214.241 343.703 213.802C343.589 213.126 343.485 212.448 343.566 211.761C343.627 211.241 343.782 210.727 343.651 210.196C343.643 210.162 343.644 210.12 343.654 210.086C343.769 209.657 343.646 209.243 343.571 208.829C343.427 208.025 343.416 207.219 343.493 206.407C343.582 205.483 343.65 204.557 343.739 203.632C343.769 203.33 343.796 203.016 343.899 202.735C344.069 202.274 344.086 201.806 344.07 201.33C344.067 201.254 343.999 201.18 343.961 201.105H343.963ZM346.265 208.626C346.265 208.44 346.293 208.249 346.259 208.069C346.154 207.517 346.027 206.968 345.903 206.419C345.894 206.378 345.845 206.345 345.815 206.308C345.778 206.346 345.729 206.379 345.706 206.425C345.688 206.461 345.706 206.512 345.7 206.556C345.648 206.944 345.618 207.337 345.535 207.718C345.403 208.318 345.215 208.907 345.091 209.509C345.029 209.811 345.101 210.141 345.034 210.441C344.912 210.978 344.812 211.494 344.915 212.06C345.06 212.852 344.879 213.639 344.755 214.427C344.684 214.874 344.741 215.342 344.753 215.8C344.758 215.997 344.866 216.064 345.065 216.005C345.264 215.947 345.47 215.913 345.673 215.871C346.348 215.729 347.023 215.591 347.697 215.442C347.767 215.427 347.872 215.353 347.877 215.298C347.92 214.911 347.95 214.534 347.831 214.14C347.61 213.402 347.45 212.647 347.263 211.899C347.249 211.842 347.221 211.789 347.203 211.733C347.04 211.235 346.721 210.814 346.559 210.303C346.384 209.747 346.28 209.2 346.265 208.626ZM341.332 205.111C341.392 205.001 341.43 204.948 341.452 204.888C341.721 204.165 341.981 203.439 342.258 202.719C342.441 202.245 342.655 201.784 342.841 201.311C342.99 200.931 343.118 200.543 343.253 200.158C343.3 200.024 343.34 199.902 343.125 199.866C342.438 199.751 341.809 199.47 341.178 199.189C340.951 199.087 340.706 199.022 340.466 198.953C340.293 198.902 340.214 198.971 340.248 199.16C340.304 199.459 340.347 199.761 340.402 200.06C340.553 200.869 340.714 201.676 340.86 202.486C341.001 203.267 341.128 204.051 341.263 204.833C341.276 204.908 341.3 204.981 341.332 205.11L341.332 205.111Z" fill="#2B1428"/>
<g opacity="0.7">
<g style="mix-blend-mode:multiply" opacity="0.5">
<path d="M107.587 225.412C105.48 225.753 104.182 226.186 102.098 226.662C101.791 226.732 101.479 226.806 101.206 226.967C100.852 227.177 100.588 227.521 100.394 227.893C99.5465 229.518 100.117 231.776 101.623 232.763C102.113 233.085 102.67 233.276 103.222 233.465C105.305 234.177 107.481 234.9 109.651 234.57C110.006 234.516 110.356 234.435 110.711 234.384C111.685 234.247 112.691 234.347 113.643 234.094C115.294 233.655 116.603 232.074 116.771 230.315C116.802 229.989 116.796 229.65 116.669 229.35C116.549 229.065 116.332 228.839 116.119 228.62C114.895 227.358 113.586 226.045 111.912 225.61C111.542 225.514 111.162 225.463 110.783 225.426C109.721 225.322 108.65 225.317 107.588 225.411L107.587 225.412Z" fill="#F9C478"/>
</g>
<path d="M111.84 230.133C112.029 230.236 114.096 231.424 112.981 233.197C111.912 233.47 110.726 233.621 109.477 233.621C108.098 233.621 106.794 233.436 105.641 233.107C105.559 230.388 107.834 230.284 107.834 230.284V230.281C108.337 230.361 108.893 230.406 109.477 230.406C110.356 230.406 111.171 230.305 111.84 230.133Z" fill="#F86A84"/>
<path d="M116.062 231.864C115.235 232.433 114.183 232.891 112.981 233.198C114.097 231.425 112.03 230.237 111.841 230.134C112.146 230.056 112.421 229.963 112.658 229.858C112.658 229.858 115.744 229.453 116.062 231.864H116.062Z" fill="white"/>
<path d="M107.835 230.283V230.286C107.835 230.286 105.56 230.39 105.641 233.109C104.303 232.727 103.167 232.152 102.349 231.448C102.943 228.924 105.886 229.675 105.886 229.675L105.901 229.651C106.342 229.93 107.021 230.154 107.835 230.283Z" fill="white"/>
<path d="M112.657 229.857C113.25 229.596 113.606 229.259 113.606 228.892C113.606 228.694 113.503 228.505 113.314 228.333C113.314 228.333 113.227 225.529 115.238 225.266C116.936 226.145 118 227.408 118 228.81C118 229.97 117.272 231.034 116.062 231.864C115.744 229.453 112.658 229.858 112.658 229.858L112.657 229.857Z" fill="#F86A84"/>
<path d="M115.238 225.266C113.228 225.529 113.314 228.334 113.314 228.334C112.891 227.944 112.04 227.634 110.975 227.482C110.257 225.212 112.295 224.305 112.35 224.281C113.431 224.499 114.41 224.837 115.238 225.266Z" fill="white"/>
<path d="M106.588 224.285C106.588 224.285 108.691 225.186 107.963 227.486C106.905 227.638 106.061 227.947 105.64 228.335C105.64 228.335 105.726 225.53 103.716 225.267C104.54 224.84 105.514 224.503 106.588 224.285Z" fill="white"/>
<path d="M112.35 224.281C112.295 224.305 110.258 225.212 110.976 227.482C110.511 227.416 110.006 227.379 109.478 227.379C108.949 227.379 108.433 227.416 107.963 227.485C108.691 225.185 106.589 224.284 106.589 224.284C107.491 224.1 108.464 224 109.478 224C110.492 224 111.453 224.099 112.35 224.281Z" fill="#F86A84"/>
<path d="M105.901 229.649L105.886 229.673C105.886 229.673 102.943 228.922 102.349 231.446C101.469 230.69 100.956 229.784 100.956 228.81C100.956 227.408 102.019 226.145 103.716 225.266C105.727 225.529 105.64 228.334 105.64 228.334C105.453 228.506 105.349 228.694 105.349 228.892C105.349 229.168 105.55 229.426 105.901 229.649Z" fill="#F86A84"/>
<g style="mix-blend-mode:multiply" opacity="0.5">
<path d="M117.792 227.751C117.788 228.946 116.992 230.035 115.687 230.862C115.011 231.29 114.199 231.647 113.289 231.913C112.147 232.245 110.851 232.433 109.477 232.433C108.104 232.433 106.893 232.258 105.779 231.945C104.581 231.608 103.547 231.113 102.764 230.508C101.761 229.734 101.168 228.781 101.164 227.75C101.028 228.091 100.956 228.445 100.956 228.809C100.956 229.783 101.469 230.689 102.349 231.445C103.167 232.149 104.303 232.724 105.641 233.106C106.794 233.435 108.098 233.62 109.477 233.62C110.726 233.62 111.913 233.469 112.981 233.196C114.182 232.889 115.235 232.431 116.062 231.863C117.272 231.033 118 229.969 118 228.809C118 228.445 117.927 228.091 117.792 227.75V227.751Z" fill="#F86A84"/>
</g>
<g style="mix-blend-mode:multiply" opacity="0.5">
<path d="M113.561 226.783C112.937 226.35 112.01 226.02 110.924 225.863C109.166 225.677 108.029 225.919 108.029 225.919C107.034 226.092 105.948 226.398 105.393 226.785C104.861 227.156 104.549 227.603 104.549 228.085C104.549 228.7 105.057 229.259 105.886 229.675L105.9 229.651C105.55 229.428 105.349 229.17 105.349 228.894C105.349 228.696 105.453 228.508 105.64 228.336C106.061 227.948 106.905 227.639 107.963 227.486C108.432 227.418 108.942 227.381 109.477 227.381C110.012 227.381 110.511 227.417 110.975 227.483C112.04 227.635 112.891 227.945 113.313 228.335C113.502 228.507 113.606 228.696 113.606 228.894C113.606 229.261 113.25 229.598 112.657 229.859C113.726 229.433 114.405 228.796 114.405 228.085C114.405 227.603 114.093 227.156 113.56 226.784L113.561 226.783Z" fill="#F86A84"/>
</g>
</g>
<path d="M337.663 120.586C336.49 119.891 334.488 119.361 332.318 121.631C332.187 121.769 331.974 121.776 331.832 121.649C331.078 120.978 328.721 119.182 326.241 120.436C325.924 120.597 326.013 121.071 326.368 121.101C327.855 121.22 330.499 121.758 331.795 123.967C331.93 124.195 332.251 124.206 332.396 123.986C333.031 123.008 334.645 121.078 337.469 121.235C337.835 121.254 337.98 120.769 337.663 120.582V120.586Z" fill="url(#paint6_linear_6439_68589)"/>
<path d="M309.717 127.214C308.783 126.661 307.192 126.239 305.463 128.046C305.358 128.154 305.19 128.162 305.078 128.061C304.477 127.527 302.602 126.098 300.629 127.098C300.379 127.225 300.446 127.602 300.73 127.624C301.914 127.721 304.017 128.147 305.048 129.904C305.156 130.087 305.41 130.095 305.526 129.919C306.03 129.139 307.315 127.605 309.56 127.729C309.851 127.744 309.967 127.359 309.717 127.21V127.214Z" fill="url(#paint7_linear_6439_68589)"/>
<path d="M317.718 112.553C316.634 111.911 314.782 111.419 312.772 113.52C312.653 113.647 312.455 113.654 312.324 113.539C311.626 112.915 309.444 111.258 307.155 112.419C306.863 112.568 306.946 113.005 307.27 113.031C308.645 113.143 311.092 113.636 312.29 115.685C312.414 115.897 312.713 115.908 312.847 115.699C313.433 114.793 314.927 113.012 317.538 113.154C317.878 113.173 318.013 112.725 317.718 112.553Z" fill="url(#paint8_linear_6439_68589)"/>
<path d="M245.403 140.21C243.378 139.016 239.918 138.094 236.171 142.016C235.946 142.248 235.574 142.272 235.334 142.055C234.03 140.892 229.958 137.791 225.675 139.962C225.132 140.241 225.28 141.055 225.893 141.109C228.46 141.318 233.03 142.241 235.271 146.062C235.504 146.458 236.063 146.481 236.311 146.093C237.405 144.403 240.198 141.07 245.069 141.342C245.705 141.38 245.954 140.535 245.403 140.218V140.21Z" fill="url(#paint9_linear_6439_68589)"/>
<path d="M212.96 150.079C211.347 149.125 208.601 148.397 205.614 151.513C205.435 151.699 205.141 151.714 204.947 151.544C203.907 150.621 200.665 148.149 197.267 149.877C196.832 150.094 196.956 150.745 197.437 150.792C199.478 150.955 203.116 151.691 204.9 154.737C205.086 155.055 205.529 155.071 205.73 154.761C206.599 153.412 208.826 150.769 212.704 150.978C213.209 151.009 213.41 150.342 212.976 150.079H212.96Z" fill="url(#paint10_linear_6439_68589)"/>
<path d="M220.446 127.172C218.569 126.064 215.373 125.219 211.905 128.839C211.696 129.056 211.354 129.071 211.129 128.87C209.919 127.792 206.157 124.924 202.2 126.932C201.696 127.188 201.836 127.948 202.402 127.994C204.776 128.188 209.004 129.04 211.075 132.575C211.292 132.94 211.804 132.963 212.037 132.606C213.053 131.04 215.636 127.963 220.144 128.211C220.733 128.242 220.958 127.467 220.454 127.172H220.446Z" fill="url(#paint11_linear_6439_68589)"/>
</g>
<defs>
<linearGradient id="paint0_linear_6439_68589" x1="328.5" y1="265.326" x2="328.5" y2="188" gradientUnits="userSpaceOnUse">
<stop offset="0.51" stop-color="#E75352"/>
<stop offset="0.6" stop-color="#E75352"/>
<stop offset="1" stop-color="#EA6E64"/>
</linearGradient>
<linearGradient id="paint1_linear_6439_68589" x1="368.485" y1="254.356" x2="390.105" y2="177.816" gradientUnits="userSpaceOnUse">
<stop offset="0.62" stop-color="#E5464B"/>
<stop offset="0.63" stop-color="#E5464B"/>
<stop offset="1" stop-color="#EA6E64"/>
</linearGradient>
<linearGradient id="paint2_linear_6439_68589" x1="29.1969" y1="82.4422" x2="55.5339" y2="82.4422" gradientUnits="userSpaceOnUse">
<stop stop-color="#F06292"/>
<stop offset="0.99" stop-color="#FED835"/>
</linearGradient>
<linearGradient id="paint3_linear_6439_68589" x1="48.7715" y1="40.3676" x2="236.777" y2="40.3676" gradientUnits="userSpaceOnUse">
<stop stop-color="#F3DC52"/>
<stop offset="0.16" stop-color="#F3DC51" stop-opacity="0.5625"/>
<stop offset="0.32" stop-color="#F3DC51" stop-opacity="0.2704"/>
<stop offset="0.48" stop-color="#F3DC51" stop-opacity="0.1089"/>
<stop offset="0.63" stop-color="#F3DC51" stop-opacity="0.0361"/>
<stop offset="0.77" stop-color="#F3DC51" stop-opacity="0.01"/>
<stop offset="0.89" stop-color="#F3DC51" stop-opacity="0.01"/>
<stop offset="0.99" stop-color="#F3DC51" stop-opacity="0"/>
</linearGradient>
<linearGradient id="paint4_linear_6439_68589" x1="37.7142" y1="47.3906" x2="-151" y2="47.3906" gradientUnits="userSpaceOnUse">
<stop stop-color="#F3DC52"/>
<stop offset="0.16" stop-color="#F3DC51" stop-opacity="0.5625"/>
<stop offset="0.32" stop-color="#F3DC51" stop-opacity="0.2704"/>
<stop offset="0.48" stop-color="#F3DC51" stop-opacity="0.1089"/>
<stop offset="0.63" stop-color="#F3DC51" stop-opacity="0.0361"/>
<stop offset="0.77" stop-color="#F3DC51" stop-opacity="0.01"/>
<stop offset="0.89" stop-color="#F3DC51" stop-opacity="0.01"/>
<stop offset="0.99" stop-color="#F3DC51" stop-opacity="0"/>
</linearGradient>
<linearGradient id="paint5_linear_6439_68589" x1="46.4531" y1="44.4875" x2="40.084" y2="44.4875" gradientUnits="userSpaceOnUse">
<stop stop-color="#F3DC51"/>
<stop offset="0.08" stop-color="#F3DC51" stop-opacity="0.8464"/>
<stop offset="0.29" stop-color="#F3DC51" stop-opacity="0.5329"/>
<stop offset="0.5" stop-color="#F3DC51" stop-opacity="0.3481"/>
<stop offset="0.68" stop-color="#F3DC51" stop-opacity="0.2304"/>
<stop offset="0.86" stop-color="#F3DC51" stop-opacity="0.1764"/>
<stop offset="0.99" stop-color="#F3DC52" stop-opacity="0.4"/>
</linearGradient>
<linearGradient id="paint6_linear_6439_68589" x1="329.881" y1="117.012" x2="332.587" y2="122.034" gradientUnits="userSpaceOnUse">
<stop stop-color="#7A2E3A"/>
<stop offset="0.15" stop-color="#602534"/>
<stop offset="0.33" stop-color="#491D2E"/>
<stop offset="0.52" stop-color="#38182B"/>
<stop offset="0.74" stop-color="#2E1528"/>
<stop offset="1" stop-color="#2B1428"/>
</linearGradient>
<linearGradient id="paint7_linear_6439_68589" x1="303.523" y1="124.369" x2="305.679" y2="128.367" gradientUnits="userSpaceOnUse">
<stop stop-color="#7A2E3A"/>
<stop offset="0.15" stop-color="#602534"/>
<stop offset="0.33" stop-color="#491D2E"/>
<stop offset="0.52" stop-color="#38182B"/>
<stop offset="0.74" stop-color="#2E1528"/>
<stop offset="1" stop-color="#2B1428"/>
</linearGradient>
<linearGradient id="paint8_linear_6439_68589" x1="310.515" y1="109.248" x2="313.02" y2="113.893" gradientUnits="userSpaceOnUse">
<stop stop-color="#7A2E3A"/>
<stop offset="0.15" stop-color="#602534"/>
<stop offset="0.33" stop-color="#491D2E"/>
<stop offset="0.52" stop-color="#38182B"/>
<stop offset="0.74" stop-color="#2E1528"/>
<stop offset="1" stop-color="#2B1428"/>
</linearGradient>
<linearGradient id="paint9_linear_6439_68589" x1="231.952" y1="134.031" x2="236.632" y2="142.711" gradientUnits="userSpaceOnUse">
<stop stop-color="#7A2E3A"/>
<stop offset="0.15" stop-color="#602534"/>
<stop offset="0.33" stop-color="#491D2E"/>
<stop offset="0.52" stop-color="#38182B"/>
<stop offset="0.74" stop-color="#2E1528"/>
<stop offset="1" stop-color="#2B1428"/>
</linearGradient>
<linearGradient id="paint10_linear_6439_68589" x1="202.258" y1="145.164" x2="205.973" y2="152.072" gradientUnits="userSpaceOnUse">
<stop stop-color="#7A2E3A"/>
<stop offset="0.15" stop-color="#602534"/>
<stop offset="0.33" stop-color="#491D2E"/>
<stop offset="0.52" stop-color="#38182B"/>
<stop offset="0.74" stop-color="#2E1528"/>
<stop offset="1" stop-color="#2B1428"/>
</linearGradient>
<linearGradient id="paint11_linear_6439_68589" x1="208.001" y1="121.459" x2="212.327" y2="129.487" gradientUnits="userSpaceOnUse">
<stop stop-color="#7A2E3A"/>
<stop offset="0.15" stop-color="#602534"/>
<stop offset="0.33" stop-color="#491D2E"/>
<stop offset="0.52" stop-color="#38182B"/>
<stop offset="0.74" stop-color="#2E1528"/>
<stop offset="1" stop-color="#2B1428"/>
</linearGradient>
<clipPath id="clip0_6439_68589">
<rect width="375" height="266" fill="white"/>
</clipPath>
<clipPath id="clip1_6439_68589">
<rect width="32.2336" height="29.9049" fill="white" transform="translate(134 196)"/>
</clipPath>
<clipPath id="clip2_6439_68589">
<rect width="43" height="28" fill="white" transform="translate(220 215)"/>
</clipPath>
</defs>
</svg>
