<svg width="1910" height="584" viewBox="0 0 1910 584" fill="none" xmlns="http://www.w3.org/2000/svg">
<g opacity="0.2">
<path fill-rule="evenodd" clip-rule="evenodd" d="M424.608 195.695C424.608 198.047 422.7 199.956 420.347 199.956C417.994 199.956 416.086 198.047 416.086 195.695C416.086 193.342 417.994 191.434 420.347 191.434C422.7 191.434 424.608 193.342 424.608 195.695Z" fill="#D3FFFA"/>
<path d="M111.846 363.854C112.223 361.531 110.647 359.342 108.324 358.964C106.001 358.586 103.812 360.163 103.434 362.486C103.056 364.808 104.633 366.998 106.956 367.376C109.278 367.753 111.468 366.177 111.846 363.854Z" fill="#D3FFFA"/>
<path d="M127.224 133.163C127.602 130.84 126.026 128.651 123.703 128.273C121.38 127.895 119.191 129.472 118.813 131.794C118.435 134.117 120.012 136.306 122.335 136.684C124.657 137.062 126.847 135.485 127.224 133.163Z" fill="#D3FFFA"/>
<path d="M492.065 9.39557C493.966 8.00837 494.382 5.34283 492.995 3.4419C491.608 1.54097 488.942 1.1245 487.042 2.5117C485.141 3.8989 484.724 6.56444 486.111 8.46537C487.499 10.3663 490.164 10.7828 492.065 9.39557Z" fill="#D3FFFA"/>
<path fill-rule="evenodd" clip-rule="evenodd" d="M740.881 239.425C740.881 241.778 738.973 243.686 736.62 243.686C734.268 243.686 732.359 241.778 732.359 239.425C732.359 237.072 734.268 235.164 736.62 235.164C738.973 235.164 740.881 237.072 740.881 239.425Z" fill="#D3FFFA"/>
<path fill-rule="evenodd" clip-rule="evenodd" d="M1259.73 328.738C1259.73 331.09 1257.83 332.998 1255.47 332.998C1253.12 332.998 1251.21 331.09 1251.21 328.738C1251.21 326.385 1253.12 324.477 1255.47 324.477C1257.83 324.477 1259.73 326.385 1259.73 328.738Z" fill="#D3FFFA"/>
<path fill-rule="evenodd" clip-rule="evenodd" d="M1219.58 48.4406C1219.58 50.7933 1217.67 52.7016 1215.32 52.7016C1212.97 52.7016 1211.06 50.7933 1211.06 48.4406C1211.06 46.088 1212.97 44.1797 1215.32 44.1797C1217.67 44.1797 1219.58 46.088 1219.58 48.4406Z" fill="#D3FFFA"/>
<path fill-rule="evenodd" clip-rule="evenodd" d="M669.95 61.6985C669.95 64.0511 668.041 65.9594 665.689 65.9594C663.336 65.9594 661.428 64.0511 661.428 61.6985C661.428 59.3458 663.336 57.4375 665.689 57.4375C668.041 57.4375 669.95 59.3458 669.95 61.6985Z" fill="#D3FFFA"/>
<path fill-rule="evenodd" clip-rule="evenodd" d="M922.873 43.7649C922.873 46.1175 920.965 48.0258 918.613 48.0258C916.26 48.0258 914.352 46.1175 914.352 43.7649C914.352 41.4122 916.26 39.5039 918.613 39.5039C920.965 39.5039 922.873 41.4122 922.873 43.7649Z" fill="#D3FFFA"/>
<path fill-rule="evenodd" clip-rule="evenodd" d="M1465.7 413.351C1465.7 415.703 1463.79 417.612 1461.43 417.612C1459.08 417.612 1457.17 415.703 1457.17 413.351C1457.17 410.998 1459.08 409.09 1461.43 409.09C1463.79 409.09 1465.7 410.998 1465.7 413.351Z" fill="#D3FFFA"/>
<path fill-rule="evenodd" clip-rule="evenodd" d="M1339.22 28.8C1339.22 31.1527 1337.31 33.061 1334.96 33.061C1332.61 33.061 1330.7 31.1527 1330.7 28.8C1330.7 26.4474 1332.61 24.5391 1334.96 24.5391C1337.31 24.5391 1339.22 26.4474 1339.22 28.8Z" fill="#D3FFFA"/>
<path fill-rule="evenodd" clip-rule="evenodd" d="M618.761 308.064C618.761 309.238 617.81 310.195 616.63 310.195C615.451 310.195 614.5 309.243 614.5 308.064C614.5 306.885 615.451 305.934 616.63 305.934C617.81 305.934 618.761 306.885 618.761 308.064Z" fill="#D3FFFA"/>
<path fill-rule="evenodd" clip-rule="evenodd" d="M1909.98 221.466C1909.98 222.64 1909.03 223.597 1907.85 223.597C1906.67 223.597 1905.72 222.646 1905.72 221.466C1905.72 220.287 1906.67 219.336 1907.85 219.336C1909.03 219.336 1909.98 220.287 1909.98 221.466Z" fill="#D3FFFA"/>
<path fill-rule="evenodd" clip-rule="evenodd" d="M1901.1 244.994C1901.1 246.173 1900.15 247.124 1898.97 247.124C1897.79 247.124 1896.84 246.173 1896.84 244.994C1896.84 243.815 1897.79 242.863 1898.97 242.863C1900.15 242.863 1901.1 243.815 1901.1 244.994Z" fill="#D3FFFA"/>
<path d="M631.361 432.956C632.538 432.956 633.491 432.002 633.491 430.826C633.491 429.649 632.538 428.695 631.361 428.695C630.184 428.695 629.23 429.649 629.23 430.826C629.23 432.002 630.184 432.956 631.361 432.956Z" fill="#D3FFFA"/>
<path fill-rule="evenodd" clip-rule="evenodd" d="M1716.24 299.006C1716.24 300.179 1715.29 301.136 1714.11 301.136C1712.93 301.136 1711.98 300.185 1711.98 299.006C1711.98 297.826 1712.93 296.875 1714.11 296.875C1715.29 296.875 1716.24 297.826 1716.24 299.006Z" fill="#D3FFFA"/>
<path fill-rule="evenodd" clip-rule="evenodd" d="M1866.92 410.353C1866.92 411.527 1865.96 412.484 1864.78 412.484C1863.61 412.484 1862.65 411.532 1862.65 410.353C1862.65 409.174 1863.61 408.223 1864.78 408.223C1865.96 408.223 1866.92 409.174 1866.92 410.353Z" fill="#D3FFFA"/>
<path fill-rule="evenodd" clip-rule="evenodd" d="M595.753 137.318C595.753 138.491 594.802 139.448 593.623 139.448C592.443 139.448 591.492 138.497 591.492 137.318C591.492 136.139 592.443 135.188 593.623 135.188C594.802 135.188 595.753 136.139 595.753 137.318Z" fill="#D3FFFA"/>
<path d="M1200.02 117.374C1201.19 117.374 1202.15 116.42 1202.15 115.244C1202.15 114.067 1201.19 113.113 1200.02 113.113C1198.84 113.113 1197.89 114.067 1197.89 115.244C1197.89 116.42 1198.84 117.374 1200.02 117.374Z" fill="#D3FFFA"/>
<path fill-rule="evenodd" clip-rule="evenodd" d="M786.98 468.349C786.98 469.523 786.028 470.48 784.849 470.48C783.67 470.48 782.719 469.528 782.719 468.349C782.719 467.17 783.67 466.219 784.849 466.219C786.028 466.219 786.98 467.17 786.98 468.349Z" fill="#D3FFFA"/>
<path fill-rule="evenodd" clip-rule="evenodd" d="M199.706 327.646C199.706 328.82 198.755 329.777 197.576 329.777C196.397 329.777 195.445 328.825 195.445 327.646C195.445 326.467 196.397 325.516 197.576 325.516C198.755 325.516 199.706 326.467 199.706 327.646Z" fill="#D3FFFA"/>
<path fill-rule="evenodd" clip-rule="evenodd" d="M696.997 381.052C696.997 382.226 696.046 383.183 694.867 383.183C693.688 383.183 692.736 382.232 692.736 381.052C692.736 379.873 693.688 378.922 694.867 378.922C696.046 378.922 696.997 379.873 696.997 381.052Z" fill="#D3FFFA"/>
<path fill-rule="evenodd" clip-rule="evenodd" d="M1863.82 38.0406C1863.82 39.2141 1862.86 40.1711 1861.69 40.1711C1860.51 40.1711 1859.55 39.2198 1859.55 38.0406C1859.55 36.8615 1860.51 35.9102 1861.69 35.9102C1862.86 35.9102 1863.82 36.8615 1863.82 38.0406Z" fill="#D3FFFA"/>
<path fill-rule="evenodd" clip-rule="evenodd" d="M1718.37 141.185C1718.37 142.359 1717.42 143.316 1716.24 143.316C1715.06 143.316 1714.11 142.364 1714.11 141.185C1714.11 140.006 1715.06 139.055 1716.24 139.055C1717.42 139.055 1718.37 140.006 1718.37 141.185Z" fill="#D3FFFA"/>
<path fill-rule="evenodd" clip-rule="evenodd" d="M1623.81 43.9625C1623.81 45.136 1622.85 46.093 1621.68 46.093C1620.5 46.093 1619.54 45.1417 1619.54 43.9625C1619.54 42.7833 1620.5 41.832 1621.68 41.832C1622.85 41.832 1623.81 42.7833 1623.81 43.9625Z" fill="#D3FFFA"/>
<path fill-rule="evenodd" clip-rule="evenodd" d="M1706.21 13.5836C1706.21 14.7571 1705.26 15.7141 1704.08 15.7141C1702.9 15.7141 1701.95 14.7628 1701.95 13.5836C1701.95 12.4044 1702.9 11.4531 1704.08 11.4531C1705.26 11.4531 1706.21 12.4044 1706.21 13.5836Z" fill="#D3FFFA"/>
<path fill-rule="evenodd" clip-rule="evenodd" d="M1637.33 24.232C1637.33 25.4055 1636.37 26.3625 1635.19 26.3625C1634.02 26.3625 1633.06 25.4112 1633.06 24.232C1633.06 23.0529 1634.02 22.1016 1635.19 22.1016C1636.37 22.1016 1637.33 23.0529 1637.33 24.232Z" fill="#D3FFFA"/>
<path fill-rule="evenodd" clip-rule="evenodd" d="M1327.21 139.052C1327.21 140.226 1326.26 141.183 1325.08 141.183C1323.9 141.183 1322.95 140.232 1322.95 139.052C1322.95 137.873 1323.9 136.922 1325.08 136.922C1326.26 136.922 1327.21 137.873 1327.21 139.052Z" fill="#D3FFFA"/>
<path fill-rule="evenodd" clip-rule="evenodd" d="M1347.72 306.912C1347.72 308.085 1346.76 309.042 1345.59 309.042C1344.41 309.042 1343.46 308.091 1343.46 306.912C1343.46 305.733 1344.41 304.781 1345.59 304.781C1346.76 304.781 1347.72 305.733 1347.72 306.912Z" fill="#D3FFFA"/>
<path fill-rule="evenodd" clip-rule="evenodd" d="M1615.68 180.463C1615.68 181.636 1614.73 182.593 1613.55 182.593C1612.37 182.593 1611.42 181.642 1611.42 180.463C1611.42 179.283 1612.37 178.332 1613.55 178.332C1614.73 178.332 1615.68 179.283 1615.68 180.463Z" fill="#D3FFFA"/>
<path fill-rule="evenodd" clip-rule="evenodd" d="M1549.97 56.2789C1549.97 57.4524 1549.02 58.4094 1547.84 58.4094C1546.66 58.4094 1545.71 57.4581 1545.71 56.2789C1545.71 55.0998 1546.66 54.1484 1547.84 54.1484C1549.02 54.1484 1549.97 55.0998 1549.97 56.2789Z" fill="#D3FFFA"/>
<path fill-rule="evenodd" clip-rule="evenodd" d="M1456.73 162.951C1456.73 164.124 1455.78 165.081 1454.6 165.081C1453.42 165.081 1452.47 164.13 1452.47 162.951C1452.47 161.772 1453.42 160.82 1454.6 160.82C1455.78 160.82 1456.73 161.772 1456.73 162.951Z" fill="#D3FFFA"/>
<path fill-rule="evenodd" clip-rule="evenodd" d="M863.437 5.96251C863.437 7.13599 862.485 8.093 861.306 8.093C860.127 8.093 859.176 7.14168 859.176 5.96251C859.176 4.78334 860.127 3.83203 861.306 3.83203C862.485 3.83203 863.437 4.78334 863.437 5.96251Z" fill="#D3FFFA"/>
<path fill-rule="evenodd" clip-rule="evenodd" d="M355.8 228.033C355.8 229.206 354.849 230.163 353.67 230.163C352.49 230.163 351.539 229.212 351.539 228.033C351.539 226.854 352.49 225.902 353.67 225.902C354.849 225.902 355.8 226.854 355.8 228.033Z" fill="#D3FFFA"/>
<path fill-rule="evenodd" clip-rule="evenodd" d="M61.5227 581.869C61.5227 583.042 60.5714 583.999 59.3922 583.999C58.213 583.999 57.2617 583.048 57.2617 581.869C57.2617 580.69 58.213 579.738 59.3922 579.738C60.5714 579.738 61.5227 580.69 61.5227 581.869Z" fill="#D3FFFA"/>
<path fill-rule="evenodd" clip-rule="evenodd" d="M459.477 334.307C459.477 336.528 457.677 338.329 455.455 338.329C453.234 338.329 451.434 336.528 451.434 334.307C451.434 332.085 453.234 330.285 455.455 330.285C457.677 330.285 459.477 332.085 459.477 334.307Z" fill="#D3FFFA"/>
<path fill-rule="evenodd" clip-rule="evenodd" d="M1227.71 35.0016C1227.71 36.175 1226.76 37.132 1225.58 37.132C1224.4 37.132 1223.45 36.1807 1223.45 35.0016C1223.45 33.8224 1224.4 32.8711 1225.58 32.8711C1226.76 32.8711 1227.71 33.8224 1227.71 35.0016Z" fill="#D3FFFA"/>
<path fill-rule="evenodd" clip-rule="evenodd" d="M1030.61 24.9781C1030.61 26.1516 1029.66 27.1086 1028.48 27.1086C1027.3 27.1086 1026.35 26.1573 1026.35 24.9781C1026.35 23.799 1027.3 22.8477 1028.48 22.8477C1029.66 22.8477 1030.61 23.799 1030.61 24.9781Z" fill="#D3FFFA"/>
<path fill-rule="evenodd" clip-rule="evenodd" d="M891.122 150.709C891.122 151.882 890.171 152.839 888.992 152.839C887.813 152.839 886.861 151.888 886.861 150.709C886.861 149.529 887.813 148.578 888.992 148.578C890.171 148.578 891.122 149.529 891.122 150.709Z" fill="#D3FFFA"/>
<path fill-rule="evenodd" clip-rule="evenodd" d="M651.226 56.4977C651.226 57.6711 650.274 58.6281 649.095 58.6281C647.916 58.6281 646.965 57.6768 646.965 56.4977C646.965 55.3185 647.916 54.3672 649.095 54.3672C650.274 54.3672 651.226 55.3185 651.226 56.4977Z" fill="#D3FFFA"/>
<path fill-rule="evenodd" clip-rule="evenodd" d="M278.761 89.6031C278.761 90.7766 277.81 91.7336 276.63 91.7336C275.451 91.7336 274.5 90.7823 274.5 89.6031C274.5 88.424 275.451 87.4727 276.63 87.4727C277.81 87.4727 278.761 88.424 278.761 89.6031Z" fill="#D3FFFA"/>
<path fill-rule="evenodd" clip-rule="evenodd" d="M470.46 242.584C470.46 243.757 469.509 244.714 468.33 244.714C467.151 244.714 466.199 243.763 466.199 242.584C466.199 241.404 467.151 240.453 468.33 240.453C469.509 240.453 470.46 241.404 470.46 242.584Z" fill="#D3FFFA"/>
<path fill-rule="evenodd" clip-rule="evenodd" d="M187.534 164.353C187.534 165.527 186.583 166.484 185.404 166.484C184.225 166.484 183.273 165.532 183.273 164.353C183.273 163.174 184.225 162.223 185.404 162.223C186.583 162.223 187.534 163.174 187.534 164.353Z" fill="#D3FFFA"/>
<path fill-rule="evenodd" clip-rule="evenodd" d="M6.38595 47.0055C6.38595 48.179 5.43464 49.136 4.25547 49.136C3.0763 49.136 2.125 48.1847 2.125 47.0055C2.125 45.8263 3.0763 44.875 4.25547 44.875C5.43464 44.875 6.38595 45.8263 6.38595 47.0055Z" fill="#D3FFFA"/>
<path fill-rule="evenodd" clip-rule="evenodd" d="M274.503 16.2438C274.503 17.4172 273.552 18.3742 272.373 18.3742C271.193 18.3742 270.242 17.4229 270.242 16.2438C270.242 15.0646 271.193 14.1133 272.373 14.1133C273.552 14.1133 274.503 15.0646 274.503 16.2438Z" fill="#D3FFFA"/>
<path fill-rule="evenodd" clip-rule="evenodd" d="M4.26098 234.224C4.26098 235.398 3.30964 236.355 2.13047 236.355C0.951304 236.355 0 235.403 0 234.224C0 233.045 0.951304 232.094 2.13047 232.094C3.30964 232.094 4.26098 233.045 4.26098 234.224Z" fill="#D3FFFA"/>
<path fill-rule="evenodd" clip-rule="evenodd" d="M294.019 317.017C294.019 318.191 293.067 319.148 291.888 319.148C290.709 319.148 289.758 318.196 289.758 317.017C289.758 315.838 290.709 314.887 291.888 314.887C293.067 314.887 294.019 315.838 294.019 317.017Z" fill="#D3FFFA"/>
<path fill-rule="evenodd" clip-rule="evenodd" d="M65.7844 473.857C65.7844 475.031 64.8331 475.988 63.6539 475.988C62.4747 475.988 61.5234 475.036 61.5234 473.857C61.5234 472.678 62.4747 471.727 63.6539 471.727C64.8331 471.727 65.7844 472.678 65.7844 473.857Z" fill="#D3FFFA"/>
<path fill-rule="evenodd" clip-rule="evenodd" d="M216.169 205.033C216.169 206.206 215.218 207.163 214.039 207.163C212.86 207.163 211.908 206.212 211.908 205.033C211.908 203.854 212.86 202.902 214.039 202.902C215.218 202.902 216.169 203.854 216.169 205.033Z" fill="#D3FFFA"/>
<path fill-rule="evenodd" clip-rule="evenodd" d="M610.171 398.283C610.171 399.456 609.22 400.413 608.041 400.413C606.861 400.413 605.91 399.462 605.91 398.283C605.91 397.104 606.861 396.152 608.041 396.152C609.22 396.152 610.171 397.104 610.171 398.283Z" fill="#D3FFFA"/>
<path d="M760.353 314.886C761.53 314.886 762.484 313.932 762.484 312.755C762.484 311.579 761.53 310.625 760.353 310.625C759.176 310.625 758.223 311.579 758.223 312.755C758.223 313.932 759.176 314.886 760.353 314.886Z" fill="#D3FFFA"/>
<path d="M680.134 386.527C681.311 386.527 682.265 385.573 682.265 384.396C682.265 383.219 681.311 382.266 680.134 382.266C678.958 382.266 678.004 383.219 678.004 384.396C678.004 385.573 678.958 386.527 680.134 386.527Z" fill="#D3FFFA"/>
<path d="M642.435 160.511C643.612 160.511 644.566 159.557 644.566 158.38C644.566 157.204 643.612 156.25 642.435 156.25C641.259 156.25 640.305 157.204 640.305 158.38C640.305 159.557 641.259 160.511 642.435 160.511Z" fill="#D3FFFA"/>
<path fill-rule="evenodd" clip-rule="evenodd" d="M1181.64 94.732C1181.64 95.9055 1180.69 96.8625 1179.51 96.8625C1178.33 96.8625 1177.38 95.9112 1177.38 94.732C1177.38 93.5529 1178.33 92.6016 1179.51 92.6016C1180.69 92.6016 1181.64 93.5529 1181.64 94.732Z" fill="#D3FFFA"/>
<path fill-rule="evenodd" clip-rule="evenodd" d="M1787.88 448.373C1787.88 449.546 1786.92 450.503 1785.75 450.503C1784.57 450.503 1783.62 449.552 1783.62 448.373C1783.62 447.193 1784.57 446.242 1785.75 446.242C1786.92 446.242 1787.88 447.193 1787.88 448.373Z" fill="#D3FFFA"/>
</g>
</svg>
