<svg width="1902" height="489" viewBox="0 0 1902 489" fill="none" xmlns="http://www.w3.org/2000/svg">
<path opacity="0.8" d="M-0.000762939 45.836C1.94456 37.3685 9.52232 31.0499 18.5817 31.0499C20.2443 31.0499 21.8579 31.2648 23.396 31.6644C27.8673 22.1037 37.5713 15.476 48.8248 15.476C51.7353 15.476 54.5402 15.917 57.1792 16.7389C63.2376 6.70688 74.2423 0 86.8154 0C101.775 0 114.514 9.49293 119.343 22.7823C122.759 20.8784 126.695 19.7889 130.883 19.7889C143.995 19.7889 154.623 30.4166 154.623 43.5287C154.623 44.3053 154.582 45.0744 154.51 45.8322H0.00300598L-0.000762939 45.836Z" fill="white"/>
<path opacity="0.8" d="M1516.46 441.073C1515.52 436.994 1511.87 433.952 1507.51 433.952C1506.71 433.952 1505.93 434.054 1505.19 434.246C1503.04 429.643 1498.36 426.45 1492.94 426.45C1491.54 426.45 1490.19 426.664 1488.92 427.06C1486 422.231 1480.71 419 1474.65 419C1467.45 419 1461.31 423.573 1458.99 429.971C1457.34 429.055 1455.45 428.527 1453.43 428.527C1447.11 428.527 1442 433.647 1442 439.958C1442 440.331 1442.02 440.7 1442.05 441.066H1516.46V441.073Z" fill="white"/>
<path opacity="0.8" d="M1810.43 488.895C1811.58 483.885 1816.06 480.145 1821.42 480.145C1822.41 480.145 1823.36 480.273 1824.27 480.507C1826.92 474.848 1832.66 470.927 1839.32 470.927C1841.04 470.927 1842.7 471.187 1844.26 471.677C1847.85 465.739 1854.36 461.773 1861.8 461.773C1870.65 461.773 1878.19 467.391 1881.05 475.259C1883.07 474.132 1885.4 473.487 1887.88 473.487C1895.64 473.487 1901.93 479.775 1901.93 487.538C1901.93 487.998 1901.91 488.454 1901.87 488.903H1810.43V488.895Z" fill="white"/>
<path opacity="0.8" d="M1632.31 430.028C1633.86 423.261 1639.92 418.209 1647.16 418.209C1648.49 418.209 1649.78 418.379 1651.01 418.699C1654.58 411.057 1662.34 405.764 1671.33 405.764C1673.65 405.764 1675.89 406.119 1678.01 406.774C1682.85 398.759 1691.64 393.398 1701.69 393.398C1713.65 393.398 1723.83 400.988 1727.69 411.608C1730.42 410.085 1733.56 409.214 1736.91 409.214C1747.39 409.214 1755.89 417.708 1755.89 428.188C1755.89 428.81 1755.85 429.425 1755.8 430.028H1632.31H1632.31Z" fill="white"/>
<path opacity="0.8" d="M266.455 306.073C265.516 301.994 261.867 298.952 257.505 298.952C256.706 298.952 255.929 299.054 255.187 299.246C253.034 294.643 248.359 291.45 242.941 291.45C241.539 291.45 240.189 291.664 238.919 292.06C236.001 287.231 230.704 284 224.649 284C217.445 284 211.311 288.573 208.985 294.971C207.341 294.055 205.445 293.527 203.428 293.527C197.113 293.527 191.997 298.647 191.997 304.958C191.997 305.331 192.016 305.7 192.05 306.066H266.455V306.073Z" fill="white"/>
<path opacity="0.8" d="M454.998 368.981C457.964 356.053 469.534 346.403 483.36 346.403C485.898 346.403 488.358 346.733 490.711 347.337C497.537 332.735 512.345 322.619 529.516 322.619C533.96 322.619 538.238 323.29 542.263 324.554C551.51 309.233 568.302 299 587.495 299C610.325 299 629.771 313.494 637.142 333.796C642.353 330.887 648.362 329.224 654.76 329.224C674.77 329.224 690.998 345.449 690.998 365.479C690.998 366.665 690.94 367.842 690.823 369H454.998V368.981Z" fill="white" fill-opacity="0.7"/>
<path opacity="0.8" d="M824.604 284.262C823.827 280.888 820.807 278.369 817.199 278.369C816.536 278.369 815.895 278.456 815.28 278.614C813.497 274.807 809.633 272.164 805.15 272.164C803.993 272.164 802.873 272.341 801.821 272.669C799.408 268.673 795.024 266 790.014 266C784.053 266 778.979 269.781 777.056 275.078C775.695 274.32 774.127 273.887 772.457 273.887C767.231 273.887 762.998 278.121 762.998 283.346C762.998 283.655 763.013 283.96 763.043 284.262H824.6H824.604Z" fill="white"/>
</svg>
