<svg width="92" height="190" viewBox="0 0 92 190" fill="none" xmlns="http://www.w3.org/2000/svg">
<g clip-path="url(#clip0_6406_66555)">
<path d="M45.84 189.13C71.1567 189.13 91.68 187.402 91.68 185.27C91.68 183.138 71.1567 181.41 45.84 181.41C20.5233 181.41 0 183.138 0 185.27C0 187.402 20.5233 189.13 45.84 189.13Z" fill="#96B5AF" fill-opacity="0.1"/>
<path d="M44.9198 185.262C67.7458 185.262 86.2498 167.877 86.2498 146.432C86.2498 124.986 67.7458 107.602 44.9198 107.602C22.0939 107.602 3.58984 124.986 3.58984 146.432C3.58984 167.877 22.0939 185.262 44.9198 185.262Z" fill="#F0F6F7"/>
<path d="M44.92 107.602C33.4 107.602 22.99 112.032 15.49 119.172C15.51 119.242 18.97 131.272 36.42 135.102C53.92 138.932 65.92 129.432 68.25 129.772C70.58 130.102 80.08 144.882 75.25 160.942C70.42 176.992 38.89 190.302 14.75 172.972C22.29 180.542 33.01 185.272 44.92 185.272C67.75 185.272 86.25 167.882 86.25 146.442C86.25 125.002 67.74 107.612 44.92 107.612V107.602Z" fill="#D5DFE0"/>
<path d="M44.9214 131.2C64.5165 131.2 80.4014 116.273 80.4014 97.8595C80.4014 79.4464 64.5165 64.5195 44.9214 64.5195C25.3263 64.5195 9.44141 79.4464 9.44141 97.8595C9.44141 116.273 25.3263 131.2 44.9214 131.2Z" fill="#F0F6F7"/>
<path d="M44.9196 64.5312C37.5896 64.5312 30.7796 66.6212 25.1196 70.2012C25.2996 70.7912 25.6596 71.3713 26.2496 71.9413C30.9196 76.4413 44.4196 81.6113 57.7496 77.1113C71.0796 72.6113 80.3796 107.511 64.4196 119.281C48.4596 131.051 24.9496 127.181 12.8496 112.161C18.5396 123.431 30.7596 131.221 44.9196 131.221C64.5196 131.221 80.3996 116.301 80.3996 97.8812C80.3996 79.4612 64.5096 64.5413 44.9196 64.5413V64.5312Z" fill="#D5DFE0"/>
<path d="M44.9197 75.7495C61.2066 75.7495 74.4097 62.5464 74.4097 46.2595C74.4097 29.9727 61.2066 16.7695 44.9197 16.7695C28.6328 16.7695 15.4297 29.9727 15.4297 46.2595C15.4297 62.5464 28.6328 75.7495 44.9197 75.7495Z" fill="#F0F6F7"/>
<path d="M27.7913 42.8009C27.7913 42.8009 28.1613 42.3009 29.1013 42.4209C30.0413 42.5409 34.0713 43.2809 36.0713 48.7409C38.0713 54.2009 33.4413 54.2909 26.0213 53.1409C21.9113 52.5109 27.7913 42.8009 27.7913 42.8009Z" fill="#D5DFE0"/>
<path d="M65.0597 24.7227C65.5097 25.3427 74.6097 38.0527 67.5897 52.7627C60.3897 67.8527 39.4397 75.7627 23.1797 66.1827C28.5697 72.0627 36.3097 75.7527 44.9197 75.7527C61.2097 75.7527 74.4097 62.5527 74.4097 46.2627C74.4097 37.7627 70.8097 30.1027 65.0497 24.7227H65.0597Z" fill="#D5DFE0"/>
<path d="M45.3413 40.3113C45.3413 41.7113 44.2113 42.8413 42.8113 42.8413C41.4113 42.8413 40.2812 41.7113 40.2812 40.3113C40.2812 38.9113 41.4113 37.7812 42.8113 37.7812C44.2113 37.7812 45.3413 38.9113 45.3413 40.3113Z" fill="#D5DFE0"/>
<path d="M21.4909 42.8413C22.8882 42.8413 24.0209 41.7085 24.0209 40.3113C24.0209 38.914 22.8882 37.7812 21.4909 37.7812C20.0937 37.7812 18.9609 38.914 18.9609 40.3113C18.9609 41.7085 20.0937 42.8413 21.4909 42.8413Z" fill="#D5DFE0"/>
<path d="M42.3913 42.4194C43.7886 42.4194 44.9213 41.2867 44.9213 39.8894C44.9213 38.4921 43.7886 37.3594 42.3913 37.3594C40.994 37.3594 39.8613 38.4921 39.8613 39.8894C39.8613 41.2867 40.994 42.4194 42.3913 42.4194Z" fill="#2F2D30"/>
<path d="M23.601 39.8894C23.601 41.2894 22.471 42.4194 21.071 42.4194C19.671 42.4194 18.541 41.2894 18.541 39.8894C18.541 38.4894 19.671 37.3594 21.071 37.3594C22.471 37.3594 23.601 38.4894 23.601 39.8894Z" fill="#2F2D30"/>
<path d="M29.2806 42.6123C28.7906 42.3223 27.3106 42.3923 25.2606 42.6723C25.1706 42.8523 24.9806 42.9823 24.7606 42.9823C24.6006 42.9823 24.4506 42.9123 24.3506 42.8023C22.3406 43.1123 19.9206 43.5923 17.4106 44.1423C17.3606 44.3523 17.1905 44.5123 16.9705 44.5123C16.8205 44.5123 16.6906 44.4323 16.6106 44.3223C14.0506 44.8923 11.4306 45.5123 9.10055 46.1023C9.08055 46.3223 8.90055 46.5023 8.67055 46.5023C8.52055 46.5023 8.39055 46.4223 8.31055 46.3023C5.13055 47.1023 2.59055 47.7923 1.68055 48.0823C-0.50945 48.7623 2.99055 50.1023 8.30055 51.2323C8.38055 51.1123 8.51055 51.0323 8.66055 51.0323C8.87055 51.0323 9.05055 51.1923 9.08055 51.3923C11.2406 51.8323 13.6505 52.2323 16.0806 52.5323C16.1706 52.4123 16.3105 52.3323 16.4705 52.3323C16.6805 52.3323 16.8506 52.4523 16.9306 52.6323C19.4706 52.9323 21.9906 53.1223 24.2406 53.1423C24.3406 52.9923 24.5006 52.8823 24.6906 52.8823C24.8806 52.8823 25.0406 52.9923 25.1406 53.1423C28.6805 53.1023 31.3706 52.5923 32.0206 51.3523C34.5506 46.4823 31.4806 43.9023 29.2906 42.6123H29.2806Z" fill="#F49C4D"/>
<path d="M25.2607 42.6741C25.1707 42.8541 24.9807 42.9841 24.7607 42.9841C24.6007 42.9841 24.4507 42.9141 24.3507 42.8041C24.8307 43.3241 25.4907 44.2241 25.8307 45.5641C26.3907 47.7941 25.8407 50.3441 24.2207 53.1441C24.2207 53.1441 24.2207 53.1441 24.2307 53.1441C24.3307 52.9941 24.4907 52.8841 24.6807 52.8841C24.8707 52.8841 25.0307 52.9941 25.1307 53.1441C25.1307 53.1441 25.1307 53.1441 25.1407 53.1441C27.2207 49.3341 27.0107 46.5341 26.4407 44.8241C26.1307 43.9041 25.6907 43.1941 25.2707 42.6641L25.2607 42.6741Z" fill="#E5814A"/>
<path d="M9.09102 46.0959C9.07102 46.3159 8.89102 46.4959 8.66102 46.4959C8.51102 46.4959 8.38102 46.4159 8.30102 46.2959C8.52102 46.6459 8.72102 47.0459 8.84102 47.5359C9.12102 48.6559 8.93102 49.8959 8.29102 51.2159C8.37102 51.0959 8.50102 51.0159 8.65102 51.0159C8.86102 51.0159 9.04102 51.1759 9.07102 51.3759C9.77102 49.8159 9.93102 48.3559 9.50102 47.0159C9.39102 46.6759 9.24102 46.3659 9.09102 46.0859V46.0959Z" fill="#E5814A"/>
<path d="M17.4101 44.145C17.3601 44.355 17.1901 44.515 16.9701 44.515C16.8201 44.515 16.6901 44.435 16.6101 44.325C16.9101 44.775 17.1901 45.355 17.3701 46.075C17.8401 47.975 17.4001 50.145 16.0801 52.525C16.1701 52.405 16.3101 52.325 16.4701 52.325C16.6801 52.325 16.8501 52.445 16.9301 52.625C18.6801 49.315 18.5001 46.875 17.9901 45.365C17.8301 44.895 17.6401 44.485 17.4301 44.125L17.4101 44.145Z" fill="#E5814A"/>
<path d="M29.2805 42.6131C29.1405 42.5331 28.9105 42.4831 28.6105 42.4531C30.6705 43.8731 32.9405 45.9631 31.8105 47.7931C29.8905 50.8831 6.04049 49.5531 3.44049 49.1931C1.10049 48.8731 1.17049 48.3931 1.20049 48.3031C0.220488 49.0231 3.51049 50.2131 8.29049 51.2331C8.37049 51.1131 8.50049 51.0331 8.65049 51.0331C8.86049 51.0331 9.04049 51.1931 9.07049 51.3931C11.2305 51.8331 13.6405 52.2331 16.0705 52.5331C16.1605 52.4131 16.3005 52.3331 16.4605 52.3331C16.6705 52.3331 16.8405 52.4531 16.9205 52.6331C19.4605 52.9331 21.9805 53.1231 24.2305 53.1431C24.3305 52.9931 24.4905 52.8831 24.6805 52.8831C24.8705 52.8831 25.0305 52.9931 25.1305 53.1431C28.6705 53.1031 31.3605 52.5931 32.0105 51.3531C34.5405 46.4831 31.4705 43.9031 29.2805 42.6131Z" fill="#E5814A"/>
<path d="M8.83125 49.5491C8.72125 50.0891 8.55125 50.6391 8.28125 51.2091C8.36125 51.0891 8.49125 51.0091 8.64125 51.0091C8.85125 51.0091 9.03125 51.1691 9.06125 51.3691C9.34125 50.7591 9.52125 50.1591 9.63125 49.5791C9.35125 49.5691 9.08125 49.5591 8.82125 49.5391L8.83125 49.5491Z" fill="#C46F45"/>
<path d="M16.4605 52.3295C16.6705 52.3295 16.8405 52.4495 16.9205 52.6295C17.4705 51.5895 17.8105 50.6395 18.0305 49.7695C17.7605 49.7695 17.4905 49.7695 17.2205 49.7695C16.9705 50.6495 16.5905 51.5695 16.0605 52.5195C16.1505 52.3995 16.2905 52.3195 16.4505 52.3195L16.4605 52.3295Z" fill="#C46F45"/>
<path d="M25.7507 49.4706C25.4607 50.6406 24.9607 51.8606 24.2207 53.1406C24.2207 53.1406 24.2207 53.1406 24.2307 53.1406C24.3307 52.9906 24.4907 52.8806 24.6807 52.8806C24.8707 52.8806 25.0307 52.9906 25.1307 53.1406C25.1307 53.1406 25.1307 53.1406 25.1407 53.1406C25.9007 51.7506 26.3507 50.5006 26.5907 49.3906C26.3207 49.4206 26.0407 49.4506 25.7507 49.4806V49.4706Z" fill="#C46F45"/>
<path d="M5.64139 47.783C7.07139 47.293 25.1014 43.273 27.8514 44.043C30.6014 44.813 29.8814 46.723 28.8114 47.443C27.7414 48.153 1.08139 49.343 5.64139 47.783Z" fill="#FFC46E"/>
<path d="M18.2898 48.3428C18.3998 47.1228 18.2298 46.1328 17.9798 45.3728C17.9498 45.2828 17.9198 45.2128 17.8798 45.1328C17.6198 45.1828 17.3498 45.2328 17.0898 45.2828C17.1898 45.5228 17.2798 45.7828 17.3498 46.0728C17.5298 46.8028 17.5798 47.5728 17.4898 48.3728C17.7598 48.3628 18.0198 48.3528 18.2898 48.3428Z" fill="#F49C4D"/>
<path d="M26.8107 47.7827C26.8707 46.5827 26.6907 45.5927 26.4407 44.8327C26.3407 44.5227 26.2107 44.2427 26.0807 43.9727C25.8107 43.9827 25.5207 44.0127 25.2207 44.0327C25.4607 44.4627 25.6707 44.9627 25.8307 45.5627C26.0107 46.2927 26.0707 47.0627 26.0107 47.8627C26.3007 47.8327 26.5607 47.8127 26.8107 47.7827Z" fill="#F49C4D"/>
<path d="M8.83039 47.5316C8.91039 47.8516 8.94039 48.1916 8.94039 48.5316C9.20039 48.5316 9.47039 48.5316 9.74039 48.5316C9.74039 48.0116 9.66039 47.5016 9.50039 47.0116C9.48039 46.9516 9.46039 46.9016 9.44039 46.8516C9.17039 46.9116 8.90039 46.9716 8.65039 47.0316C8.71039 47.1916 8.78039 47.3516 8.82039 47.5316H8.83039Z" fill="#F49C4D"/>
<path d="M41.5698 40.5809C42.2933 40.5809 42.8798 39.9944 42.8798 39.2709C42.8798 38.5474 42.2933 37.9609 41.5698 37.9609C40.8463 37.9609 40.2598 38.5474 40.2598 39.2709C40.2598 39.9944 40.8463 40.5809 41.5698 40.5809Z" fill="#6F6D70"/>
<path d="M20.2397 40.5809C20.9632 40.5809 21.5497 39.9944 21.5497 39.2709C21.5497 38.5474 20.9632 37.9609 20.2397 37.9609C19.5162 37.9609 18.9297 38.5474 18.9297 39.2709C18.9297 39.9944 19.5162 40.5809 20.2397 40.5809Z" fill="#6F6D70"/>
<path d="M24.0215 57.6328C24.0215 57.6328 31.7315 67.0528 43.9915 57.1328" stroke="#2F2D30" stroke-miterlimit="10" stroke-linecap="round"/>
<path d="M74.4002 45.7395C74.1202 29.6895 61.0302 16.7695 44.9202 16.7695C34.5402 16.7695 25.4202 22.1395 20.1602 30.2495C26.1302 31.2295 40.6702 32.7695 60.1402 24.7295C60.1402 24.7295 73.1702 31.1895 68.8102 49.7795C68.8102 49.7795 71.4702 47.8695 74.4002 45.7395Z" fill="#D5DFE0"/>
<path d="M55.6309 49.5492C55.6309 51.2592 53.6209 52.6492 51.1309 52.6492C48.6409 52.6492 46.6309 51.2592 46.6309 49.5492C46.6309 47.8392 48.6409 46.4492 51.1309 46.4492C53.6209 46.4492 55.6309 47.8392 55.6309 49.5492Z" fill="#EFD3DE"/>
<path d="M32.23 84.1514C33.3235 84.1514 34.21 83.2649 34.21 82.1714C34.21 81.0779 33.3235 80.1914 32.23 80.1914C31.1365 80.1914 30.25 81.0779 30.25 82.1714C30.25 83.2649 31.1365 84.1514 32.23 84.1514Z" fill="#D5DFE0"/>
<path d="M31.8999 83.8194C32.9934 83.8194 33.8799 82.9329 33.8799 81.8394C33.8799 80.7458 32.9934 79.8594 31.8999 79.8594C30.8064 79.8594 29.9199 80.7458 29.9199 81.8394C29.9199 82.9329 30.8064 83.8194 31.8999 83.8194Z" fill="#2F2D30"/>
<path d="M28.8003 93.042C29.8938 93.042 30.7803 92.1556 30.7803 91.062C30.7803 89.9685 29.8938 89.082 28.8003 89.082C27.7068 89.082 26.8203 89.9685 26.8203 91.062C26.8203 92.1556 27.7068 93.042 28.8003 93.042Z" fill="#D5DFE0"/>
<path d="M28.4702 92.71C29.5638 92.71 30.4502 91.8235 30.4502 90.73C30.4502 89.6365 29.5638 88.75 28.4702 88.75C27.3767 88.75 26.4902 89.6365 26.4902 90.73C26.4902 91.8235 27.3767 92.71 28.4702 92.71Z" fill="#2F2D30"/>
<path d="M28.9605 103.319C30.054 103.319 30.9405 102.433 30.9405 101.339C30.9405 100.246 30.054 99.3594 28.9605 99.3594C27.8669 99.3594 26.9805 100.246 26.9805 101.339C26.9805 102.433 27.8669 103.319 28.9605 103.319Z" fill="#D5DFE0"/>
<path d="M28.6304 102.991C29.7239 102.991 30.6104 102.105 30.6104 101.011C30.6104 99.9177 29.7239 99.0312 28.6304 99.0312C27.5369 99.0312 26.6504 99.9177 26.6504 101.011C26.6504 102.105 27.5369 102.991 28.6304 102.991Z" fill="#2F2D30"/>
<path d="M65.3203 17.5126C65.3203 17.5126 65.2603 17.5726 65.1903 17.6526C63.8603 15.2926 53.1503 14.9426 40.4403 16.9326C28.1603 18.8526 18.3203 22.2926 17.1903 24.9126L17.0703 24.8726V25.3626C17.0703 25.3626 17.0703 25.3626 17.0703 25.3726C17.0703 25.4326 17.0703 25.5026 17.0703 25.5626C17.4903 28.2426 28.6303 28.7326 41.9503 26.6426C54.9003 24.6126 65.1503 20.9026 65.3203 18.2326V18.2226V17.5126Z" fill="#1B1F23"/>
<path d="M65.3206 17.5098C65.7406 20.1898 55.2806 24.0598 41.9606 26.1398C28.6406 28.2298 17.5006 27.7398 17.0806 25.0598C16.6606 22.3798 27.1206 18.5098 40.4406 16.4298C53.7606 14.3398 64.9006 14.8298 65.3206 17.5098Z" fill="#282C30"/>
<path d="M17.0808 25.0628C17.2708 26.2428 19.5408 27.0028 23.1708 27.2928C12.7708 25.7028 24.7208 20.7228 24.7208 20.7228V20.1328C19.8208 21.8128 16.8508 23.6128 17.0808 25.0628Z" fill="#3C4044"/>
<path d="M44.5303 15.8596L24.5603 22.7696C24.5603 22.7696 21.1503 25.9096 29.7203 25.7596C33.4603 25.6896 40.2803 25.3096 49.1003 23.1496C49.1003 23.1496 49.3503 23.9096 48.3603 24.9696C58.4703 22.8096 65.6703 19.7496 65.3203 17.5196C64.9403 15.1196 55.9703 14.4796 44.5303 15.8696V15.8596Z" fill="#1B1F23"/>
<path d="M46.7314 0.68113C43.9414 -0.71887 42.1914 0.28113 40.7714 1.51113C39.3314 2.76113 37.3214 3.07113 35.5714 2.33113C33.8414 1.59113 31.8714 1.18113 29.6514 3.37113C22.7914 10.1011 24.1214 23.9711 24.1214 23.9711C24.3614 25.5211 32.2114 25.5711 41.6414 24.0911C51.0814 22.6111 58.5314 20.1611 58.2914 18.6111C58.2914 18.6111 55.3114 4.99113 46.7314 0.68113Z" fill="#282C30"/>
<path d="M40.8513 19.0711C34.4013 20.0811 28.4713 20.4911 24.0213 20.3311C23.9813 22.5111 24.1113 23.9611 24.1113 23.9611C24.3513 25.5111 32.2013 25.5611 41.6313 24.0811C51.0713 22.6011 58.5213 20.1511 58.2813 18.6011C58.2813 18.6011 57.9713 17.1811 57.2613 15.1211C53.0613 16.6311 47.2913 18.0511 40.8513 19.0611V19.0711Z" fill="#4F4C51"/>
<path d="M46.7309 0.68113C43.9409 -0.71887 42.1909 0.28113 40.7709 1.51113C39.3309 2.76113 37.3209 3.07113 35.5709 2.33113C34.8109 2.00113 33.9909 1.74113 33.1309 1.74113C34.7409 2.68113 37.4509 4.26113 38.3109 4.77113C39.5609 5.52113 40.3209 1.55113 43.3109 1.02113C45.9309 0.55113 50.0309 15.1611 44.7509 23.5511C52.6609 22.0711 58.5109 19.9811 58.2909 18.6111C58.2909 18.6111 55.3109 4.99113 46.7309 0.68113Z" fill="#1B1F23"/>
<path d="M46.8602 17.9611C46.4702 19.9611 45.7902 21.8711 44.7402 23.5411C52.6502 22.0611 58.5002 19.9711 58.2802 18.6011C58.2802 18.6011 57.9702 17.1811 57.2602 15.1211C54.4202 16.1411 50.8502 17.1211 46.8602 17.9611Z" fill="#423F44"/>
<path d="M30.5501 4.93132C31.8601 3.54132 33.8901 5.68132 34.6401 6.76132C35.3901 7.84132 40.3601 20.2813 38.4701 22.5113C36.5901 24.7413 27.4001 23.5913 26.0201 22.8413C24.6401 22.0913 25.3801 10.4213 30.5501 4.92132V4.93132Z" fill="#3C4044"/>
<path d="M38.4702 22.5111C38.9302 21.9711 38.9802 20.8111 38.7802 19.3711C33.7702 20.0711 29.1602 20.3911 25.4102 20.3611C25.4402 21.7211 25.6602 22.6611 26.0202 22.8511C27.4002 23.6011 36.5902 24.7511 38.4702 22.5211V22.5111Z" fill="#575559"/>
</g>
<defs>
<clipPath id="clip0_6406_66555">
<rect width="91.67" height="189.13" fill="white"/>
</clipPath>
</defs>
</svg>
