<svg width="132" height="124" viewBox="0 0 132 124" fill="none" xmlns="http://www.w3.org/2000/svg">
<path d="M131.419 53.2759C129.109 36.2976 119.382 21.126 105.364 11.3748C89.7279 0.488728 70.428 -1.58136 51.9099 0.99717C35.1827 3.32148 20.2283 12.2374 12.0283 27.2909C3.56473 42.8347 4.21927 62.328 13.4556 77.3815C22.5464 92.2081 39.1009 103.893 55.0099 110.394C63.2371 113.753 72.2552 115.587 81.1097 114.026C89.5097 112.546 97.1733 107.861 103.328 102.095C115.673 90.5284 122.3 73.4411 120.473 56.5989C118.628 39.4935 108.791 23.8317 93.9096 15.1064C79.3279 6.55372 61.0189 4.81049 45.3554 11.4202C29.9646 17.9119 19.2555 31.767 18.0646 48.5456C16.8828 65.0972 24.6282 80.8498 37.7191 90.8461C50.5463 100.652 70.7098 107.18 86.2915 100.57C102.055 93.8786 109.937 76.9457 110.255 60.5575C110.591 43.216 101.564 27.8084 85.2461 21.0806C70.0462 14.8159 51.5917 16.9859 38.7645 27.4634C25.3191 38.4312 22.8737 56.5535 30.71 71.6979C34.6918 79.388 40.9191 85.4984 47.9917 90.3831C48.2554 90.5647 48.5008 90.5284 48.6917 90.3831C54.0462 93.7606 60.3917 95.7217 67.1916 95.7217C86.3642 95.7217 101.91 80.1961 101.91 61.0478C101.91 41.8995 86.3642 26.3739 67.1916 26.3739C48.019 26.3739 32.4736 41.8995 32.4736 61.0478C32.4736 67.14 34.0464 72.86 36.81 77.8355C29.1373 67.9935 25.1101 55.6184 29.6737 43.1252C35.0191 28.4894 50.9917 20.0456 65.9734 19.7823C82.7461 19.4827 99.3278 28.6891 105.528 44.705C111.564 60.3033 107.337 80.9588 94.8824 92.317C82.037 104.029 62.9826 102.25 48.3008 95.0408C34.3464 88.1859 23.4919 75.6655 20.7101 60.158C17.7374 43.6246 24.0191 27.0548 38.1191 17.6305C51.319 8.80539 68.3098 7.44349 83.1279 12.655C115.173 23.9315 128.119 63.4902 109.11 91.5271C99.5369 105.645 83.4188 114.879 66.1371 111.429C50.2826 108.269 34.5736 97.9099 23.4282 86.4427C11.292 73.9495 5.41926 56.6716 9.69196 39.4935C13.4828 24.1585 25.1737 11.4202 40.0281 6.09067C55.6644 0.479649 75.8007 0.525045 91.3006 6.52648C105.319 11.9559 117.31 22.8239 123.837 36.3793C138.555 66.904 124.382 104.047 93.2642 117.231C63.7189 129.751 26.5737 115.369 9.48287 89.1029C5.11017 82.3933 2.32837 74.921 1.97383 66.8858C1.91928 65.6238 -0.0534346 65.6147 0.00111049 66.8858C0.63747 83.9913 11.7283 98.4183 25.0101 108.342C39.1827 118.928 57.1462 125.121 74.937 123.831C110.391 121.262 136.182 88.1587 131.437 53.2759H131.419Z" fill="#FFD34E"/>
</svg>
