<svg width="256" height="256" viewBox="0 0 256 256" fill="none" xmlns="http://www.w3.org/2000/svg">
<path fill-rule="evenodd" clip-rule="evenodd" d="M127.698 62.2656C144.185 62.2656 157.551 48.9919 157.551 32.618C157.551 16.2441 144.185 2.97046 127.698 2.97046C111.21 2.97046 97.8443 16.2441 97.8443 32.618C97.8443 48.9919 111.21 62.2656 127.698 62.2656Z" fill="url(#paint0_linear_5190_4399)"/>
<path fill-rule="evenodd" clip-rule="evenodd" d="M106.614 88.2532C104.938 90.6444 103.645 93.3599 102.843 96.3364L102.378 98.0636L102.328 98.5656C102.033 101.511 102.275 104.484 103.041 107.343L128.318 201.714L128.333 201.658L137.849 236.99C141.562 250.774 155.822 258.959 169.701 255.272C183.581 251.586 191.822 237.423 188.11 223.64L153.616 95.5652C149.903 81.7817 135.643 73.5967 121.764 77.2834C115.259 79.0113 109.992 83.0405 106.614 88.2532Z" fill="url(#paint1_linear_5190_4399)"/>
<path d="M120.586 239.372L93.239 136.73L70.8954 222.674C67.1601 237.042 75.4529 251.805 89.4177 255.648C102.456 259.236 115.829 252.036 120.586 239.372Z" fill="url(#paint2_linear_5190_4399)"/>
<defs>
<linearGradient id="paint0_linear_5190_4399" x1="117.536" y1="59.4608" x2="137.274" y2="5.01228" gradientUnits="userSpaceOnUse">
<stop stop-color="#F9C200"/>
<stop offset="1" stop-color="#D6860F"/>
</linearGradient>
<linearGradient id="paint1_linear_5190_4399" x1="82.1448" y1="82.6013" x2="220.308" y2="202.388" gradientUnits="userSpaceOnUse">
<stop stop-color="#7A9FFF"/>
<stop offset="0.244901" stop-color="#4378FF"/>
<stop offset="1" stop-color="#43FFDD"/>
</linearGradient>
<linearGradient id="paint2_linear_5190_4399" x1="-349.656" y1="138.826" x2="-465.338" y2="215.159" gradientUnits="userSpaceOnUse">
<stop stop-color="#FF475D"/>
<stop offset="1" stop-color="#FF8743"/>
</linearGradient>
</defs>
</svg>
