<svg width="256" height="256" viewBox="0 0 256 256" fill="none" xmlns="http://www.w3.org/2000/svg">
<path fill-rule="evenodd" clip-rule="evenodd" d="M128.421 180.858L109.851 111.53C109.288 109.43 109.111 107.245 109.327 105.082L109.364 104.713L84.6537 196.46C81.9265 206.586 87.9813 216.99 98.1774 219.699C108.374 222.407 118.85 216.394 121.577 206.268L128.421 180.858ZM96.3064 199.555L114.892 130.547L122.189 157.637L109.925 203.173C108.919 206.907 105.055 209.125 101.294 208.126C97.5337 207.127 95.3005 203.29 96.3064 199.555Z" fill="url(#paint0_linear_185_92)"/>
<path fill-rule="evenodd" clip-rule="evenodd" d="M128.421 180.858L109.851 111.53C109.288 109.43 109.111 107.245 109.327 105.082L109.364 104.713L84.6537 196.46C81.9265 206.586 87.9813 216.99 98.1774 219.699C108.374 222.407 118.85 216.394 121.577 206.268L128.421 180.858ZM96.3064 199.555L114.892 130.547L122.189 157.637L109.925 203.173C108.919 206.907 105.055 209.125 101.294 208.126C97.5337 207.127 95.3005 203.29 96.3064 199.555Z" fill="url(#paint1_linear_185_92)"/>
<path fill-rule="evenodd" clip-rule="evenodd" d="M127.965 78.5605C140.077 78.5605 149.896 68.8092 149.896 56.7803C149.896 44.7514 140.077 35 127.965 35C115.852 35 106.033 44.7514 106.033 56.7803C106.033 68.8092 115.852 78.5605 127.965 78.5605ZM127.965 66.5814C133.415 66.5814 137.834 62.1933 137.834 56.7803C137.834 51.3673 133.415 46.9791 127.965 46.9791C122.514 46.9791 118.096 51.3673 118.096 56.7803C118.096 62.1933 122.514 66.5814 127.965 66.5814Z" fill="url(#paint2_linear_185_92)"/>
<path fill-rule="evenodd" clip-rule="evenodd" d="M112.476 97.6521C111.245 99.4088 110.295 101.404 109.706 103.59L109.364 104.859L109.327 105.228C109.111 107.391 109.288 109.576 109.851 111.676L128.421 181.005L128.432 180.964L135.423 206.92C138.15 217.046 148.626 223.059 158.823 220.351C169.019 217.642 175.073 207.238 172.346 197.112L147.005 103.024C144.278 92.8979 133.802 86.8848 123.605 89.5933C118.827 90.8627 114.958 93.8226 112.476 97.6521ZM134.675 157.784L147.075 203.825C148.081 207.56 151.945 209.777 155.706 208.778C159.466 207.78 161.699 203.942 160.694 200.208L141.971 130.693L141.946 130.789L141.672 129.744L135.093 106.875L135.032 106.901C134.458 104.469 132.588 102.423 129.989 101.732C127.103 100.966 124.156 102.094 122.487 104.348C121.549 105.913 121.223 107.838 121.734 109.736L128.432 134.603L128.439 134.577L134.725 157.598L134.675 157.784Z" fill="url(#paint3_linear_185_92)"/>
<defs>
<linearGradient id="paint0_linear_185_92" x1="97" y1="170" x2="51.5" y2="195.5" gradientUnits="userSpaceOnUse">
<stop stop-color="#FF475D"/>
<stop offset="1" stop-color="#FF8743"/>
</linearGradient>
<linearGradient id="paint1_linear_185_92" x1="120.5" y1="151.5" x2="97" y2="160" gradientUnits="userSpaceOnUse">
<stop stop-color="#B91B2E"/>
<stop offset="1" stop-color="#BD2033" stop-opacity="0"/>
</linearGradient>
<linearGradient id="paint2_linear_185_92" x1="120.5" y1="76.5" x2="135" y2="36.5" gradientUnits="userSpaceOnUse">
<stop stop-color="#F9C200"/>
<stop offset="1" stop-color="#D6860F"/>
</linearGradient>
<linearGradient id="paint3_linear_185_92" x1="94.5" y1="93.5" x2="196" y2="181.5" gradientUnits="userSpaceOnUse">
<stop stop-color="#7A9FFF"/>
<stop offset="0.244901" stop-color="#4378FF"/>
<stop offset="1" stop-color="#43FFDD"/>
</linearGradient>
</defs>
</svg>
