<svg width="89" height="18" viewBox="0 0 89 18" fill="none" xmlns="http://www.w3.org/2000/svg">
<path d="M0.00366981 17.4659C-0.0320987 17.7362 0.198161 17.9743 0.495321 17.9743H3.13473C3.38546 17.9743 3.59663 17.8026 3.62646 17.5745L5.04866 6.69927C5.10778 6.24718 5.77562 6.14762 5.98809 6.55923L10.156 14.6333C10.2379 14.7919 10.4122 14.893 10.6037 14.893H14.4538C14.6452 14.893 14.8196 14.7919 14.9015 14.6333L19.0694 6.55923C19.2818 6.14762 19.9497 6.24717 20.0088 6.69927L21.431 17.5745C21.4608 17.8026 21.672 17.9743 21.9227 17.9743H24.5621C24.8593 17.9743 25.0896 17.7362 25.0538 17.4659L22.7953 0.399162C22.7652 0.171339 22.5541 0 22.3037 0H19.1385C18.947 0 18.7727 0.101149 18.6908 0.259757L12.9764 11.3296C12.7976 11.6759 12.2598 11.6759 12.081 11.3296L6.36665 0.259757C6.28477 0.101148 6.11044 0 5.91895 0H2.75377C2.50331 0 2.29227 0.171338 2.26212 0.399161L0.00366981 17.4659Z" fill="white"/>
<path d="M26.737 17.3736C26.627 17.6681 26.8659 17.9743 27.2056 17.9743H29.9403C30.1501 17.9743 30.3371 17.8532 30.4071 17.6721L31.7323 14.2451C31.7922 14.0902 31.9388 13.9771 32.1155 13.9494L42.0465 12.3906C42.2864 12.3529 42.5205 12.4806 42.599 12.6916L44.4473 17.6668C44.5156 17.8507 44.7041 17.9743 44.9161 17.9743H47.6462C47.986 17.9743 48.2248 17.6681 48.1148 17.3736L41.738 0.306803C41.6694 0.12329 41.4811 0 41.2694 0H33.5824C33.3707 0 33.1824 0.123289 33.1138 0.306803L26.737 17.3736ZM33.7736 10.6584C33.4024 10.7152 33.1004 10.3867 33.2246 10.0611L35.7709 3.38538C35.8403 3.20328 36.0279 3.08131 36.2384 3.08131H38.6101C38.8223 3.08131 39.0109 3.20514 39.0791 3.38921L41.1562 8.99514C41.2544 9.2601 41.07 9.54255 40.7688 9.58861L33.7736 10.6584Z" fill="white"/>
<path d="M53.9315 17.9743C54.1046 17.9743 54.2651 17.8916 54.3549 17.7561L58.2193 11.9252C58.3175 11.7772 58.499 11.6932 58.6873 11.7089L64.1134 12.1594C64.3685 12.1806 64.5639 12.3766 64.5639 12.6114V17.5205C64.5639 17.7712 64.7857 17.9743 65.0592 17.9743H67.7065C67.98 17.9743 68.2017 17.7712 68.2017 17.5205V0.453781C68.2017 0.203165 67.98 0 67.7065 0H50.508C50.2345 0 50.0128 0.203165 50.0128 0.453781V5.90585C50.0128 8.12508 51.4386 10.0117 53.931 10.9474C54.2264 11.0582 54.36 11.3837 54.1949 11.634L50.4669 17.2858C50.2674 17.5883 50.5051 17.9743 50.8908 17.9743H53.9315ZM56.8686 8.47361C55.3295 8.34522 53.6506 7.70328 53.6506 5.77746V3.53509C53.6506 3.28448 53.8723 3.08131 54.1458 3.08131H64.0687C64.3422 3.08131 64.5639 3.28448 64.5639 3.53509V8.61858C64.5639 8.88544 64.3138 9.09468 64.0238 9.07049L56.8686 8.47361Z" fill="white"/>
<path d="M71.5531 17.5462C71.5531 17.7968 71.7748 18 72.0484 18H74.6956C74.9692 18 75.1909 17.7968 75.1909 17.5462V12.9036C75.1909 12.7802 75.2458 12.6621 75.3429 12.5765L78.2777 9.99117C78.4948 9.79997 78.8463 9.82899 79.0225 10.0527L85.1165 17.7862C85.2096 17.9043 85.359 17.9743 85.518 17.9743H88.4966C88.9 17.9743 89.1342 17.556 88.8988 17.2558L81.4589 7.76741C81.3146 7.58346 81.3405 7.33022 81.5195 7.17402L88.8453 0.782407C89.1691 0.499913 88.9508 0 88.5037 0H85.0418C84.9154 0 84.7938 0.0442557 84.7019 0.123707L76.026 7.62334C75.7101 7.89641 75.1909 7.6912 75.1909 7.29326V0.479458C75.1909 0.228842 74.9692 0.0256773 74.6956 0.0256773H72.0484C71.7748 0.0256773 71.5531 0.228842 71.5531 0.479459V17.5462Z" fill="white"/>
</svg>
