<svg width="22" height="22" viewBox="0 0 22 22" fill="none" xmlns="http://www.w3.org/2000/svg">
<path d="M11.0002 5.90024C8.17803 5.90024 5.90024 8.17803 5.90024 11.0002C5.90024 13.8225 8.17803 16.1002 11.0002 16.1002C13.8225 16.1002 16.1002 13.8225 16.1002 11.0002C16.1002 8.17803 13.8225 5.90024 11.0002 5.90024ZM11.0002 14.8323C8.87101 14.8323 7.16821 13.1295 7.16821 11.0002C7.16821 8.87101 8.87101 7.16821 11.0002 7.16821C13.1295 7.16821 14.8323 8.87101 14.8323 11.0002C14.8323 13.1295 13.1295 14.8323 11.0002 14.8323Z" fill="#5C5D81" stroke="#5C5D81" stroke-width="0.2"/>
<path d="M10.972 4.83292C11.3615 4.83292 11.6848 4.50959 11.6848 4.12009V1.61307C11.6848 1.22357 11.3615 0.900244 10.972 0.900244C10.5825 0.900244 10.2591 1.22357 10.2591 1.61307V4.12009C10.2591 4.50959 10.5825 4.83292 10.972 4.83292Z" fill="#5C5D81" stroke="#5C5D81" stroke-width="0.2"/>
<path d="M5.60777 6.64202L5.60776 6.64203L5.60888 6.64315C5.7433 6.77757 5.9383 6.83958 6.12528 6.83958C6.31227 6.83958 6.50727 6.77757 6.64169 6.64315C6.90359 6.38125 6.90359 5.92796 6.64169 5.66606L4.85892 3.88329C4.59702 3.62139 4.14372 3.62139 3.88182 3.88329C3.62012 4.14499 3.61993 4.59781 3.88124 4.8598L5.60777 6.64202Z" fill="#5C5D81" stroke="#5C5D81" stroke-width="0.2"/>
<path d="M4.83243 10.972C4.83243 10.5825 4.5091 10.2591 4.1196 10.2591H1.61258C1.22308 10.2591 0.899756 10.5825 0.899756 10.972C0.899756 11.3615 1.22308 11.6848 1.61258 11.6848H4.1196C4.5091 11.6848 4.83243 11.3615 4.83243 10.972Z" fill="#5C5D81" stroke="#5C5D81" stroke-width="0.2"/>
<path d="M6.64173 15.3613L6.64217 15.3609L6.63349 15.3539C6.32311 15.1056 5.87459 15.0957 5.60893 15.3613L3.82616 17.1441C3.56426 17.406 3.56426 17.8593 3.82616 18.1212C3.96058 18.2556 4.15558 18.3176 4.34256 18.3176C4.52955 18.3176 4.72455 18.2556 4.85897 18.1212L6.64173 16.3384C6.90363 16.0765 6.90363 15.6232 6.64173 15.3613Z" fill="#5C5D81" stroke="#5C5D81" stroke-width="0.2"/>
<path d="M10.972 17.1668C10.5825 17.1668 10.2591 17.4902 10.2591 17.8797V20.3867C10.2591 20.7762 10.5825 21.0995 10.972 21.0995C11.3615 21.0995 11.6848 20.7762 11.6848 20.3867V17.8797C11.6848 17.4902 11.3615 17.1668 10.972 17.1668Z" fill="#5C5D81" stroke="#5C5D81" stroke-width="0.2"/>
<path d="M17.6018 18.3176C17.7888 18.3176 17.9838 18.2556 18.1182 18.1212C18.3801 17.8593 18.3801 17.406 18.1182 17.1441L16.3355 15.3613C16.0736 15.0994 15.6203 15.0994 15.3584 15.3613C15.0965 15.6232 15.0965 16.0765 15.3584 16.3384L17.1412 18.1212C17.2028 18.1828 17.2684 18.233 17.3454 18.2672C17.4228 18.3016 17.5066 18.3176 17.6018 18.3176Z" fill="#5C5D81" stroke="#5C5D81" stroke-width="0.2"/>
<path d="M17.1676 10.972C17.1676 11.3615 17.4909 11.6848 17.8804 11.6848H20.3874C20.7769 11.6848 21.1002 11.3615 21.1002 10.972C21.1002 10.5825 20.7769 10.2591 20.3874 10.2591H17.8804C17.4909 10.2591 17.1676 10.5825 17.1676 10.972Z" fill="#5C5D81" stroke="#5C5D81" stroke-width="0.2"/>
<path d="M15.3606 5.60817L15.3606 5.60814L15.3584 5.61035C15.0988 5.86991 15.0965 6.31746 15.3514 6.58038C15.4865 6.77655 15.6872 6.83958 15.8748 6.83958C16.0618 6.83958 16.2568 6.77757 16.3912 6.64315L18.174 4.86038C18.4359 4.59848 18.4359 4.14519 18.174 3.88329C17.9124 3.62177 17.4601 3.62139 17.198 3.88214L15.3606 5.60817Z" fill="#5C5D81" stroke="#5C5D81" stroke-width="0.2"/>
</svg>
